<mxfile host="app.diagrams.net" modified="2024-02-27T20:58:00.653Z" agent="Mozilla/5.0 (Windows NT 10.0; Win64; x64) AppleWebKit/537.36 (KHTML, like Gecko) Chrome/121.0.0.0 Safari/537.36" etag="dEwao0mjPKidvS7l24e4" version="23.1.1" type="github" pages="3">
  <diagram id="9q_fbMAlwhnnpu6DREGo" name="Guía de Componentes y Tipografia">
    <mxGraphModel dx="1326" dy="1292" grid="0" gridSize="10" guides="1" tooltips="1" connect="1" arrows="1" fold="1" page="1" pageScale="1" pageWidth="670" pageHeight="700" math="0" shadow="0">
      <root>
        <mxCell id="0" />
        <mxCell id="1" parent="0" />
        <mxCell id="5KAQonyMW2wmsGfObKGl-1" value="" style="rounded=0;whiteSpace=wrap;html=1;flipH=0;snapToPoint=0;" parent="1" vertex="1">
          <mxGeometry x="41" y="-351" width="792" height="121" as="geometry" />
        </mxCell>
        <mxCell id="5KAQonyMW2wmsGfObKGl-2" value="Usuarios internos / externos" style="text;html=1;strokeColor=none;fillColor=#e1d5e7;align=left;verticalAlign=middle;whiteSpace=wrap;rounded=0;flipH=0;spacingLeft=5;fontSize=24;fontFamily=Consolas;fontSource=https%3A%2F%2Ffonts.googleapis.com%2Fcss%3Ffamily%3DConsolas;snapToPoint=0;" parent="1" vertex="1">
          <mxGeometry x="52" y="-343" width="392" height="30" as="geometry" />
        </mxCell>
        <mxCell id="5KAQonyMW2wmsGfObKGl-3" value="" style="rounded=0;whiteSpace=wrap;html=1;flipH=0;snapToPoint=0;" parent="1" vertex="1">
          <mxGeometry x="41" y="-216" width="792" height="121" as="geometry" />
        </mxCell>
        <mxCell id="5KAQonyMW2wmsGfObKGl-4" value="Procesos de negocio / Actividades" style="text;html=1;strokeColor=none;fillColor=#e1d5e7;align=left;verticalAlign=middle;whiteSpace=wrap;rounded=0;flipH=0;spacingLeft=5;fontSize=24;fontFamily=Consolas;fontSource=https%3A%2F%2Ffonts.googleapis.com%2Fcss%3Ffamily%3DConsolas;snapToPoint=0;" parent="1" vertex="1">
          <mxGeometry x="48" y="-208" width="474" height="30" as="geometry" />
        </mxCell>
        <mxCell id="5KAQonyMW2wmsGfObKGl-5" value="" style="rounded=0;whiteSpace=wrap;html=1;flipH=0;snapToPoint=0;" parent="1" vertex="1">
          <mxGeometry x="41" y="-79" width="792" height="121" as="geometry" />
        </mxCell>
        <mxCell id="5KAQonyMW2wmsGfObKGl-6" value="Aplicaciones" style="text;html=1;strokeColor=none;fillColor=#e1d5e7;align=left;verticalAlign=middle;whiteSpace=wrap;rounded=0;flipH=0;spacingLeft=5;fontSize=24;fontFamily=Consolas;fontSource=https%3A%2F%2Ffonts.googleapis.com%2Fcss%3Ffamily%3DConsolas;snapToPoint=0;" parent="1" vertex="1">
          <mxGeometry x="48" y="-73" width="180" height="30" as="geometry" />
        </mxCell>
        <mxCell id="5KAQonyMW2wmsGfObKGl-7" value="" style="rounded=0;whiteSpace=wrap;html=1;flipH=0;snapToPoint=0;" parent="1" vertex="1">
          <mxGeometry x="41" y="58" width="792" height="121" as="geometry" />
        </mxCell>
        <mxCell id="5KAQonyMW2wmsGfObKGl-8" value="Integración" style="text;html=1;strokeColor=none;fillColor=#e1d5e7;align=left;verticalAlign=middle;whiteSpace=wrap;rounded=0;flipH=0;spacingLeft=5;fontSize=24;fontFamily=Consolas;fontSource=https%3A%2F%2Ffonts.googleapis.com%2Fcss%3Ffamily%3DConsolas;snapToPoint=0;" parent="1" vertex="1">
          <mxGeometry x="47" y="64" width="163" height="30" as="geometry" />
        </mxCell>
        <mxCell id="5KAQonyMW2wmsGfObKGl-9" value="" style="rounded=0;whiteSpace=wrap;html=1;flipH=0;snapToPoint=0;" parent="1" vertex="1">
          <mxGeometry x="41" y="197" width="792" height="121" as="geometry" />
        </mxCell>
        <mxCell id="5KAQonyMW2wmsGfObKGl-10" value="Infraestructura" style="text;html=1;strokeColor=none;fillColor=#e1d5e7;align=left;verticalAlign=middle;whiteSpace=wrap;rounded=0;flipH=0;spacingLeft=5;fontSize=24;fontFamily=Consolas;fontSource=https%3A%2F%2Ffonts.googleapis.com%2Fcss%3Ffamily%3DConsolas;snapToPoint=0;" parent="1" vertex="1">
          <mxGeometry x="48" y="204" width="220" height="30" as="geometry" />
        </mxCell>
        <mxCell id="5KAQonyMW2wmsGfObKGl-11" value="" style="rounded=0;whiteSpace=wrap;html=1;flipH=0;snapToPoint=0;" parent="1" vertex="1">
          <mxGeometry x="849" y="-351" width="222" height="668" as="geometry" />
        </mxCell>
        <mxCell id="5KAQonyMW2wmsGfObKGl-12" value="Datos / Almacenamiento" style="text;html=1;strokeColor=none;fillColor=#e1d5e7;align=center;verticalAlign=middle;whiteSpace=wrap;rounded=0;flipH=0;spacingLeft=5;fontSize=24;fontFamily=Consolas;fontSource=https%3A%2F%2Ffonts.googleapis.com%2Fcss%3Ffamily%3DConsolas;snapToPoint=0;" parent="1" vertex="1">
          <mxGeometry x="855" y="-347" width="210" height="69" as="geometry" />
        </mxCell>
        <mxCell id="5KAQonyMW2wmsGfObKGl-13" value="" style="rounded=0;whiteSpace=wrap;html=1;flipH=0;snapToPoint=0;" parent="1" vertex="1">
          <mxGeometry x="1088" y="-352.5" width="222" height="668" as="geometry" />
        </mxCell>
        <mxCell id="5KAQonyMW2wmsGfObKGl-14" value="Seguridad" style="text;html=1;strokeColor=none;fillColor=#e1d5e7;align=center;verticalAlign=middle;whiteSpace=wrap;rounded=0;flipH=0;spacingLeft=5;fontSize=24;fontFamily=Consolas;fontSource=https%3A%2F%2Ffonts.googleapis.com%2Fcss%3Ffamily%3DConsolas;snapToPoint=0;" parent="1" vertex="1">
          <mxGeometry x="1094" y="-347" width="207" height="69" as="geometry" />
        </mxCell>
        <mxCell id="5KAQonyMW2wmsGfObKGl-15" value="Usuario" style="sketch=0;pointerEvents=1;shadow=0;dashed=0;html=1;strokeColor=none;fillColor=#505050;labelPosition=center;verticalLabelPosition=bottom;verticalAlign=top;outlineConnect=0;align=center;shape=mxgraph.office.users.user;fontFamily=Consolas;fontSource=https%3A%2F%2Ffonts.googleapis.com%2Fcss%3Ffamily%3DConsolas;snapToPoint=0;" parent="1" vertex="1">
          <mxGeometry x="91" y="-301" width="32" height="32" as="geometry" />
        </mxCell>
        <mxCell id="5KAQonyMW2wmsGfObKGl-16" value="Grupo de&lt;br&gt;usuarios" style="sketch=0;pointerEvents=1;shadow=0;dashed=0;html=1;strokeColor=none;fillColor=#505050;labelPosition=center;verticalLabelPosition=bottom;verticalAlign=top;outlineConnect=0;align=center;shape=mxgraph.office.users.users_two;fontFamily=Consolas;fontSource=https%3A%2F%2Ffonts.googleapis.com%2Fcss%3Ffamily%3DConsolas;snapToPoint=0;" parent="1" vertex="1">
          <mxGeometry x="174" y="-302" width="37" height="31" as="geometry" />
        </mxCell>
        <mxCell id="5KAQonyMW2wmsGfObKGl-17" value="Equipo" style="sketch=0;pointerEvents=1;shadow=0;dashed=0;html=1;strokeColor=none;fillColor=#505050;labelPosition=center;verticalLabelPosition=bottom;verticalAlign=top;outlineConnect=0;align=center;shape=mxgraph.office.users.users;fontFamily=Consolas;fontSource=https%3A%2F%2Ffonts.googleapis.com%2Fcss%3Ffamily%3DConsolas;snapToPoint=0;" parent="1" vertex="1">
          <mxGeometry x="253" y="-298" width="32" height="32" as="geometry" />
        </mxCell>
        <mxCell id="5KAQonyMW2wmsGfObKGl-18" value="Librería Draw.io Office/Users&lt;br&gt;Tamaño 32x32&lt;br&gt;Texto 12 pt&lt;br&gt;Tipo de Fuente: Consolas&lt;br&gt;Sin negrita, Sin cursiva" style="text;html=1;strokeColor=none;fillColor=#f8cecc;align=left;verticalAlign=middle;whiteSpace=wrap;rounded=0;flipH=0;spacingLeft=5;fontSize=12;fontFamily=Consolas;fontSource=https%3A%2F%2Ffonts.googleapis.com%2Fcss%3Ffamily%3DConsolas;snapToPoint=0;" parent="1" vertex="1">
          <mxGeometry x="630" y="-344" width="193" height="104" as="geometry" />
        </mxCell>
        <mxCell id="5KAQonyMW2wmsGfObKGl-19" value="Usuario&lt;br&gt;técnico" style="sketch=0;pointerEvents=1;shadow=0;dashed=0;html=1;strokeColor=none;fillColor=#505050;labelPosition=center;verticalLabelPosition=bottom;verticalAlign=top;outlineConnect=0;align=center;shape=mxgraph.office.users.user_services;fontFamily=Consolas;fontSource=https%3A%2F%2Ffonts.googleapis.com%2Fcss%3Ffamily%3DConsolas;snapToPoint=0;" parent="1" vertex="1">
          <mxGeometry x="328" y="-298" width="32" height="32" as="geometry" />
        </mxCell>
        <mxCell id="5KAQonyMW2wmsGfObKGl-20" value="Consultar transacciones en cuenta de ahorros" style="html=1;outlineConnect=0;whiteSpace=wrap;fillColor=#ffff99;shape=mxgraph.archimate3.application;appType=proc;archiType=rounded;fontFamily=Consolas;fontSource=https%3A%2F%2Ffonts.googleapis.com%2Fcss%3Ffamily%3DConsolas;snapToPoint=0;" parent="1" vertex="1">
          <mxGeometry x="56" y="-164" width="150" height="60" as="geometry" />
        </mxCell>
        <mxCell id="5KAQonyMW2wmsGfObKGl-21" value="Librería Draw.io &lt;br&gt;Archimate 3.0 / Business&lt;br&gt;Tamaño 150x60 / 180x60 / 200 x60&lt;br&gt;Texto 12 pt&lt;br&gt;Tipo de Fuente: Consolas&lt;br&gt;Sin negrita, Sin cursiva" style="text;html=1;strokeColor=none;fillColor=#f8cecc;align=left;verticalAlign=middle;whiteSpace=wrap;rounded=0;flipH=0;spacingLeft=5;fontSize=12;fontFamily=Consolas;fontSource=https%3A%2F%2Ffonts.googleapis.com%2Fcss%3Ffamily%3DConsolas;snapToPoint=0;" parent="1" vertex="1">
          <mxGeometry x="629" y="-211" width="193" height="104" as="geometry" />
        </mxCell>
        <mxCell id="5KAQonyMW2wmsGfObKGl-22" value="Consultar transacciones en cuenta de ahorros" style="html=1;outlineConnect=0;whiteSpace=wrap;fillColor=#ffff99;shape=mxgraph.archimate3.application;appType=proc;archiType=rounded;fontFamily=Consolas;fontSource=https%3A%2F%2Ffonts.googleapis.com%2Fcss%3Ffamily%3DConsolas;snapToPoint=0;" parent="1" vertex="1">
          <mxGeometry x="216" y="-164" width="180" height="60" as="geometry" />
        </mxCell>
        <mxCell id="5KAQonyMW2wmsGfObKGl-23" value="Consultar transacciones en cuenta de ahorros" style="html=1;outlineConnect=0;whiteSpace=wrap;fillColor=#ffff99;shape=mxgraph.archimate3.application;appType=proc;archiType=rounded;fontFamily=Consolas;fontSource=https%3A%2F%2Ffonts.googleapis.com%2Fcss%3Ffamily%3DConsolas;snapToPoint=0;" parent="1" vertex="1">
          <mxGeometry x="407" y="-164" width="200" height="60" as="geometry" />
        </mxCell>
        <mxCell id="5KAQonyMW2wmsGfObKGl-24" value="Teller&lt;br&gt;&amp;lt;Terminal TN3270&amp;gt;&lt;br&gt;IP: 10.8.23.101" style="html=1;outlineConnect=0;whiteSpace=wrap;fillColor=#99ffff;shape=mxgraph.archimate3.application;appType=comp;archiType=square;fontFamily=Consolas;fontSource=https%3A%2F%2Ffonts.googleapis.com%2Fcss%3Ffamily%3DConsolas;snapToPoint=0;" parent="1" vertex="1">
          <mxGeometry x="56" y="-36" width="150" height="60" as="geometry" />
        </mxCell>
        <mxCell id="5KAQonyMW2wmsGfObKGl-25" value="CRM Ventas&lt;br&gt;&amp;lt;Salesforce API Version 38&amp;gt;&lt;br&gt;Endpoint: [IP Público]" style="html=1;outlineConnect=0;whiteSpace=wrap;fillColor=#99ffff;shape=mxgraph.archimate3.application;appType=comp;archiType=square;fontFamily=Consolas;fontSource=https%3A%2F%2Ffonts.googleapis.com%2Fcss%3Ffamily%3DConsolas;snapToPoint=0;" parent="1" vertex="1">
          <mxGeometry x="216" y="-36" width="180" height="60" as="geometry" />
        </mxCell>
        <mxCell id="5KAQonyMW2wmsGfObKGl-26" value="Cash Management&lt;br&gt;&amp;lt;Finastra SaaS Version&amp;gt;&lt;br&gt;Endpoint: [IP Público]" style="html=1;outlineConnect=0;whiteSpace=wrap;fillColor=#99ffff;shape=mxgraph.archimate3.application;appType=comp;archiType=square;fontFamily=Consolas;fontSource=https%3A%2F%2Ffonts.googleapis.com%2Fcss%3Ffamily%3DConsolas;snapToPoint=0;" parent="1" vertex="1">
          <mxGeometry x="407" y="-36" width="200" height="60" as="geometry" />
        </mxCell>
        <mxCell id="5KAQonyMW2wmsGfObKGl-27" value="Librería Draw.io &lt;br&gt;Archimate 3.0 / Application&lt;br&gt;Tamaño 150x60 / 180x60 / 200 x60&lt;br&gt;Texto 12 pt&lt;br&gt;Tipo de Fuente: Consolas&lt;br&gt;Sin negrita, Sin cursiva" style="text;html=1;strokeColor=none;fillColor=#f8cecc;align=left;verticalAlign=middle;whiteSpace=wrap;rounded=0;flipH=0;spacingLeft=5;fontSize=12;fontFamily=Consolas;fontSource=https%3A%2F%2Ffonts.googleapis.com%2Fcss%3Ffamily%3DConsolas;snapToPoint=0;" parent="1" vertex="1">
          <mxGeometry x="631" y="-73" width="193" height="104" as="geometry" />
        </mxCell>
        <mxCell id="5KAQonyMW2wmsGfObKGl-28" value="Bus Omnicanal&lt;br&gt;&amp;lt;WSO2 Versión X.XX&amp;gt;&lt;br&gt;IP: 10.0.2.15" style="html=1;outlineConnect=0;whiteSpace=wrap;fillColor=#99ffff;shape=mxgraph.archimate3.application;appType=comp;archiType=square;fontFamily=Consolas;fontSource=https%3A%2F%2Ffonts.googleapis.com%2Fcss%3Ffamily%3DConsolas;snapToPoint=0;" parent="1" vertex="1">
          <mxGeometry x="56" y="103" width="150" height="60" as="geometry" />
        </mxCell>
        <mxCell id="5KAQonyMW2wmsGfObKGl-29" value="API Manager&lt;br&gt;&amp;lt;APIGEE GCP PaaS&amp;gt;&lt;br&gt;Endpoint: [IP Público]" style="html=1;outlineConnect=0;whiteSpace=wrap;fillColor=#99ffff;shape=mxgraph.archimate3.application;appType=comp;archiType=square;fontFamily=Consolas;fontSource=https%3A%2F%2Ffonts.googleapis.com%2Fcss%3Ffamily%3DConsolas;snapToPoint=0;" parent="1" vertex="1">
          <mxGeometry x="216" y="103" width="180" height="60" as="geometry" />
        </mxCell>
        <mxCell id="5KAQonyMW2wmsGfObKGl-30" value="API Management&lt;br&gt;&amp;lt;RedHat 3Scale Versión 2.11&amp;gt;&lt;br&gt;IP: 10.0.2.21" style="html=1;outlineConnect=0;whiteSpace=wrap;fillColor=#99ffff;shape=mxgraph.archimate3.application;appType=comp;archiType=square;fontFamily=Consolas;fontSource=https%3A%2F%2Ffonts.googleapis.com%2Fcss%3Ffamily%3DConsolas;snapToPoint=0;" parent="1" vertex="1">
          <mxGeometry x="407" y="103" width="200" height="60" as="geometry" />
        </mxCell>
        <mxCell id="5KAQonyMW2wmsGfObKGl-31" value="ECUIO012TD1&lt;br&gt;&amp;lt;Windows 2017&amp;gt;&lt;br&gt;IP: 10.151.11.221" style="html=1;outlineConnect=0;whiteSpace=wrap;fillColor=#AFFFAF;shape=mxgraph.archimate3.application;appType=node;archiType=square;fontFamily=Consolas;fontSource=https%3A%2F%2Ffonts.googleapis.com%2Fcss%3Ffamily%3DConsolas;snapToPoint=0;" parent="1" vertex="1">
          <mxGeometry x="55" y="243" width="150" height="60" as="geometry" />
        </mxCell>
        <mxCell id="5KAQonyMW2wmsGfObKGl-32" value="ECUIO012TD1&lt;br&gt;&amp;lt;Windows 2017&amp;gt;&lt;br&gt;IP: 10.151.11.221" style="html=1;outlineConnect=0;whiteSpace=wrap;fillColor=#AFFFAF;shape=mxgraph.archimate3.application;appType=node;archiType=square;fontFamily=Consolas;fontSource=https%3A%2F%2Ffonts.googleapis.com%2Fcss%3Ffamily%3DConsolas;snapToPoint=0;" parent="1" vertex="1">
          <mxGeometry x="216" y="243" width="180" height="60" as="geometry" />
        </mxCell>
        <mxCell id="5KAQonyMW2wmsGfObKGl-33" value="ECUIO012TD1&lt;br&gt;&amp;lt;Windows 2017&amp;gt;&lt;br&gt;IP: 10.151.11.221" style="html=1;outlineConnect=0;whiteSpace=wrap;fillColor=#AFFFAF;shape=mxgraph.archimate3.application;appType=node;archiType=square;fontFamily=Consolas;fontSource=https%3A%2F%2Ffonts.googleapis.com%2Fcss%3Ffamily%3DConsolas;snapToPoint=0;" parent="1" vertex="1">
          <mxGeometry x="407" y="243" width="200" height="60" as="geometry" />
        </mxCell>
        <mxCell id="5KAQonyMW2wmsGfObKGl-34" value="Librería Draw.io &lt;br&gt;Archimate 3.0 / Technology&lt;br&gt;Tamaño 150x60 / 180x60 / 200 x60&lt;br&gt;Texto 12 pt&lt;br&gt;Tipo de Fuente: Consolas&lt;br&gt;Sin negrita, Sin cursiva" style="text;html=1;strokeColor=none;fillColor=#f8cecc;align=left;verticalAlign=middle;whiteSpace=wrap;rounded=0;flipH=0;spacingLeft=5;fontSize=12;fontFamily=Consolas;fontSource=https%3A%2F%2Ffonts.googleapis.com%2Fcss%3Ffamily%3DConsolas;snapToPoint=0;" parent="1" vertex="1">
          <mxGeometry x="631" y="205.5" width="193" height="104" as="geometry" />
        </mxCell>
        <mxCell id="5KAQonyMW2wmsGfObKGl-35" value="Librería Draw.io &lt;br&gt;Archimate 3.0 / Application&lt;br&gt;Tamaño 150x60 / 180x60 / 200 x60&lt;br&gt;Texto 12 pt&lt;br&gt;Tipo de Fuente: Consolas&lt;br&gt;Sin negrita, Sin cursiva" style="text;html=1;strokeColor=none;fillColor=#f8cecc;align=left;verticalAlign=middle;whiteSpace=wrap;rounded=0;flipH=0;spacingLeft=5;fontSize=12;fontFamily=Consolas;fontSource=https%3A%2F%2Ffonts.googleapis.com%2Fcss%3Ffamily%3DConsolas;snapToPoint=0;" parent="1" vertex="1">
          <mxGeometry x="631" y="65" width="193" height="104" as="geometry" />
        </mxCell>
        <mxCell id="5KAQonyMW2wmsGfObKGl-36" value="BD CRM&lt;br&gt;Ventas&lt;br&gt;&amp;lt;SQL Server 2023&amp;gt;&lt;br&gt;IP: 10.11.51.143" style="sketch=0;shadow=0;dashed=0;html=1;strokeColor=none;fillColor=#505050;labelPosition=center;verticalLabelPosition=bottom;verticalAlign=top;outlineConnect=0;align=center;shape=mxgraph.office.databases.application_store;fontFamily=Consolas;fontSource=https%3A%2F%2Ffonts.googleapis.com%2Fcss%3Ffamily%3DConsolas;snapToPoint=0;" parent="1" vertex="1">
          <mxGeometry x="944" y="-141" width="32" height="32" as="geometry" />
        </mxCell>
        <mxCell id="5KAQonyMW2wmsGfObKGl-37" value="Repositorio&lt;br&gt;Analítico Ventas&lt;br&gt;&amp;lt;GCP Bigquery&amp;gt;&lt;br&gt;Endpoint: [IP Público]" style="sketch=0;shadow=0;dashed=0;html=1;strokeColor=none;fillColor=#505050;labelPosition=center;verticalLabelPosition=bottom;verticalAlign=top;outlineConnect=0;align=center;shape=mxgraph.office.databases.database_cube;fontFamily=Consolas;fontSource=https%3A%2F%2Ffonts.googleapis.com%2Fcss%3Ffamily%3DConsolas;snapToPoint=0;" parent="1" vertex="1">
          <mxGeometry x="944" y="17" width="32" height="32" as="geometry" />
        </mxCell>
        <mxCell id="5KAQonyMW2wmsGfObKGl-38" value="Almacenamiento&lt;br&gt;de respaldo&lt;br&gt;&amp;lt;AWS S3&amp;gt;&lt;br&gt;Bucket: [BP-Respaldos]&lt;br&gt;" style="sketch=0;shadow=0;dashed=0;html=1;strokeColor=none;fillColor=#505050;labelPosition=center;verticalLabelPosition=bottom;verticalAlign=top;outlineConnect=0;align=center;shape=mxgraph.office.databases.database_public_folder;fontFamily=Consolas;fontSource=https%3A%2F%2Ffonts.googleapis.com%2Fcss%3Ffamily%3DConsolas;snapToPoint=0;" parent="1" vertex="1">
          <mxGeometry x="942" y="172" width="32" height="32" as="geometry" />
        </mxCell>
        <mxCell id="5KAQonyMW2wmsGfObKGl-39" value="Librería Draw.io Office/Databases&lt;br&gt;Tamaño 32x32&lt;br&gt;Texto 12 pt&lt;br&gt;Tipo de Fuente: Consolas&lt;br&gt;Sin negrita, Sin cursiva" style="text;html=1;strokeColor=none;fillColor=#f8cecc;align=left;verticalAlign=middle;whiteSpace=wrap;rounded=0;flipH=0;spacingLeft=5;fontSize=12;fontFamily=Consolas;fontSource=https%3A%2F%2Ffonts.googleapis.com%2Fcss%3Ffamily%3DConsolas;snapToPoint=0;" parent="1" vertex="1">
          <mxGeometry x="871" y="-270" width="193" height="104" as="geometry" />
        </mxCell>
        <mxCell id="5KAQonyMW2wmsGfObKGl-40" value="Librería Draw.io Office/Security&lt;br&gt;Tamaño 32x32&lt;br&gt;Texto 12 pt&lt;br&gt;Tipo de Fuente: Consolas&lt;br&gt;Sin negrita, Sin cursiva" style="text;html=1;strokeColor=none;fillColor=#f8cecc;align=left;verticalAlign=middle;whiteSpace=wrap;rounded=0;flipH=0;spacingLeft=5;fontSize=12;fontFamily=Consolas;fontSource=https%3A%2F%2Ffonts.googleapis.com%2Fcss%3Ffamily%3DConsolas;snapToPoint=0;" parent="1" vertex="1">
          <mxGeometry x="1100" y="-268" width="193" height="104" as="geometry" />
        </mxCell>
        <mxCell id="5KAQonyMW2wmsGfObKGl-41" value="Credenciales de usuario&lt;br&gt;&amp;lt;Banca Web front-end&amp;gt;&lt;br&gt;IP Dinámico Cliente" style="sketch=0;pointerEvents=1;shadow=0;dashed=0;html=1;strokeColor=none;fillColor=#505050;labelPosition=center;verticalLabelPosition=bottom;verticalAlign=top;outlineConnect=0;align=center;shape=mxgraph.office.security.credentials;fontFamily=Consolas;fontSource=https%3A%2F%2Ffonts.googleapis.com%2Fcss%3Ffamily%3DConsolas;snapToPoint=0;" parent="1" vertex="1">
          <mxGeometry x="1179" y="-141" width="32" height="32" as="geometry" />
        </mxCell>
        <mxCell id="5KAQonyMW2wmsGfObKGl-42" value="Servidor AD&lt;br&gt;&amp;lt;Microsoft Active Directory&amp;gt;&lt;br&gt;Endpoint: [IP Público]" style="sketch=0;pointerEvents=1;shadow=0;dashed=0;html=1;strokeColor=none;fillColor=#505050;labelPosition=center;verticalLabelPosition=bottom;verticalAlign=top;outlineConnect=0;align=center;shape=mxgraph.office.servers.active_directory_federation_services_server;fontFamily=Consolas;fontSource=https%3A%2F%2Ffonts.googleapis.com%2Fcss%3Ffamily%3DConsolas;snapToPoint=0;" parent="1" vertex="1">
          <mxGeometry x="1179" y="17" width="32" height="32" as="geometry" />
        </mxCell>
        <mxCell id="PXDprKuroL_W5jF87tts-1" value="" style="rounded=0;whiteSpace=wrap;html=1;" parent="1" vertex="1">
          <mxGeometry x="42" y="-574" width="1269" height="195" as="geometry" />
        </mxCell>
        <mxCell id="PXDprKuroL_W5jF87tts-2" value="" style="rounded=1;whiteSpace=wrap;html=1;fontFamily=cONSOLAS;" parent="1" vertex="1">
          <mxGeometry x="645" y="-538" width="646" height="137" as="geometry" />
        </mxCell>
        <mxCell id="PXDprKuroL_W5jF87tts-3" value="" style="shape=image;verticalLabelPosition=bottom;labelBackgroundColor=default;verticalAlign=top;aspect=fixed;imageAspect=0;image=data:image/png,iVBORw0KGgoAAAANSUhEUgAAAScAAAEoCAYAAAFtCwcCAAAAAXNSR0IArs4c6QAAAARnQU1BAACxjwv8YQUAAAAJcEhZcwAAFxEAABcRAcom8z8AACx6SURBVHhe7Z0LdFx3de639bAkS7ItP2JD/NLbTkggkBgD5RJ6gQB5XRISvyTLki3HSbhd97Z3tb1dd5W0kBLIiwAlkEUSnu1tuaW9bRftLSxgQULakhKSOLEtzUPyk5A4zsu2pHns++2jOfJIOpJGmqOZMzPfXuu3zsxodM5/9vnOd/b/PP5HGLONRES+lAzLg3klJF9MNWc0NCqab5JRGUo1ZzS8vpRr2KhMKY1GJftEq1o7tLaxZ0aqWzpVT3nMw/dMDYjWNe3WJa27ZqS+pUP1hcnzyH+jfjN5HvPWqHqsmpnJVaMGRVe29GodFpqO04gmj0zlZPUdBciWHpkAGlu5dv/kRuUkU9NQ5ZWpQDYqJ6tvGqqarSH5EPo0BHP1IVPBahS2yOjztRr9VdV5DlWpRiZ/N6eZyhQ2KlPYqEyZ3Kiw9xdzyaRGod814vXFXOLVqP/r9cVcMnn1HZYmDXl/OVdMapSF9nt/OVd4NirWL9d7fTlXeDbKwtkKPfZLuWDKRlnkS1vTNspi+LDEE6ivvf55vpixURbJiPw4aQ2z1WmdAo8Z+UlGjXLj7IDcZ70Srxn5yawaNTGSfbJ4XnhR6lOLYGQeqlKR8DowmmPQjvJUk5yt7GYv4eUclYWpJrFR08NGZYrfjerZu1lrG3snHXT1Qpbs9pyH743at+8KXdLaOe6YwVRUrtjvOY88N+oWz3nMS6MWjzsGNTWVF+SoUfv3v0NrW7dPOhDb0NSlNc0d+cmUHgNW3kw4EHu0v0obWvPVqCkYfKZG61p3slEzMtqojvwIfSoCm6naSY3KkXlORRy9oMgvF407EHvoySWe381Zo2YFG5UpbFSmjGvUgNzo+aVck94ofFA96Qv5IL1RFp5fyjWTGmXngL2+mEsmNirZL7vMfT2/nCsmNsrC84u5xKtRdowoFwfHpsSrURbJsHzK8x9ywVSNskiG5M/ycgJpukZZJA/IMluVyJzmrIEzNcqN5AlZORSVV5zeideM/CTTRk0MO1g66QCqT6QWwWDMZ6DU2+ps/LYHLHFQYQ5NvX8JSk0cAOzMFROVAUxUhjBRGRL8RB0UfaVP9HXsVN7A9Mwhf3gJ8/v1c5h/hhdbBD9Rh0V7912uS9pu0sV2MqBlmz8079DqCzo9Lwv2IviJwq7ZTu+MXmffMelsylyxeTlHyD0uwPWioBKV6Qm6THASZUfti1FR85KoYlFUPCK6f+/luqh5ty5s6tZFG3ZNS03jLl1xYY/WXLxD6xp7dTGS4oWTqJVFlCg0cLQbYYfGbDrh714cebZGy1ugnAk3BaRTfJveHLATdnbnhJ1J9FKTUXSKmgtOoppGE+WlJqPoPGouMFEZcn7Tm7ruchJVVHXUHOgL1WjZmt/TqrY9Wtvc5UnNxn0qS3eqvuI9j4kUZaKS2Dvih6lz+bd75mECiSOj33PeT/h/L4oyUfMBE5UhTFSGMFEZMnOiMjS7YmfaROEL1ckA3PgYBKZP1AFZmAjLGa9/LDWmTZQFNr97vP6x1JgxURaJqPzUvMop0DxmUgpklCh8oWIkIq96zaBUyChRbsTD8s9eMykFZpUoC2yCHxgbU8djhsXKrBPlxnBU7nA6n0ia4135vIoxB8w5UW6cOyxNseOYWZ7uuc8VWSfKDcxkAYrTK+IReTI9afEiUZpviZoqRkLyDmyWv4UFPY6a7HEk8ud4bQtO4n3hMN+JYjAYDEaeI9kvW2Me43CUJCH5SCotkwM10Gnn0j2rvEsclAifTKVlcuCPLxd7xZ0pTFSGMFEZwkRlCBOVIUxUhjBRGcJEZQgTlSHBTpRVxYOiLx0SfR3vvW7+mQtvGJjvMH5bsm/CMqcg8Ip646Toggt3adX6Ts+R6eZGt1Y0d+uXv9JePIl69YjooqYbta5lu/ddUnNk0cYd+siDbTrisUwvAp+oESy/ummX1rft8LwMeq5Ub9qpD3+lMePTbAWRqIVNXU6ivC6DnitVGy1RTaMXxHosdyIFlSgvZcyVokxUTaP/iarZ1FG8ikof3zBbuOllSNElaghFZ2Vjhy5vsxLB25jTqUYCGlp26jLUS3UeCXIpuk3vzFHR8lW3aEXLVs87PidSf+GtWtu8T+ubdmo9EuJ1r55RdIpKoHJOojp3LuNODak7HckXRK/Y8j5dfhEK1AnD7qZTdIly+nuYJlLTTLj0XR/FZocKfJpEVW8ssk1vLlzy7mt0CXYAi6e5q734FDUH3ETVQ1Fe/mQwUYCKyhA3UdMNKMFEgUvec/XoptcyfrTydJgokMmmt5CJYqIyxt306rDpeXVzDG56KEzfAkUtbdqdgaIaSzdR8eOib7/8Y1p+UY/WQjleYx7UtuzWio29+uWHGjWWYcVffIo6KHrkFzXa/3SlRp9Ke9LuBMJP1+hr1n8slrMws8W5U8JUYljbLRkTsc9D+PH47lCGA8oXn6LmCSYqQ5ioDGGiMoSJyhAmKkOYqAxhojKEicqQ6RM1IC8nZnH2o5iZPlFReSnXzy8PKjMp6s/c82qlzkwedSc9apRpE4We9ieoqFGmV9TzspyKGmX6RPXl+clxAWLaRFkkQvJTZ/OzA14lvBnOmCiUCJtMVU6Z0D95BqXCjIlSlTIo6RX30KnXTEqBGRNlgS/1Ol5lm5/HTEqBjBJlcS4iT5eysWecqKHDsimZ4eOLipGME2WBmup+5x+xCdoYUBNnVszMKlEWIwMy4IyuEYQHLOeQWSfKitDYoJwtNWOfdaIsXkKyYO6vWrlgQ/J7zbjYmFOiLPQZaRiOyhumrEQJ9AfnnCgLfVIqhwblm5k+zK+QySpRbsT65cpEGOo6hhnaHtESZyorIqX5kigLFVkQD8sfOVeTWJ8QHeiExwILFd8S5UbyoNTDtz5wdlCiIxFJOveoeCy40PA9UenxRlRW24ClKE4fwIJGByyNyjG8twFAvQcGDS7zlyiv0E9KmdVihYaqVKR+AoPBYDAYDMbsAoVEuR6QOkLG8eM5FJjJkPx2LCp9sTBK+QFJJPsJASE5i67dH0NYs3sWBf7pZvCy05HmxS0kRTIqQ3asYNYPN6GgiBcUFPEVCor4CgVFfIWCIr5CQRFfoaCIr1BQxFcoqGw5Ihq3O4HsgnF7xrfdY2aXy9n7IGJXpKW/Rtv9fKw2BZUliWOip8Dv3H6xvqmpQ9c0b9dVG7p1eXu3NmzqCBTLNnXqm1p6dMWG7bq68UZ9+GuNqi9BUGi/12+bCxRUtoRFz2CF7N+/RRc17dDF7Tt1SeN2XdLcpYtbOgOHjRZZv6lLK1b06MMPblR9Eb/Bx8vbKahs6Rcd+jUEted9Wv3m27SudbfWtu3U2uY9WtfUEyyauyH4Tq1u69GyFbv10T9vcQR1lru8AIGayR64sm/fFc5DV+rMAZwHr0w9Zmw+sfG2bXDfyhW3OAP86m8gAgoqQEwhKNu9eA2Snn9SgrqAggomBehQNqo2HSqoUFDjoKCyZQpB2YrzejhBvuEuL+iMCWqzI6ha4LdDLfX4bK7QoYIOfvu5I6K9t75NKxt36xJ7VnIzaO3RJXCEbFmKeZW336yLMa1r3w7R3qgrWrt06cYOCHfqx91NBQUVcGxwkBimT3x/qX7nkTX6va+v1b/5xhr9G0y/9yje+8C3v71ev/Rgs7Zvvk4rmrFLbUUvstF2qTsn7dJmYmyXt4qCCia2Muz3g4QdccYuMGaj0GDq/M0PMN8jv6rRt2/+iFa03wanukmXruvVpS3eLjQdY4KiQ5U2g8/UOI9uq8Yu1Z5KVtu6c9oHbk3FqKA6zgvqBQqqJHEE9Z6rtQq1lPOYu1bb5c2+J8ldHnFwHaoq5VB1WTkUd3klj5+Csgeec5dX4vi+y+OBzdKGuzziK34KqmYTd3klj9cuz8ThfYnKdHCXRwB3ecQ/+kUHIKjNm6/Tmg09Wt1+jS5uMUFBIK12KiZzljR26LKLu7R6Za9+86H20Tt1fFx/FFQBYE+2Cj1dqTddc7lecvl1unHLB/WSzTfoRVvs9fWz4qLN1+umK67TSzGfv/j6StWTokMUVImB/GJFOef1bGrPExi7U8XOGWYKvp84hKmtr6OYj31m8/Fx9HgKqhBIr3FSr+MmMghiVuB/nef49aXNyx52kT7/LKGgiK9QUMRXKCjiKxQU8RUKivgKBUV8hYIivkJBEV+hoIivZCeoAQgqJBr38dA9KWzmLCgdlOZERP4pGZaEHdb3mjkpPeYuqKhU4x/vhKBGuMsjLtkJKiSfcQRFhyIp5iwoCz0ma+Mh+ZdxZ8NJSZOdoA7JCrjUP9KhiEtWgrKAO70DM3jecSkbTN3qKbvGBjN3rr2ZsEBS3GQtKAvMoBe11CnHqSAmG97G6fm5VxWSksEXQeGfF2DX9/uY2RlXRI47sfdXcvgiKAs41Kp4RL6bPCjJBHZ9wyYou/bZY6GkePFNUBYQ0LqRiPyT3UnhiInFesnhq6DcGInKfgjrtNcCSXEzL4KyGOmXd2E3+EtnIdj9JVOP0nJ6gOz9FS3zJiiLZJ80J47IN7EAZ/fnTD0aQYqHeRWURfLnUhMPySeHw/K661Bxq61YXxUl8y4oN/QZaYhF5VPDA/KaHQS1UXITow1wGzLaKAqtoMmZoNx48aDUD0NYqK/O2iAQJiDsFnXEaivbJXK3WNDkXFBuoEhflgzJ/nhEvpcIScwp1iGsGAv2giZvgkqPoZC0QlwPoSHPO8evPBpKCoNACCo90DO8bCgsfxgbkKcTYTnj1FTYDbqHHuwcoZ0rtCd5m5sN2QnpCT+K5I/ACSo90KhyNPJt2CXejUb+A8R0CIX86AV9hrmZO5IICQSBFtTEQCMXwKVqzkXkqrMD0onpdxIRCeEHhEEUJJ2xjibCuixnFJSgZgo41pJkv6wdR0TWQ1A3YfdpNdojDgMp0l8Tf4giz4Nyre1dUquFwWAwGAwGg8FgMBgMBoPBYDAKPPS4LNIDUkfIGNBESh6ZR7JfWpJh+VQsLF8FD+I1IV9NhuSPk32yMiWTmUMHpSGBf7bLQxJRSWAGCYiLlDjOBZAReTZ5WDalpDJzaFRWx8PyIz0mzjPanDPI7qUipHSxJ1dF5TkwOzHBmX7oXO7B67qJC/QAZ5q9mLB/pJjIeCgm4hsUE/ENion4BsVEfINiIr5BMRHfoJiIb1BMxDcoJuIbFBPxDYqJ+AbFRHyDYiK+QTER36CYiG9QTMQ3KKYsGBCN2+8PiyZ+janlwwYaM2zYxCBibbPLre012p8Moe1+DY5GMWWBXUBvg+pjZQwcEH21X/QM8vEqOHsIrwOEtecltPU1tPs02v0K3juCen70d3j+vtlCMWUBtuzYKdEnf1Sma1pv1Dc3derqxh26quk2bbhopzZs6ggOaM/qjb16wQa0a+1WvWHbe/XFgTK1p3fRmYKAbdHYvT37r2UqS/dqJcS0sPFmrVl/u9Y2doOeQFHTvFurmjtUVu/VKz/6YX3tZLmz/pLuHUbZQjFlgf32E6KH/l20auWtWr9xmy5uuVmXNu7BtAN0BoqGpm6tb+3UynU9+qGrP6rnjkNMtkFwNxcAsBISKGaffUJ04coerW//GFbWDVrXtEeXtGwF2wJFQ9NWrYOoKjZ06Eeu/ZCeHSy3+9w0PvF3zRWKKQtsi35B9OAT5Vq15H/oosa9Wte2TRe19UJQPQEDAm/bobWtvSpruvWqq1NiwjocthsovX7fbKGYsuS4aOhnC3TBm/ZqbcsurWvtgAvs0CWtu4JHS5fWtG7X8nV79Kprr9JzR0drJuduXK/fNlsopiyBmPpNTKt7dZEjpp1YacBrZeYbtK+mdYcuQM00Jib8hiTFFBCmEJPVJkFjTEzrIabrKKbgMYWY6rHyggadKehwN3ceiilLKKbzUExZkiamuubCEFPF+vG9OYopKNCZzkMxZQkL8PNQTFkyhZi8uub5ZkxMPDQQULibOw/FlCUQU+inC1RSYqp1xNThvTJ9ZKnHZzNCMQUciOm5fy/T6pW7IaTduhpiWtT2X7BbgUt57Gpmy6K2DtQ7u3R5k53z26lLG7tBp1ZCHLMWVEpM7M0FEfvtENMv/1205oLdWt2yGyt6m1a3fWLUnSCGbFmElV8NgTZADFVtN2ld0zZd2d6tNRu3QiBdkwUzHXSm4ILEOVdaPvmzhbp0RbdWrN0HQX1cpQW7vA27/GHdHl325r26bF2vVm3s0dr2bbpk/V7sUrt1cWsn2JUxFFOAQdKcyzdO95frd768Rv/q62v1bx+9UL/7rfX6vUfX+MJff2Ot/tV3L9Se/e/W8gs74FJwrMYurWsevdAtU2rBmJjYmwsgWAnO3SlHMbXbh7DLG8uH5cYPbL7Dog/cs1albqfWt3U7u7yGNtvNTdiNzQSdKcC4K8FyAGy3lwBD9t7u+PADm9cp0XvubHFuWqi+GA6zbq82NM2yXjIopoBj7mRTW/F4nXBfp38nGyy/p0XvvqtVZRmK/PYduripG+KYewE+8UpLiqlUsPy+LHrXZ0xMe7S+GfUShFHXut1bMNORElMZxVSiTBRTS5fWQxjZiIm7uVIlXUwrehxncsXk1WubCvbmyHgxLR8vJq9jSdNBZyp10sXE3RzJinkQUxnFVKLMg5h4aKBUmQcxcTdXqqSLKYvenDEmJvbmSpR0MU3ozdl1Tl7Xek8FnanUSRcTd3MkKygm4hvzICZetluq0JmIb6SLiQU4yYp0MfHQAMmKdDFxN0ey5rQrJteZ7AK5uYmpmmIqYWxE31Oi936mXSsW92p128e1pmWnLmvdCkHthrAyw75rd7UsbtmhtY179ZprP6pDJyCmg5g/xVQaOK4xBGe6d6PKwt/RsrbbtLL9Nq1pQ83UvFtr4VSZUAdqNkKM7XtV1uzR9330/fr6i2WOADgOeAmReEn0oQdW6cUbP6IXbfmwXnT5DfrWLdfqxi3Xz4pN77xe37L5Om277Hrt2XuZngqNiinm1zqkmAKO3ZcHdzr9fJmG/q1ew89XaeiXNRp9CvyqKnOeAvjfyHNV2vcfdXrsQNXoXTR9gI+7KB2wgs7fSmUr3t6bCFKfZQS+G7fHgtn/433SHg/mPoDHr1uzKKZgYzWT8wgvVxSpz5zXJoxZ4MzHsAcW2rrDNIn3IxRTieAKx/Kceh03YWBqopoNcVtfNk9zJHttIsN7+9u4Zc4Vion4BsVEfINiIr5BMRHfoJiIb1BMxDcoJuIbFBPxDYqJ+AbFRHyDYiK+QTER36CYiG9QTMQ3KCbiGxQT8Q2KifgGxUR8IysxHcM/h4HXjEnpka2Y7ClGvl1DTAqbuYgJQloFvu84k+3mKCZizMmZVMohptvjA3KaQiJjzEVMFhDTpYkBOeTbDXyk8JmzmELyFgiKYiLnoZiIb2Qhpkvwj302A88Zk9JjzmLqk+ZE6vCA54xJ6TFXMVngH3dBUKfYoyMOWYkpJB9F3fQbiok4ZCWmsFwDXqKYiENWYuqXd+Efn2GPjjhkIyZVqUgOyKcTIRlyBIWZOWP+REQTmDnP2ZUYWYnpSamMh+UTqJ3Ojs3QxmB0X1NMpUU2YrKAIzVhBj9wRyGzUc2cEcrsfeozUiJkLaaoVOOf/2c8IsPmRJiZJmzwTYqp9MhWTBb2z4mwPKWuiDC165x4FWaJ4YuY+mQNenbf15OYYWpIYWegcvbySgs/xGSB3dzN8T45aTN83dzJTrNwN1da+CUmONNaCOrvncMB5kjWq+NurrTwS0wWEFPXUERecQ4JpB7T4LlQUpz4KSbUTivPRuVLiUMSd1yJYiot/BSTRXJQms8OyI+dXR13c6WF32JSlUoU3r87EpGX2JsrMfwWkwVmXB0PySeTYTljuzrnoS9uHYWFOu8nNoQUPvMhJgv07t6dCMlzzkJch7JDBXgNkU1uCCl85ktM+kkpSx6VjnhUjngumBQf8yUmC31KlsYi8rCewILMjQw75cJaqjiZTzFZjITlvaiffuYcEUfNZE9yHHvuGSku5ltMFljA+xJRecwpwiOsmYqWXIjJwgQ1HJXHnUd7mkNBWFjoaCPc41E8yFnY5EpMFrGoXDkUkcf1+KiQkrZwu1zFraFYSxU2uRSTBQT1fvCYIxxzJDQgBkeK2a6PR8wLm1yLySLZL++PR+Tn5/pl2L26wOqomPX0vBpJCoN8iMnCOag5IHfGwxKxRli9NGRTr0aSwiBfYlKVBfpjqRgekE6IKOSMQsdeXmGTLzGlR3JAOtCIHyQPyzn26AqYIIjJAo1Yr2G5A9NTsZDEnSPl5lbWSDhW0mqrVH3lvHddjOILDkERk0WyTxbH+2TnSFS+FY/KsbEeHwRjhxHsvR2fioMYXg/jszgPJwSHIInJArVUmR6SFWjU9Ymw/F0sKscdl+oH5kauE0FkJiTegh4ggiam9HBuoQrLxxP98hdo4A8gnHOJiCTGHMt2eyzag0OQxeQGxNOgB2XDSFj++5lB+f7ZqLw0HJHXnJPHJqzULtDzB5LcUQhicqOvT6ogmqYzUfnY0KBzafB/oPFRuFcY05POpS4mrIl4/XDiP8h1wYhpYgyH5JKRkFyOxl+G3t52/JDvg5+Dxw27UgGF/JPO8D5RSY4RIfOBI6aoHACFJ6aJkTwsF9rNoGMcwXsIzo60o5j/Bn7wIw4DKdJfk+yJOjm+E3uKValVUnyRPCm1dtiBzD/6gtSl0s5gMBgMBoPBYDAYDAaDwWAwGAwGg8FgMBgMBoPBYDAYDAZjdpF8RlYlI/LWZFiuwPSdmG4mhJAxRn3hCnBpsk9Wpqxj/sIu9rdbv2303XhYnoqFJRKPyiBeD8RDMpAAyX5CSMkTkqOY9oEf4PV/A616QBamrMTfgAOuwgJuSETkH2JROaW/lvPDBtjNuIQQ4mIDIEUklozKIby/w27FVJ0nc4IJrcbCbo5H5IeolE6P3bhtQ0/YMBTuTcaEEHLUuT98CDwH3/hkTswJFdQPMX15zJzMmGhOhJB0RgevGIJX0JwIIQGC5kQICSQ0J0JIIKE5EUICCc2JEBJIaE6EkEBCcyKEBBKaEyEkkNCcCCGBhOZECAkkNCdCSCChORFCAgnNiRASSGhOhJBAQnMihAQSmhMhJJDQnEjgoBaIQXMiecPGj4cGRsKgD69DosNHRd94QTR2AsI0ceI7ycHR14nUNGnDt5IZSRiWL8vbcdE4sPzGUn93xulG3hOHkH98Lw4811O+sLbTnEhewDpP9o9uKMPHRE89s0C//5fL9K5Pteh9d27UL9zVpl+6uwk06xfubtPP37NJP/+5VtBMZqRF77m7Xe+1vOH9A/c06b13Nevdn27Rv37kTfr0T+r07JEFzjjdNoY/tkl7mID3esoXNCeSN8ycQOIl0dO/Fv2Pxyu0u/dyrbigW8vf3KMV63brwg2dWr52m5av6dLKNbdr1fp9WrOhR6s37CHT0bhHa1p7taqlRyuRQ1mzS2X5Ll3QsF3fd81/1i9+tUVPHS9XfRnrAQaVgDkZnuspX9CcSF6wLp1tDOhS2MYxDC0cfkL0lm6YUz02rDXbdHHLdm1o7dSGxu26fEO3rtzwO7qkca/WNnVqXdMuMh2N4MIOrV/TgZzt0iXtMPW1t2v1sv36kauv00cfvEiHjsGc0IW27rR175yp17rKFzQnkm8SJ0VfRbfuuV+I7r/tXVr9ptt0Ues2rdt0k9ZtxLT1Bq1tvklrGzthWB26tHWnLiHTsMPJ0fK23doAats7dNGm7Vq+fqeWr+zQD17zIf3aV9r0rJnTi6PrANsju3VYCM2JjOJWTjCnM+DAEwv0lj3v0aql/1Wr12Cjat6pi9t2aH0bjAkb3KKWfVrX3K31zZ1kWnY506UtWx2zqmtBN6+tS8vW7tLKlZ36EZjTo3/eqmcHYU6/gQEMip5FJTvsPuA2KNCcSN45ITqCDaP/sTLdt++dWrbqFq1BN66uuQvsRuW0Ewa1A1WTVU7oorR2kUxArupbO7TG2Nip5ev2aOWKfXrVtVfpI19p0nNHU906bHvOmVCaE82JpGEbxHGYE9Z//88WwJyu0AWre3VhUxcqJTt+ct6clrRYl6UTmEGRGTFzQje4BlXnwo07dcG6HpjTLY45PeyaEyonWw/O5QY0J5oTSWOW5uRUT9jwyMykm1OVa04raU6egQXSnMh4ZmlOtrHVwqDqyJS4+ZlkTuthTugyX3UdzWlSYIE0JzKeWZoTu3WzwKtyYrfOO7BAmhMZD81p/qA5ZR5YIM2JjGcKc6pu7NLaZppTVqSZU/XGjtTZugnmlDpbR3OiOZGJTGFOVaycsmdc5dShZVOZE9YDzYnmRCYyhTmxW+cD7NZlHlggzYmMZ5bmZBsbz9ZND8/WzSGwQJoTGc8szYnXOWWOZ+XE65y8AwukOZHxzNKc2K2bBV7mxG6dd2CBNCcynjRz6ntsgd4CcypbvRfmtAvm1KX1Td2oAuwG4O2omrZjo+uYvBHmmbFKZSpgEkvwW2w643f9ZII5lXmZEw+IjwYWSHMi40mZ0zlsHE//QnTfrZfpogu6tLKpU2tbd+uK5j26unmHLmvZpjVtO/GZ3fzbiY0uGFhbalDVVWzaqotgnEubd+nyZjPQ7WjrVq1phKE27tIVMNnlMItaGG0lvl+H37HUy1D8JM2ceCnBDIEF0pzIeWyd2wBnJ2FOx0SfeqJce/dertVL96is3o89fa9WY2OvarpBy5u3qrTs02obrWAdjMsBG3te6XTaUr2+S8s29OjCNT1au2aPLt7Qq7XtPVp9Ef7WfrPWwlgXN3ZqQ9NemEUPzGz0uFkuzYnduhkCC6Q5kTFsY7CB9c2cXo8u0F/8tFr/8Pcu1be99QZteuvN2nTZdm2/fIe2bb5RmzbfrGveuUvXbdmuG7bcBG4OBOvfdZO2vmOHvu3i3brl7dv1HZdt1eZ2VE4wq8rGPVp9MQzsom0wC9CILuqGvVrX1KN1MI6JZ9n8ZpI52dm6C2BOPFs3ObBAmhMZj633/tQUXYwYNPEGqqkRdPXMtJwB+LHhOFqxz2xq74MCNujkCdHXTqP6GxZ9/nCF3nN/k26+8v26YMU2LV8Lg2rerYvRJbUu35LmbVrfegNMYwcw8/DuLvqBZ+Vk5sTKaXJggTQnch7bGGA+0ILzFBbnM9vgJxoQ/m6D78fse/beDMu+EwTSzfN10WPPV+n9d23Qy6/4gEp9ty5svl1rN3Xr0o1bdSkqpwYDxjHvXTqD3brMAwukOZExIDZN2NQ2CqtAzHzstW3s9h17DY3E8DqG1/YcNucz+1uQcLX7iujRAzV6712t+rYtH1Zp6FJp69aKi7fqoo036lJ06ZZtMHOCUTlnHW3ESg9T8Ys0c+JgczMEFkhzIsWHq92XRQefqdG7PtOql7z7GpVl6NI1wSCaYULO9Vq7nLN1da3bdXEurtdKM6eaTR1asZ5n66YMLJDmRIqPacypyszJrnFq6tJ6GIZdUJoPc2LlNENggTQnUnx4mdN7rlZZ3qNVzpNQ0s2pwzEnMw0eEJ8BmhMhWTKVOa2Y2pzqYBpep//9ZJI58VKCqQMLpDmR4sPLnALWrePZuhkCC6Q5keKjAMyJx5xmCCyQ5kSKjwIwJztbV86zdVMHFkhzIsVHAZgTu3UzBBZIcyLFx1TmZGfrzJzGHRA/b07u8Cnzhac5cbA578ACaU6k+PAypzyereMwvXMILJDmRIoPL3Nity57aE6EZAnNaX6gORGSJQVgThwJc4bAAmlOpPgoAHOa9qGaNCeaEylSCsKc2K2bNrBAmhMpPrzMiWfrsofmREiWeJmTVU6eoxKMVk71MCmva5P8xLNy4nVO3oEF0pxI8TGVObFblx00J0KyZII5fRbmdOm7Rs2pGqZkXazFzehqwTDMnOrHzAmmNdFQ/CTNnCaerXvEzOlY2gFxGBPNieZEig3buG36umjk0CK953MbdfMVH9PyRbfrwvW3ayWMoeLiG7SqvVtr27p0adtWGJSZlQ3dOx/AEDGtb+0B3Vrf3qWL34Iu5oa9WrF8t151DczpoTY990KqcuobbT/NieZEigzbqGNHReOviT77TLV+6k+a9JKLP6Qi3Sq1t6KC6lVZidfLPgH2q6zA6xX7gL2+Zf5YhmU3GFhOA5ZXu0elpkPf84Er9fMPbNAXomWqL6L9aPtZ/I7hoG2DNCdCssS0GwYnRV/rL9Nf/HONfuuL6/TeP71YH7i/Te99YI1+7r5VevfnmvW+u9v0gXub9Qt3r9MvfG4tpvNAar73f2Gd3od23H//Or373ib97Gcv0ns/+zb9P99erc8+Xqlx2/6OAauYgrgN0pwIyQLbsO2Ze88De7T6IHAfCIqqxLp6iorKjkfpqdRnhr1/BZyeR2z+r6aw97b8l4At/wSw9lvb0a1zpmawE39fPqE5EZId1q1LwJScZ/DZZ2ZQqeM3CRhWMoXzfdO5vTYjmGfiMJ2EazruMq2d2O4S1r7UZ3amzumWuttjUKA5EZIltqGbls2U7L2ZgE3tfepzM60YPrenFsfNIOaTlFmOoMsWtweRWlsOpbDX9pm1y4zLjNPahs/MtJy/BwW0h+ZECAkeNCdCSCChORFCAgnNiRASSGhOhJBAQnMihAQSmhMhJJDQnAghgYTmRAgJJDQnQkggoTkRQgIJzYkQEkhoToSQQEJzIoQEEpoTISSQ0JwIIYGE5kQICSQ0J0JIIKE5EUICSd7M6QjMyZ5SERJNhEcHVw/cQ/0IIfkjD+a0Feb0Ix2QV5yB1u3pD6iabEB2mhMhZIxcmlPymCzHQq6COT0KIxpwKqc0c3Ifp0MIITk1JwsssEb75UqY0RfjAxLCQkesETQmQsg4cm1OyT6pQtV0ERb0KSzwIKqokbHnfRFCiEvOK6eoVCdD8hYs7E4Y06Exc+LZOkJIOnk3pxDNiRDiQV66df1ysYblDhjTM07lZGfteMyJEJJOzisnkQXJI1IDk3ofFviZeEgOJCJyzqmeaFCEEJdcm5MbMKeVqJquRfX0D5i+6DSG5kQIccmXOekhWQFTugYL/XsY1IvOMSeaEyHEJW+V0/OyPNkvH4ZB/W8s+IQeQ2N4SQEhxCVf5mShx2UFKqabsNBvYOHHEiGJOdWTmRQa5mCNtKoqPDrFdzVh4Hu83YWQIiav5vSkVKJyaoPJ/AF4Gt278wfG3amZkkt6w3kAnZDiJq/m9NdS7hx76pfrE/3yMMzpiFshOY2zaQgNtJELrGpyzcj9OyGkeMmnObmRPCDLsPAPwXwewTQ61q2zBsKszJjiMKb40ZRBway0f/Rvk34QIaQ4CII5Wdi1TzCbD8CI7o9HpC8xIEOOSZkRmQnBlJLHAD5DV3D0M1ZQhBQvQTEnp4t3XNYl++RWdOP+FRXS684ZPDMnw4wIjbUD4THr4nn9GEJI8RAYc1JZoAekbuSw/CdURp9LROVAIixxPYw/oUoyMxoGIzAnjv1ESAkQFHNyI3lQ6kf65d2JkNwXD8nzTvfNunNoaMyMyUzJcLt7Xj+KEFL4BM2cLNCAspGwXDE0IH98Niq/Gg7LGceQDDMkOxjO402EFDdBNCcLq6CS1sVDBXUuKs+AmGNMLta1M7x+FCGk8AmqOVlYBXXmoLz5TFg+PhSWh4b7ZTAehklZw62KmvhjCCHFQ5DNyQ0bwSAWlmsSEflOPCLH9QQabubErh0hxUshmJNFagyoLSNR+cORiPwg0S+vsXoipIgpFHNyIxmWVaiYbsL0bxNhecE99uRcnGlXkLujaqZfRY739nfnTJ9XEgghwaPQzMkiGZILYFA3o5v3tXhUDidsHHL8EMeoUgaEHzO+22evzajc94SQYFOI5uQGzKgpOSC9w0flX2IDcspuEB4zKTMiMyQzK6um7HNWToQUDgVtTvYkl8OyKd4nfxAfkB/DpM46NwabMVmXzswq9SNpUIQUGIVsTm6gUmqwByYkDsufxsLy2EhUXh0zIpiU3ShsIxvwmBMhBUQxmJMbdm+eY1JRuSMWlcfAa85lB9bNsyqqD6QfhyKEBJdiMic3ki9KPbpxV56LyKfPROSxM2E551ZSMUxHYFZ2n14cCcAPHk0ETAsJGB3UzgzMqiz7HzM29zuEkNxRjObkhnX38COvhBHdCYP6OXhj7CC5/XgzHrv84NjoQHZxvLfxyccMy77nfpcQkluK2Zzc0LAsQRfv/Ymw/GkyJD+Ph9Hds7GiYDzuwHVmSAa+M4pVUDQnQvJHKZiTG87NxCH5bZjRHTCg/zcSkWdjkdQDPY2UUVl1ZWNGnTuOLqB17dITRgjJDaVkTm7gh1ejKmpE1bQ5PiB7hqLybVRTUceYLCkwJruiHNWW080blzBCSG4oRXNKD/zY8nOD0gx2nzsm3xg+IqFYWE4n+uScY1bs1hGSH0rdnNx40p6h1ydrwAdRRfWg23dXol9+iurqZT2JRNnBc5iVHaOyqso5ZoVun93LZ9dPIXmjXUJ3hM6psL+nY5/Z/3qtHEJKGZqTd8B4FsGI3pvslz+CUf3duaj84twROYnKyhI22XQMfO48gAGmA4M7f0lCCvs/wzEzzMfMzTE+u3rd5kkIOQ/NafqwZDgV1SG5FAnaigrqs4lB+ctEVP4NldXL1v1zHqNu1ZQZjuHeKmPHrmBE9sw9O35lUzvQblN7UMMQOJf6m+fKIaSUoTllHiqywDnj1ycrkajL4v2yKx6R/wWj+gYM5mlUS8dhVC+i2jqFqmvY6fqZUZlxpSc9VWk5XUR7zW4dIZOhOc099MdS4WCPVO+TLbE++SCSeB2S2I3pfTCrn6AyOnhmQF6JnUCirRtnFRWqJSf57nEqmhMhk6E5zU8kT0rt0DFpGxmU94JbY4Py8Nmo/OPrA/KTNwblibMDcvJcRBIjYYmj+ooj+ekknJXjmhghpQjNaf4DCS179ZgsT56QlWf6ZM3wEXnLcEh2xMLyJ+gSfh6J/yK6dw8Ae/0g+C44CF7GCnnNITKZhDH699cxjaUf63Km6dhnhBQSdjY8IjFwEGZ1B80pR2HdQRsX3c4KnvyV1NrU4YDUYUWsxop4P8xqJ9gD9qam40H3EVVXL/h9GNWj4JcgCo7DrI664HuEFCInYExh8CPo/XdBG7YPmlO+A3uIBZli33cO0g/I28G7sRLfq2H5LUIKGdOx6RlV1Dtsh+1sGAwGg8FgMBgMBoPBYDAYDEbeQuT/AwQZT+MFUY9BAAAAAElFTkSuQmCC;" parent="1" vertex="1">
          <mxGeometry x="68" y="-533" width="99.66" height="100" as="geometry" />
        </mxCell>
        <mxCell id="PXDprKuroL_W5jF87tts-4" value="BANCO DEL PICHINCHA" style="text;html=1;strokeColor=none;fillColor=none;align=left;verticalAlign=middle;whiteSpace=wrap;rounded=0;fontSize=35;fontStyle=1" parent="1" vertex="1">
          <mxGeometry x="184" y="-519" width="446" height="30" as="geometry" />
        </mxCell>
        <mxCell id="PXDprKuroL_W5jF87tts-5" value="GUIA DE COMPONENTES Y TIPOGRAFIA" style="text;html=1;strokeColor=none;fillColor=none;align=left;verticalAlign=middle;whiteSpace=wrap;rounded=0;fontSize=19;fontStyle=0;fontFamily=Lucida Console;" parent="1" vertex="1">
          <mxGeometry x="184" y="-482" width="455" height="30" as="geometry" />
        </mxCell>
        <mxCell id="PXDprKuroL_W5jF87tts-6" value="META" style="text;html=1;strokeColor=none;fillColor=none;align=center;verticalAlign=middle;whiteSpace=wrap;rounded=0;fontSize=26;labelBackgroundColor=default;fontFamily=cONSOLAS;" parent="1" vertex="1">
          <mxGeometry x="885" y="-552" width="143" height="30" as="geometry" />
        </mxCell>
        <mxCell id="PXDprKuroL_W5jF87tts-7" value="&lt;b style=&quot;font-size: 15px;&quot;&gt;Doc Version:&lt;/b&gt; 1.0" style="text;html=1;strokeColor=none;fillColor=none;align=left;verticalAlign=middle;whiteSpace=wrap;rounded=0;fontSize=15;fontFamily=cONSOLAS;" parent="1" vertex="1">
          <mxGeometry x="689" y="-515" width="171" height="30" as="geometry" />
        </mxCell>
        <mxCell id="PXDprKuroL_W5jF87tts-8" value="&lt;b&gt;Aplicación&lt;/b&gt;&lt;b style=&quot;font-size: 15px;&quot;&gt;:&lt;/b&gt;&amp;nbsp;&amp;lt;&amp;lt;AppName&amp;gt;&amp;gt;" style="text;html=1;strokeColor=none;fillColor=none;align=left;verticalAlign=middle;whiteSpace=wrap;rounded=0;fontSize=15;fontFamily=cONSOLAS;" parent="1" vertex="1">
          <mxGeometry x="689" y="-485" width="237" height="30" as="geometry" />
        </mxCell>
        <mxCell id="PXDprKuroL_W5jF87tts-9" value="&lt;b&gt;Tribu&lt;/b&gt;&lt;b style=&quot;font-size: 15px;&quot;&gt;:&lt;/b&gt;&amp;nbsp;&amp;lt;&amp;lt;Tribu&amp;gt;&amp;gt;" style="text;html=1;strokeColor=none;fillColor=none;align=left;verticalAlign=middle;whiteSpace=wrap;rounded=0;fontSize=15;fontFamily=cONSOLAS;" parent="1" vertex="1">
          <mxGeometry x="689" y="-449" width="237" height="30" as="geometry" />
        </mxCell>
        <mxCell id="PXDprKuroL_W5jF87tts-10" value="&lt;b&gt;Célula&lt;/b&gt;&lt;b style=&quot;font-size: 15px;&quot;&gt;:&lt;/b&gt;&amp;nbsp;&amp;lt;&amp;lt;Célula&amp;gt;&amp;gt;" style="text;html=1;strokeColor=none;fillColor=none;align=left;verticalAlign=middle;whiteSpace=wrap;rounded=0;fontSize=15;fontFamily=cONSOLAS;" parent="1" vertex="1">
          <mxGeometry x="935" y="-515" width="237" height="30" as="geometry" />
        </mxCell>
        <mxCell id="PXDprKuroL_W5jF87tts-11" value="&lt;b&gt;Patrónes&amp;nbsp;de Arquitectura&lt;/b&gt;&lt;b style=&quot;font-size: 15px;&quot;&gt;:&lt;/b&gt;&amp;nbsp;&amp;lt;&amp;lt;Patrones&amp;gt;&amp;gt;" style="text;html=1;strokeColor=none;fillColor=none;align=left;verticalAlign=middle;whiteSpace=wrap;rounded=0;fontSize=15;fontFamily=cONSOLAS;" parent="1" vertex="1">
          <mxGeometry x="935" y="-479" width="311" height="30" as="geometry" />
        </mxCell>
        <mxCell id="PXDprKuroL_W5jF87tts-12" value="&lt;b style=&quot;font-size: 15px;&quot;&gt;Fecha:&lt;/b&gt;&amp;nbsp;&amp;lt;&amp;lt;DD/MM/YYYY&amp;gt;&amp;gt;" style="text;html=1;strokeColor=none;fillColor=none;align=left;verticalAlign=middle;whiteSpace=wrap;rounded=0;fontSize=15;fontFamily=cONSOLAS;" parent="1" vertex="1">
          <mxGeometry x="932" y="-449" width="237" height="30" as="geometry" />
        </mxCell>
        <mxCell id="PXDprKuroL_W5jF87tts-13" value="&lt;b&gt;Tipo&lt;/b&gt;&lt;b style=&quot;font-size: 15px;&quot;&gt;:&lt;/b&gt;&amp;nbsp;Clasificado" style="text;html=1;strokeColor=none;fillColor=none;align=left;verticalAlign=middle;whiteSpace=wrap;rounded=0;fontSize=15;fontFamily=cONSOLAS;" parent="1" vertex="1">
          <mxGeometry x="1115" y="-449" width="145.5" height="30" as="geometry" />
        </mxCell>
        <mxCell id="PXDprKuroL_W5jF87tts-15" value="" style="rounded=0;whiteSpace=wrap;html=1;fontFamily=cONSOLAS;" parent="1" vertex="1">
          <mxGeometry x="43" y="361" width="1267" height="195" as="geometry" />
        </mxCell>
        <mxCell id="PXDprKuroL_W5jF87tts-16" value="&lt;b&gt;Elaborado:&amp;nbsp;&lt;/b&gt;" style="text;html=1;strokeColor=none;fillColor=none;align=left;verticalAlign=middle;whiteSpace=wrap;rounded=0;fontSize=22;fontFamily=cONSOLAS;" parent="1" vertex="1">
          <mxGeometry x="86" y="390" width="390" height="30" as="geometry" />
        </mxCell>
        <mxCell id="PXDprKuroL_W5jF87tts-18" value="&lt;b&gt;Aprobado:&amp;nbsp;&lt;/b&gt;" style="text;html=1;strokeColor=none;fillColor=none;align=left;verticalAlign=middle;whiteSpace=wrap;rounded=0;fontSize=22;fontFamily=cONSOLAS;" parent="1" vertex="1">
          <mxGeometry x="689" y="390" width="390" height="30" as="geometry" />
        </mxCell>
        <mxCell id="PXDprKuroL_W5jF87tts-20" value="Luis Ulloa &lt;br&gt;&lt;b&gt;Líder de Arquitectura de Soluciones&lt;br&gt;&lt;/b&gt;lmulloa@pichincha.com" style="text;html=1;strokeColor=none;fillColor=none;align=center;verticalAlign=middle;whiteSpace=wrap;rounded=0;fontSize=24;fontFamily=cONSOLAS;" parent="1" vertex="1">
          <mxGeometry x="81" y="443" width="444" height="69" as="geometry" />
        </mxCell>
        <mxCell id="PXDprKuroL_W5jF87tts-21" value="Mauricio Auqui&lt;br&gt;&lt;b&gt;Gerente de Arquitectura de Aplicaciones&lt;br&gt;&lt;/b&gt;mauqui@pichincha.com" style="text;html=1;strokeColor=none;fillColor=none;align=center;verticalAlign=middle;whiteSpace=wrap;rounded=0;fontSize=24;fontFamily=cONSOLAS;" parent="1" vertex="1">
          <mxGeometry x="718" y="447" width="499" height="69" as="geometry" />
        </mxCell>
        <mxCell id="PXDprKuroL_W5jF87tts-22" value="&lt;b style=&quot;font-size: 15px;&quot;&gt;Fecha:&lt;/b&gt;&amp;nbsp;31/01/2024" style="text;html=1;strokeColor=none;fillColor=none;align=left;verticalAlign=middle;whiteSpace=wrap;rounded=0;fontSize=15;fontFamily=cONSOLAS;" parent="1" vertex="1">
          <mxGeometry x="182" y="-449" width="237" height="30" as="geometry" />
        </mxCell>
      </root>
    </mxGraphModel>
  </diagram>
  <diagram id="NlhSZeO5dRFIRj0-yeB_" name="Arq_Sol_Actual">
    <mxGraphModel dx="1726" dy="392" grid="0" gridSize="10" guides="1" tooltips="1" connect="1" arrows="1" fold="1" page="1" pageScale="1" pageWidth="400" pageHeight="200" math="0" shadow="0">
      <root>
        <mxCell id="0" />
        <mxCell id="1" parent="0" />
        <mxCell id="uwHGnu1WHlyNOCF_fj2t-1" value="" style="rounded=0;whiteSpace=wrap;html=1;flipH=0;" vertex="1" parent="1">
          <mxGeometry x="-256" y="954" width="1189" height="388" as="geometry" />
        </mxCell>
        <mxCell id="uwHGnu1WHlyNOCF_fj2t-2" value="Datapower externo&lt;br&gt;&amp;lt;IBM API Gateway&amp;gt;&lt;br&gt;serviciosexternos.pichincha.com&lt;br&gt;IP: 10.151.152.109" style="html=1;outlineConnect=0;whiteSpace=wrap;fillColor=#99FFFF;shape=mxgraph.archimate3.application;appType=comp;archiType=square;fontFamily=Consolas;fontSource=https%3A%2F%2Ffonts.googleapis.com%2Fcss%3Ffamily%3DConsolas;strokeColor=#C7C777;" vertex="1" parent="1">
          <mxGeometry x="301" y="983.71" width="227" height="62.49" as="geometry" />
        </mxCell>
        <mxCell id="uwHGnu1WHlyNOCF_fj2t-3" value="" style="group" vertex="1" connectable="0" parent="1">
          <mxGeometry x="-259" y="798.5" width="1191" height="121" as="geometry" />
        </mxCell>
        <mxCell id="uwHGnu1WHlyNOCF_fj2t-4" value="" style="rounded=0;whiteSpace=wrap;html=1;flipH=0;" vertex="1" parent="uwHGnu1WHlyNOCF_fj2t-3">
          <mxGeometry width="1191" height="121" as="geometry" />
        </mxCell>
        <mxCell id="uwHGnu1WHlyNOCF_fj2t-5" value="Aplicaciones" style="text;html=1;strokeColor=none;fillColor=#e1d5e7;align=left;verticalAlign=middle;whiteSpace=wrap;rounded=0;flipH=0;spacingLeft=5;" vertex="1" parent="uwHGnu1WHlyNOCF_fj2t-3">
          <mxGeometry x="4.394833948339484" y="4" width="93.39022140221402" height="30" as="geometry" />
        </mxCell>
        <mxCell id="uwHGnu1WHlyNOCF_fj2t-6" value="" style="group" vertex="1" connectable="0" parent="1">
          <mxGeometry x="-255" y="1526" width="1425" height="121" as="geometry" />
        </mxCell>
        <mxCell id="uwHGnu1WHlyNOCF_fj2t-7" value="" style="rounded=0;whiteSpace=wrap;html=1;flipH=0;" vertex="1" parent="uwHGnu1WHlyNOCF_fj2t-6">
          <mxGeometry width="1425" height="121" as="geometry" />
        </mxCell>
        <mxCell id="uwHGnu1WHlyNOCF_fj2t-8" value="Infraestructura" style="text;html=1;strokeColor=none;fillColor=#e1d5e7;align=left;verticalAlign=middle;whiteSpace=wrap;rounded=0;flipH=0;spacingLeft=5;" vertex="1" parent="uwHGnu1WHlyNOCF_fj2t-6">
          <mxGeometry x="4.308390022675737" y="4" width="106.63265306122449" height="30" as="geometry" />
        </mxCell>
        <mxCell id="uwHGnu1WHlyNOCF_fj2t-9" value="ECUDBBANCS005&lt;br&gt;&amp;lt;IBM AIX 3.5, Oracle 12&amp;gt;&lt;br&gt;IP: 10.11.51.150" style="html=1;outlineConnect=0;whiteSpace=wrap;fillColor=#99FFFF;shape=mxgraph.archimate3.application;appType=node;archiType=square;fontFamily=Consolas;fontSource=https%3A%2F%2Ffonts.googleapis.com%2Fcss%3Ffamily%3DConsolas;strokeColor=#6c8ebf;" vertex="1" parent="uwHGnu1WHlyNOCF_fj2t-6">
          <mxGeometry x="1217.1201814058957" y="34" width="193.87755102040816" height="60" as="geometry" />
        </mxCell>
        <mxCell id="uwHGnu1WHlyNOCF_fj2t-10" value="Openshift&lt;br&gt;&amp;lt;Redhat Openshift v3&amp;gt;&lt;br&gt;IP: 100.50.30.21" style="html=1;outlineConnect=0;whiteSpace=wrap;fillColor=#99FFFF;shape=mxgraph.archimate3.application;appType=node;archiType=square;fontFamily=Consolas;fontSource=https%3A%2F%2Ffonts.googleapis.com%2Fcss%3Ffamily%3DConsolas;strokeColor=#6c8ebf;" vertex="1" parent="uwHGnu1WHlyNOCF_fj2t-6">
          <mxGeometry x="713.0002494331065" y="34" width="193.87755102040816" height="60" as="geometry" />
        </mxCell>
        <mxCell id="uwHGnu1WHlyNOCF_fj2t-11" value="Facephi Platform&lt;br&gt;&amp;lt;FPhi.API V1.4.3&amp;gt;&lt;br&gt;IP: 100.50.30.21" style="html=1;outlineConnect=0;whiteSpace=wrap;fillColor=#99FFFF;shape=mxgraph.archimate3.application;appType=node;archiType=square;fontFamily=Consolas;fontSource=https%3A%2F%2Ffonts.googleapis.com%2Fcss%3Ffamily%3DConsolas;strokeColor=#6c8ebf;" vertex="1" parent="uwHGnu1WHlyNOCF_fj2t-6">
          <mxGeometry x="132.48299319727892" y="30.5" width="193.87755102040816" height="60" as="geometry" />
        </mxCell>
        <mxCell id="uwHGnu1WHlyNOCF_fj2t-12" value="APIGEE&lt;br&gt;&amp;lt;Apigee Edge 4.52.00&amp;gt;&lt;br&gt;Host:&amp;nbsp;api.pichincha.com&lt;br&gt;IP: 35.237.67.121" style="html=1;outlineConnect=0;whiteSpace=wrap;fillColor=#99FFFF;shape=mxgraph.archimate3.application;appType=node;archiType=square;fontFamily=Consolas;fontSource=https%3A%2F%2Ffonts.googleapis.com%2Fcss%3Ffamily%3DConsolas;strokeColor=#6c8ebf;" vertex="1" parent="uwHGnu1WHlyNOCF_fj2t-6">
          <mxGeometry x="381.0029931972789" y="30.5" width="193.87755102040816" height="60" as="geometry" />
        </mxCell>
        <mxCell id="uwHGnu1WHlyNOCF_fj2t-13" value="" style="group" vertex="1" connectable="0" parent="1">
          <mxGeometry x="-253" y="1381" width="1189" height="121" as="geometry" />
        </mxCell>
        <mxCell id="uwHGnu1WHlyNOCF_fj2t-14" value="" style="rounded=0;whiteSpace=wrap;html=1;flipH=0;" vertex="1" parent="uwHGnu1WHlyNOCF_fj2t-13">
          <mxGeometry width="1189" height="121" as="geometry" />
        </mxCell>
        <mxCell id="uwHGnu1WHlyNOCF_fj2t-15" value="Cores Banco" style="text;html=1;strokeColor=none;fillColor=#e1d5e7;align=left;verticalAlign=middle;whiteSpace=wrap;rounded=0;flipH=0;spacingLeft=5;" vertex="1" parent="uwHGnu1WHlyNOCF_fj2t-13">
          <mxGeometry x="4.387453874538745" y="4" width="108.58948339483395" height="30" as="geometry" />
        </mxCell>
        <mxCell id="uwHGnu1WHlyNOCF_fj2t-16" value="Bancs&lt;br&gt;&amp;lt;Cobol CICS + Oracle 12&amp;gt;&lt;br&gt;IP: 10.0.21.2" style="html=1;outlineConnect=0;whiteSpace=wrap;fillColor=#99FFFF;shape=mxgraph.archimate3.application;appType=comp;archiType=square;fontFamily=Consolas;fontSource=https%3A%2F%2Ffonts.googleapis.com%2Fcss%3Ffamily%3DConsolas;strokeColor=#C7C777;" vertex="1" parent="uwHGnu1WHlyNOCF_fj2t-13">
          <mxGeometry x="559.40036900369" y="40" width="197.43542435424354" height="60" as="geometry" />
        </mxCell>
        <mxCell id="uwHGnu1WHlyNOCF_fj2t-17" value="" style="rounded=0;whiteSpace=wrap;html=1;flipH=0;" vertex="1" parent="1">
          <mxGeometry x="-257" y="526.5" width="1189" height="121" as="geometry" />
        </mxCell>
        <mxCell id="uwHGnu1WHlyNOCF_fj2t-18" value="Usuarios internos / externos" style="text;html=1;strokeColor=none;fillColor=#e1d5e7;align=left;verticalAlign=middle;whiteSpace=wrap;rounded=0;flipH=0;spacingLeft=5;" vertex="1" parent="1">
          <mxGeometry x="-248" y="530.5" width="161" height="30" as="geometry" />
        </mxCell>
        <mxCell id="uwHGnu1WHlyNOCF_fj2t-19" value="" style="rounded=0;whiteSpace=wrap;html=1;flipH=0;" vertex="1" parent="1">
          <mxGeometry x="-258" y="661.5" width="1190" height="121" as="geometry" />
        </mxCell>
        <mxCell id="uwHGnu1WHlyNOCF_fj2t-20" value="Procesos / Actividades" style="text;html=1;strokeColor=none;fillColor=#e1d5e7;align=left;verticalAlign=middle;whiteSpace=wrap;rounded=0;flipH=0;spacingLeft=5;" vertex="1" parent="1">
          <mxGeometry x="-253" y="666" width="143" height="30" as="geometry" />
        </mxCell>
        <mxCell id="uwHGnu1WHlyNOCF_fj2t-21" value="" style="rounded=0;whiteSpace=wrap;html=1;flipH=0;" vertex="1" parent="1">
          <mxGeometry x="948" y="526.5" width="222" height="975.5" as="geometry" />
        </mxCell>
        <mxCell id="uwHGnu1WHlyNOCF_fj2t-22" value="Datos / Almacenamiento" style="text;html=1;strokeColor=none;fillColor=#e1d5e7;align=left;verticalAlign=middle;whiteSpace=wrap;rounded=0;flipH=0;spacingLeft=5;" vertex="1" parent="1">
          <mxGeometry x="954" y="530.5" width="148" height="30" as="geometry" />
        </mxCell>
        <mxCell id="uwHGnu1WHlyNOCF_fj2t-23" value="" style="rounded=0;whiteSpace=wrap;html=1;flipH=0;" vertex="1" parent="1">
          <mxGeometry x="1187" y="525" width="222" height="1122" as="geometry" />
        </mxCell>
        <mxCell id="uwHGnu1WHlyNOCF_fj2t-24" value="Seguridad" style="text;html=1;strokeColor=none;fillColor=#e1d5e7;align=left;verticalAlign=middle;whiteSpace=wrap;rounded=0;flipH=0;spacingLeft=5;" vertex="1" parent="1">
          <mxGeometry x="1193" y="529" width="79" height="30" as="geometry" />
        </mxCell>
        <mxCell id="uwHGnu1WHlyNOCF_fj2t-25" style="edgeStyle=orthogonalEdgeStyle;rounded=0;orthogonalLoop=1;jettySize=auto;html=1;" edge="1" parent="1" source="uwHGnu1WHlyNOCF_fj2t-27" target="uwHGnu1WHlyNOCF_fj2t-31">
          <mxGeometry relative="1" as="geometry" />
        </mxCell>
        <mxCell id="uwHGnu1WHlyNOCF_fj2t-26" style="edgeStyle=orthogonalEdgeStyle;rounded=0;orthogonalLoop=1;jettySize=auto;html=1;" edge="1" parent="1" source="uwHGnu1WHlyNOCF_fj2t-27" target="uwHGnu1WHlyNOCF_fj2t-58">
          <mxGeometry relative="1" as="geometry">
            <Array as="points">
              <mxPoint x="659" y="589" />
            </Array>
          </mxGeometry>
        </mxCell>
        <mxCell id="uwHGnu1WHlyNOCF_fj2t-27" value="Cliente" style="sketch=0;pointerEvents=1;shadow=0;dashed=0;html=1;strokeColor=none;fillColor=#505050;labelPosition=center;verticalLabelPosition=bottom;verticalAlign=top;outlineConnect=0;align=center;shape=mxgraph.office.users.user;fontFamily=Consolas;fontSource=https%3A%2F%2Ffonts.googleapis.com%2Fcss%3Ffamily%3DConsolas;" vertex="1" parent="1">
          <mxGeometry x="367" y="568" width="32" height="32" as="geometry" />
        </mxCell>
        <mxCell id="uwHGnu1WHlyNOCF_fj2t-28" style="edgeStyle=orthogonalEdgeStyle;rounded=0;orthogonalLoop=1;jettySize=auto;html=1;" edge="1" parent="1" source="uwHGnu1WHlyNOCF_fj2t-29" target="uwHGnu1WHlyNOCF_fj2t-34">
          <mxGeometry relative="1" as="geometry">
            <Array as="points">
              <mxPoint x="152" y="836" />
            </Array>
          </mxGeometry>
        </mxCell>
        <mxCell id="uwHGnu1WHlyNOCF_fj2t-29" value="Autorizar al cliente por generación de clave digital en su celular" style="html=1;outlineConnect=0;whiteSpace=wrap;fillColor=#99FFFF;shape=mxgraph.archimate3.application;appType=proc;archiType=rounded;fontFamily=Consolas;fontSource=https%3A%2F%2Ffonts.googleapis.com%2Fcss%3Ffamily%3DConsolas;strokeColor=#6c8ebf;" vertex="1" parent="1">
          <mxGeometry x="65" y="706" width="150" height="60" as="geometry" />
        </mxCell>
        <mxCell id="uwHGnu1WHlyNOCF_fj2t-30" value="Validar si es cliente de banco&amp;nbsp;" style="html=1;outlineConnect=0;whiteSpace=wrap;fillColor=#99FFFF;shape=mxgraph.archimate3.application;appType=proc;archiType=rounded;fontFamily=Consolas;fontSource=https%3A%2F%2Ffonts.googleapis.com%2Fcss%3Ffamily%3DConsolas;strokeColor=#6c8ebf;" vertex="1" parent="1">
          <mxGeometry x="-119" y="706" width="150" height="60" as="geometry" />
        </mxCell>
        <mxCell id="uwHGnu1WHlyNOCF_fj2t-31" value="Autenticar al cliente con la validación biométrica por rostro" style="html=1;outlineConnect=0;whiteSpace=wrap;fillColor=#99FFFF;shape=mxgraph.archimate3.application;appType=proc;archiType=rounded;fontFamily=Consolas;fontSource=https%3A%2F%2Ffonts.googleapis.com%2Fcss%3Ffamily%3DConsolas;strokeColor=#82b366;" vertex="1" parent="1">
          <mxGeometry x="237" y="706" width="150" height="60" as="geometry" />
        </mxCell>
        <mxCell id="uwHGnu1WHlyNOCF_fj2t-32" style="edgeStyle=orthogonalEdgeStyle;rounded=0;orthogonalLoop=1;jettySize=auto;html=1;" edge="1" parent="1" source="uwHGnu1WHlyNOCF_fj2t-34" target="uwHGnu1WHlyNOCF_fj2t-89">
          <mxGeometry relative="1" as="geometry">
            <Array as="points">
              <mxPoint x="21" y="877" />
            </Array>
          </mxGeometry>
        </mxCell>
        <mxCell id="uwHGnu1WHlyNOCF_fj2t-33" style="edgeStyle=orthogonalEdgeStyle;rounded=0;orthogonalLoop=1;jettySize=auto;html=1;" edge="1" parent="1" source="uwHGnu1WHlyNOCF_fj2t-34" target="uwHGnu1WHlyNOCF_fj2t-60">
          <mxGeometry relative="1" as="geometry" />
        </mxCell>
        <mxCell id="uwHGnu1WHlyNOCF_fj2t-34" value="Banca Web&lt;br&gt;&amp;lt;Angular, Java&amp;gt;&lt;br&gt;Endpoint: 10.101.5.12" style="html=1;outlineConnect=0;whiteSpace=wrap;fillColor=#99FFFF;shape=mxgraph.archimate3.application;appType=comp;archiType=square;fontFamily=Consolas;fontSource=https%3A%2F%2Ffonts.googleapis.com%2Fcss%3Ffamily%3DConsolas;strokeColor=#C7C777;" vertex="1" parent="1">
          <mxGeometry x="278" y="821" width="180" height="60" as="geometry" />
        </mxCell>
        <mxCell id="uwHGnu1WHlyNOCF_fj2t-35" value="&amp;lt;tcp/ip&lt;br&gt;1521&amp;gt;" style="edgeStyle=orthogonalEdgeStyle;rounded=0;orthogonalLoop=1;jettySize=auto;html=1;" edge="1" parent="1" source="uwHGnu1WHlyNOCF_fj2t-16" target="uwHGnu1WHlyNOCF_fj2t-36">
          <mxGeometry relative="1" as="geometry" />
        </mxCell>
        <mxCell id="uwHGnu1WHlyNOCF_fj2t-36" value="BD BANCS&lt;br&gt;&amp;lt;Oracle 12&amp;gt;&lt;br&gt;IP: 10.11.51.150" style="sketch=0;shadow=0;dashed=0;html=1;strokeColor=none;fillColor=#505050;labelPosition=center;verticalLabelPosition=bottom;verticalAlign=top;outlineConnect=0;align=center;shape=mxgraph.office.databases.application_store;fontFamily=Consolas;fontSource=https%3A%2F%2Ffonts.googleapis.com%2Fcss%3Ffamily%3DConsolas;" vertex="1" parent="1">
          <mxGeometry x="1050" y="1085" width="32" height="32" as="geometry" />
        </mxCell>
        <mxCell id="uwHGnu1WHlyNOCF_fj2t-37" style="edgeStyle=orthogonalEdgeStyle;rounded=0;orthogonalLoop=1;jettySize=auto;html=1;endArrow=none;endFill=0;dashed=1;" edge="1" parent="1" source="uwHGnu1WHlyNOCF_fj2t-9" target="uwHGnu1WHlyNOCF_fj2t-36">
          <mxGeometry relative="1" as="geometry" />
        </mxCell>
        <mxCell id="uwHGnu1WHlyNOCF_fj2t-38" style="edgeStyle=orthogonalEdgeStyle;rounded=0;orthogonalLoop=1;jettySize=auto;html=1;endArrow=none;endFill=0;dashed=1;" edge="1" parent="1" source="uwHGnu1WHlyNOCF_fj2t-39" target="uwHGnu1WHlyNOCF_fj2t-34">
          <mxGeometry relative="1" as="geometry">
            <Array as="points">
              <mxPoint x="853" y="874" />
              <mxPoint x="853" y="874" />
            </Array>
          </mxGeometry>
        </mxCell>
        <mxCell id="uwHGnu1WHlyNOCF_fj2t-39" value="Credenciales de usuario&lt;br&gt;&amp;lt;Auth0, User access&amp;gt;&lt;br&gt;Rol: Cliente_Banco" style="sketch=0;pointerEvents=1;shadow=0;dashed=0;html=1;strokeColor=none;fillColor=#505050;labelPosition=center;verticalLabelPosition=bottom;verticalAlign=top;outlineConnect=0;align=center;shape=mxgraph.office.security.credentials;fontFamily=Consolas;fontSource=https%3A%2F%2Ffonts.googleapis.com%2Fcss%3Ffamily%3DConsolas;" vertex="1" parent="1">
          <mxGeometry x="1282" y="858" width="32" height="32" as="geometry" />
        </mxCell>
        <mxCell id="uwHGnu1WHlyNOCF_fj2t-40" value="Credenciales de aplicacion&lt;br style=&quot;border-color: var(--border-color); font-family: Consolas;&quot;&gt;&lt;span style=&quot;font-family: Consolas;&quot;&gt;&amp;lt;WSO2, Identity Access&amp;gt;&lt;/span&gt;&lt;br style=&quot;border-color: var(--border-color); font-family: Consolas;&quot;&gt;&lt;span style=&quot;font-family: Consolas;&quot;&gt;Rol: Aplicacion_Bus&lt;/span&gt;" style="sketch=0;pointerEvents=1;shadow=0;dashed=0;html=1;strokeColor=none;fillColor=#505050;labelPosition=center;verticalLabelPosition=bottom;verticalAlign=top;outlineConnect=0;align=center;shape=mxgraph.office.security.lock_with_key_security;" vertex="1" parent="1">
          <mxGeometry x="1282" y="980" width="32" height="32" as="geometry" />
        </mxCell>
        <mxCell id="uwHGnu1WHlyNOCF_fj2t-41" style="edgeStyle=orthogonalEdgeStyle;rounded=0;orthogonalLoop=1;jettySize=auto;html=1;dashed=1;endArrow=none;endFill=0;" edge="1" parent="1" source="uwHGnu1WHlyNOCF_fj2t-42" target="uwHGnu1WHlyNOCF_fj2t-36">
          <mxGeometry relative="1" as="geometry" />
        </mxCell>
        <mxCell id="uwHGnu1WHlyNOCF_fj2t-42" value="Credenciales de base de datos&lt;br style=&quot;border-color: var(--border-color); font-family: Consolas;&quot;&gt;&lt;span style=&quot;font-family: Consolas;&quot;&gt;&amp;lt;Oracle 12, User Access&amp;gt;&lt;/span&gt;&lt;br style=&quot;border-color: var(--border-color); font-family: Consolas;&quot;&gt;&lt;span style=&quot;font-family: Consolas;&quot;&gt;Rol: user_bancs&lt;br&gt;&lt;/span&gt;" style="sketch=0;pointerEvents=1;shadow=0;dashed=0;html=1;strokeColor=none;fillColor=#505050;labelPosition=center;verticalLabelPosition=bottom;verticalAlign=top;outlineConnect=0;align=center;shape=mxgraph.office.security.lock_with_key_security;" vertex="1" parent="1">
          <mxGeometry x="1282" y="1085" width="32" height="32" as="geometry" />
        </mxCell>
        <mxCell id="uwHGnu1WHlyNOCF_fj2t-43" value="" style="rounded=0;whiteSpace=wrap;html=1;" vertex="1" parent="1">
          <mxGeometry x="-254" y="316" width="1664" height="195" as="geometry" />
        </mxCell>
        <mxCell id="uwHGnu1WHlyNOCF_fj2t-44" value="" style="rounded=1;whiteSpace=wrap;html=1;" vertex="1" parent="1">
          <mxGeometry x="696" y="352" width="628" height="137" as="geometry" />
        </mxCell>
        <mxCell id="uwHGnu1WHlyNOCF_fj2t-45" value="" style="shape=image;verticalLabelPosition=bottom;labelBackgroundColor=default;verticalAlign=top;aspect=fixed;imageAspect=0;image=data:image/png,iVBORw0KGgoAAAANSUhEUgAAAScAAAEoCAYAAAFtCwcCAAAAAXNSR0IArs4c6QAAAARnQU1BAACxjwv8YQUAAAAJcEhZcwAAFxEAABcRAcom8z8AACx6SURBVHhe7Z0LdFx3de639bAkS7ItP2JD/NLbTkggkBgD5RJ6gQB5XRISvyTLki3HSbhd97Z3tb1dd5W0kBLIiwAlkEUSnu1tuaW9bRftLSxgQULakhKSOLEtzUPyk5A4zsu2pHns++2jOfJIOpJGmqOZMzPfXuu3zsxodM5/9vnOd/b/PP5HGLONRES+lAzLg3klJF9MNWc0NCqab5JRGUo1ZzS8vpRr2KhMKY1GJftEq1o7tLaxZ0aqWzpVT3nMw/dMDYjWNe3WJa27ZqS+pUP1hcnzyH+jfjN5HvPWqHqsmpnJVaMGRVe29GodFpqO04gmj0zlZPUdBciWHpkAGlu5dv/kRuUkU9NQ5ZWpQDYqJ6tvGqqarSH5EPo0BHP1IVPBahS2yOjztRr9VdV5DlWpRiZ/N6eZyhQ2KlPYqEyZ3Kiw9xdzyaRGod814vXFXOLVqP/r9cVcMnn1HZYmDXl/OVdMapSF9nt/OVd4NirWL9d7fTlXeDbKwtkKPfZLuWDKRlnkS1vTNspi+LDEE6ivvf55vpixURbJiPw4aQ2z1WmdAo8Z+UlGjXLj7IDcZ70Srxn5yawaNTGSfbJ4XnhR6lOLYGQeqlKR8DowmmPQjvJUk5yt7GYv4eUclYWpJrFR08NGZYrfjerZu1lrG3snHXT1Qpbs9pyH743at+8KXdLaOe6YwVRUrtjvOY88N+oWz3nMS6MWjzsGNTWVF+SoUfv3v0NrW7dPOhDb0NSlNc0d+cmUHgNW3kw4EHu0v0obWvPVqCkYfKZG61p3slEzMtqojvwIfSoCm6naSY3KkXlORRy9oMgvF407EHvoySWe381Zo2YFG5UpbFSmjGvUgNzo+aVck94ofFA96Qv5IL1RFp5fyjWTGmXngL2+mEsmNirZL7vMfT2/nCsmNsrC84u5xKtRdowoFwfHpsSrURbJsHzK8x9ywVSNskiG5M/ycgJpukZZJA/IMluVyJzmrIEzNcqN5AlZORSVV5zeideM/CTTRk0MO1g66QCqT6QWwWDMZ6DU2+ps/LYHLHFQYQ5NvX8JSk0cAOzMFROVAUxUhjBRGRL8RB0UfaVP9HXsVN7A9Mwhf3gJ8/v1c5h/hhdbBD9Rh0V7912uS9pu0sV2MqBlmz8079DqCzo9Lwv2IviJwq7ZTu+MXmffMelsylyxeTlHyD0uwPWioBKV6Qm6THASZUfti1FR85KoYlFUPCK6f+/luqh5ty5s6tZFG3ZNS03jLl1xYY/WXLxD6xp7dTGS4oWTqJVFlCg0cLQbYYfGbDrh714cebZGy1ugnAk3BaRTfJveHLATdnbnhJ1J9FKTUXSKmgtOoppGE+WlJqPoPGouMFEZcn7Tm7ruchJVVHXUHOgL1WjZmt/TqrY9Wtvc5UnNxn0qS3eqvuI9j4kUZaKS2Dvih6lz+bd75mECiSOj33PeT/h/L4oyUfMBE5UhTFSGMFEZMnOiMjS7YmfaROEL1ckA3PgYBKZP1AFZmAjLGa9/LDWmTZQFNr97vP6x1JgxURaJqPzUvMop0DxmUgpklCh8oWIkIq96zaBUyChRbsTD8s9eMykFZpUoC2yCHxgbU8djhsXKrBPlxnBU7nA6n0ia4135vIoxB8w5UW6cOyxNseOYWZ7uuc8VWSfKDcxkAYrTK+IReTI9afEiUZpviZoqRkLyDmyWv4UFPY6a7HEk8ud4bQtO4n3hMN+JYjAYDEaeI9kvW2Me43CUJCH5SCotkwM10Gnn0j2rvEsclAifTKVlcuCPLxd7xZ0pTFSGMFEZwkRlCBOVIUxUhjBRGcJEZQgTlSHBTpRVxYOiLx0SfR3vvW7+mQtvGJjvMH5bsm/CMqcg8Ip646Toggt3adX6Ts+R6eZGt1Y0d+uXv9JePIl69YjooqYbta5lu/ddUnNk0cYd+siDbTrisUwvAp+oESy/ummX1rft8LwMeq5Ub9qpD3+lMePTbAWRqIVNXU6ivC6DnitVGy1RTaMXxHosdyIFlSgvZcyVokxUTaP/iarZ1FG8ikof3zBbuOllSNElaghFZ2Vjhy5vsxLB25jTqUYCGlp26jLUS3UeCXIpuk3vzFHR8lW3aEXLVs87PidSf+GtWtu8T+ubdmo9EuJ1r55RdIpKoHJOojp3LuNODak7HckXRK/Y8j5dfhEK1AnD7qZTdIly+nuYJlLTTLj0XR/FZocKfJpEVW8ssk1vLlzy7mt0CXYAi6e5q734FDUH3ETVQ1Fe/mQwUYCKyhA3UdMNKMFEgUvec/XoptcyfrTydJgokMmmt5CJYqIyxt306rDpeXVzDG56KEzfAkUtbdqdgaIaSzdR8eOib7/8Y1p+UY/WQjleYx7UtuzWio29+uWHGjWWYcVffIo6KHrkFzXa/3SlRp9Ke9LuBMJP1+hr1n8slrMws8W5U8JUYljbLRkTsc9D+PH47lCGA8oXn6LmCSYqQ5ioDGGiMoSJyhAmKkOYqAxhojKEicqQ6RM1IC8nZnH2o5iZPlFReSnXzy8PKjMp6s/c82qlzkwedSc9apRpE4We9ieoqFGmV9TzspyKGmX6RPXl+clxAWLaRFkkQvJTZ/OzA14lvBnOmCiUCJtMVU6Z0D95BqXCjIlSlTIo6RX30KnXTEqBGRNlgS/1Ol5lm5/HTEqBjBJlcS4iT5eysWecqKHDsimZ4eOLipGME2WBmup+5x+xCdoYUBNnVszMKlEWIwMy4IyuEYQHLOeQWSfKitDYoJwtNWOfdaIsXkKyYO6vWrlgQ/J7zbjYmFOiLPQZaRiOyhumrEQJ9AfnnCgLfVIqhwblm5k+zK+QySpRbsT65cpEGOo6hhnaHtESZyorIqX5kigLFVkQD8sfOVeTWJ8QHeiExwILFd8S5UbyoNTDtz5wdlCiIxFJOveoeCy40PA9UenxRlRW24ClKE4fwIJGByyNyjG8twFAvQcGDS7zlyiv0E9KmdVihYaqVKR+AoPBYDAYDMbsAoVEuR6QOkLG8eM5FJjJkPx2LCp9sTBK+QFJJPsJASE5i67dH0NYs3sWBf7pZvCy05HmxS0kRTIqQ3asYNYPN6GgiBcUFPEVCor4CgVFfIWCIr5CQRFfoaCIr1BQxFcoqGw5Ihq3O4HsgnF7xrfdY2aXy9n7IGJXpKW/Rtv9fKw2BZUliWOip8Dv3H6xvqmpQ9c0b9dVG7p1eXu3NmzqCBTLNnXqm1p6dMWG7bq68UZ9+GuNqi9BUGi/12+bCxRUtoRFz2CF7N+/RRc17dDF7Tt1SeN2XdLcpYtbOgOHjRZZv6lLK1b06MMPblR9Eb/Bx8vbKahs6Rcd+jUEted9Wv3m27SudbfWtu3U2uY9WtfUEyyauyH4Tq1u69GyFbv10T9vcQR1lru8AIGayR64sm/fFc5DV+rMAZwHr0w9Zmw+sfG2bXDfyhW3OAP86m8gAgoqQEwhKNu9eA2Snn9SgrqAggomBehQNqo2HSqoUFDjoKCyZQpB2YrzejhBvuEuL+iMCWqzI6ha4LdDLfX4bK7QoYIOfvu5I6K9t75NKxt36xJ7VnIzaO3RJXCEbFmKeZW336yLMa1r3w7R3qgrWrt06cYOCHfqx91NBQUVcGxwkBimT3x/qX7nkTX6va+v1b/5xhr9G0y/9yje+8C3v71ev/Rgs7Zvvk4rmrFLbUUvstF2qTsn7dJmYmyXt4qCCia2Muz3g4QdccYuMGaj0GDq/M0PMN8jv6rRt2/+iFa03wanukmXruvVpS3eLjQdY4KiQ5U2g8/UOI9uq8Yu1Z5KVtu6c9oHbk3FqKA6zgvqBQqqJHEE9Z6rtQq1lPOYu1bb5c2+J8ldHnFwHaoq5VB1WTkUd3klj5+Csgeec5dX4vi+y+OBzdKGuzziK34KqmYTd3klj9cuz8ThfYnKdHCXRwB3ecQ/+kUHIKjNm6/Tmg09Wt1+jS5uMUFBIK12KiZzljR26LKLu7R6Za9+86H20Tt1fFx/FFQBYE+2Cj1dqTddc7lecvl1unHLB/WSzTfoRVvs9fWz4qLN1+umK67TSzGfv/j6StWTokMUVImB/GJFOef1bGrPExi7U8XOGWYKvp84hKmtr6OYj31m8/Fx9HgKqhBIr3FSr+MmMghiVuB/nef49aXNyx52kT7/LKGgiK9QUMRXKCjiKxQU8RUKivgKBUV8hYIivkJBEV+hoIivZCeoAQgqJBr38dA9KWzmLCgdlOZERP4pGZaEHdb3mjkpPeYuqKhU4x/vhKBGuMsjLtkJKiSfcQRFhyIp5iwoCz0ma+Mh+ZdxZ8NJSZOdoA7JCrjUP9KhiEtWgrKAO70DM3jecSkbTN3qKbvGBjN3rr2ZsEBS3GQtKAvMoBe11CnHqSAmG97G6fm5VxWSksEXQeGfF2DX9/uY2RlXRI47sfdXcvgiKAs41Kp4RL6bPCjJBHZ9wyYou/bZY6GkePFNUBYQ0LqRiPyT3UnhiInFesnhq6DcGInKfgjrtNcCSXEzL4KyGOmXd2E3+EtnIdj9JVOP0nJ6gOz9FS3zJiiLZJ80J47IN7EAZ/fnTD0aQYqHeRWURfLnUhMPySeHw/K661Bxq61YXxUl8y4oN/QZaYhF5VPDA/KaHQS1UXITow1wGzLaKAqtoMmZoNx48aDUD0NYqK/O2iAQJiDsFnXEaivbJXK3WNDkXFBuoEhflgzJ/nhEvpcIScwp1iGsGAv2giZvgkqPoZC0QlwPoSHPO8evPBpKCoNACCo90DO8bCgsfxgbkKcTYTnj1FTYDbqHHuwcoZ0rtCd5m5sN2QnpCT+K5I/ACSo90KhyNPJt2CXejUb+A8R0CIX86AV9hrmZO5IICQSBFtTEQCMXwKVqzkXkqrMD0onpdxIRCeEHhEEUJJ2xjibCuixnFJSgZgo41pJkv6wdR0TWQ1A3YfdpNdojDgMp0l8Tf4giz4Nyre1dUquFwWAwGAwGg8FgMBgMBoPBYDAKPPS4LNIDUkfIGNBESh6ZR7JfWpJh+VQsLF8FD+I1IV9NhuSPk32yMiWTmUMHpSGBf7bLQxJRSWAGCYiLlDjOBZAReTZ5WDalpDJzaFRWx8PyIz0mzjPanDPI7qUipHSxJ1dF5TkwOzHBmX7oXO7B67qJC/QAZ5q9mLB/pJjIeCgm4hsUE/ENion4BsVEfINiIr5BMRHfoJiIb1BMxDcoJuIbFBPxDYqJ+AbFRHyDYiK+QTER36CYiG9QTMQ3KKYsGBCN2+8PiyZ+janlwwYaM2zYxCBibbPLre012p8Moe1+DY5GMWWBXUBvg+pjZQwcEH21X/QM8vEqOHsIrwOEtecltPU1tPs02v0K3juCen70d3j+vtlCMWUBtuzYKdEnf1Sma1pv1Dc3derqxh26quk2bbhopzZs6ggOaM/qjb16wQa0a+1WvWHbe/XFgTK1p3fRmYKAbdHYvT37r2UqS/dqJcS0sPFmrVl/u9Y2doOeQFHTvFurmjtUVu/VKz/6YX3tZLmz/pLuHUbZQjFlgf32E6KH/l20auWtWr9xmy5uuVmXNu7BtAN0BoqGpm6tb+3UynU9+qGrP6rnjkNMtkFwNxcAsBISKGaffUJ04coerW//GFbWDVrXtEeXtGwF2wJFQ9NWrYOoKjZ06Eeu/ZCeHSy3+9w0PvF3zRWKKQtsi35B9OAT5Vq15H/oosa9Wte2TRe19UJQPQEDAm/bobWtvSpruvWqq1NiwjocthsovX7fbKGYsuS4aOhnC3TBm/ZqbcsurWvtgAvs0CWtu4JHS5fWtG7X8nV79Kprr9JzR0drJuduXK/fNlsopiyBmPpNTKt7dZEjpp1YacBrZeYbtK+mdYcuQM00Jib8hiTFFBCmEJPVJkFjTEzrIabrKKbgMYWY6rHyggadKehwN3ceiilLKKbzUExZkiamuubCEFPF+vG9OYopKNCZzkMxZQkL8PNQTFkyhZi8uub5ZkxMPDQQULibOw/FlCUQU+inC1RSYqp1xNThvTJ9ZKnHZzNCMQUciOm5fy/T6pW7IaTduhpiWtT2X7BbgUt57Gpmy6K2DtQ7u3R5k53z26lLG7tBp1ZCHLMWVEpM7M0FEfvtENMv/1205oLdWt2yGyt6m1a3fWLUnSCGbFmElV8NgTZADFVtN2ld0zZd2d6tNRu3QiBdkwUzHXSm4ILEOVdaPvmzhbp0RbdWrN0HQX1cpQW7vA27/GHdHl325r26bF2vVm3s0dr2bbpk/V7sUrt1cWsn2JUxFFOAQdKcyzdO95frd768Rv/q62v1bx+9UL/7rfX6vUfX+MJff2Ot/tV3L9Se/e/W8gs74FJwrMYurWsevdAtU2rBmJjYmwsgWAnO3SlHMbXbh7DLG8uH5cYPbL7Dog/cs1albqfWt3U7u7yGNtvNTdiNzQSdKcC4K8FyAGy3lwBD9t7u+PADm9cp0XvubHFuWqi+GA6zbq82NM2yXjIopoBj7mRTW/F4nXBfp38nGyy/p0XvvqtVZRmK/PYduripG+KYewE+8UpLiqlUsPy+LHrXZ0xMe7S+GfUShFHXut1bMNORElMZxVSiTBRTS5fWQxjZiIm7uVIlXUwrehxncsXk1WubCvbmyHgxLR8vJq9jSdNBZyp10sXE3RzJinkQUxnFVKLMg5h4aKBUmQcxcTdXqqSLKYvenDEmJvbmSpR0MU3ozdl1Tl7Xek8FnanUSRcTd3MkKygm4hvzICZetluq0JmIb6SLiQU4yYp0MfHQAMmKdDFxN0ey5rQrJteZ7AK5uYmpmmIqYWxE31Oi936mXSsW92p128e1pmWnLmvdCkHthrAyw75rd7UsbtmhtY179ZprP6pDJyCmg5g/xVQaOK4xBGe6d6PKwt/RsrbbtLL9Nq1pQ83UvFtr4VSZUAdqNkKM7XtV1uzR9330/fr6i2WOADgOeAmReEn0oQdW6cUbP6IXbfmwXnT5DfrWLdfqxi3Xz4pN77xe37L5Om277Hrt2XuZngqNiinm1zqkmAKO3ZcHdzr9fJmG/q1ew89XaeiXNRp9CvyqKnOeAvjfyHNV2vcfdXrsQNXoXTR9gI+7KB2wgs7fSmUr3t6bCFKfZQS+G7fHgtn/433SHg/mPoDHr1uzKKZgYzWT8wgvVxSpz5zXJoxZ4MzHsAcW2rrDNIn3IxRTieAKx/Kceh03YWBqopoNcVtfNk9zJHttIsN7+9u4Zc4Vion4BsVEfINiIr5BMRHfoJiIb1BMxDcoJuIbFBPxDYqJ+AbFRHyDYiK+QTER36CYiG9QTMQ3KCbiGxQT8Q2KifgGxUR8IysxHcM/h4HXjEnpka2Y7ClGvl1DTAqbuYgJQloFvu84k+3mKCZizMmZVMohptvjA3KaQiJjzEVMFhDTpYkBOeTbDXyk8JmzmELyFgiKYiLnoZiIb2Qhpkvwj302A88Zk9JjzmLqk+ZE6vCA54xJ6TFXMVngH3dBUKfYoyMOWYkpJB9F3fQbiok4ZCWmsFwDXqKYiENWYuqXd+Efn2GPjjhkIyZVqUgOyKcTIRlyBIWZOWP+REQTmDnP2ZUYWYnpSamMh+UTqJ3Ojs3QxmB0X1NMpUU2YrKAIzVhBj9wRyGzUc2cEcrsfeozUiJkLaaoVOOf/2c8IsPmRJiZJmzwTYqp9MhWTBb2z4mwPKWuiDC165x4FWaJ4YuY+mQNenbf15OYYWpIYWegcvbySgs/xGSB3dzN8T45aTN83dzJTrNwN1da+CUmONNaCOrvncMB5kjWq+NurrTwS0wWEFPXUERecQ4JpB7T4LlQUpz4KSbUTivPRuVLiUMSd1yJYiot/BSTRXJQms8OyI+dXR13c6WF32JSlUoU3r87EpGX2JsrMfwWkwVmXB0PySeTYTljuzrnoS9uHYWFOu8nNoQUPvMhJgv07t6dCMlzzkJch7JDBXgNkU1uCCl85ktM+kkpSx6VjnhUjngumBQf8yUmC31KlsYi8rCewILMjQw75cJaqjiZTzFZjITlvaiffuYcEUfNZE9yHHvuGSku5ltMFljA+xJRecwpwiOsmYqWXIjJwgQ1HJXHnUd7mkNBWFjoaCPc41E8yFnY5EpMFrGoXDkUkcf1+KiQkrZwu1zFraFYSxU2uRSTBQT1fvCYIxxzJDQgBkeK2a6PR8wLm1yLySLZL++PR+Tn5/pl2L26wOqomPX0vBpJCoN8iMnCOag5IHfGwxKxRli9NGRTr0aSwiBfYlKVBfpjqRgekE6IKOSMQsdeXmGTLzGlR3JAOtCIHyQPyzn26AqYIIjJAo1Yr2G5A9NTsZDEnSPl5lbWSDhW0mqrVH3lvHddjOILDkERk0WyTxbH+2TnSFS+FY/KsbEeHwRjhxHsvR2fioMYXg/jszgPJwSHIInJArVUmR6SFWjU9Ymw/F0sKscdl+oH5kauE0FkJiTegh4ggiam9HBuoQrLxxP98hdo4A8gnHOJiCTGHMt2eyzag0OQxeQGxNOgB2XDSFj++5lB+f7ZqLw0HJHXnJPHJqzULtDzB5LcUQhicqOvT6ogmqYzUfnY0KBzafB/oPFRuFcY05POpS4mrIl4/XDiP8h1wYhpYgyH5JKRkFyOxl+G3t52/JDvg5+Dxw27UgGF/JPO8D5RSY4RIfOBI6aoHACFJ6aJkTwsF9rNoGMcwXsIzo60o5j/Bn7wIw4DKdJfk+yJOjm+E3uKValVUnyRPCm1dtiBzD/6gtSl0s5gMBgMBoPBYDAYDAaDwWAwGAwGg8FgMBgMBoPBYDAYDAZjdpF8RlYlI/LWZFiuwPSdmG4mhJAxRn3hCnBpsk9Wpqxj/sIu9rdbv2303XhYnoqFJRKPyiBeD8RDMpAAyX5CSMkTkqOY9oEf4PV/A616QBamrMTfgAOuwgJuSETkH2JROaW/lvPDBtjNuIQQ4mIDIEUklozKIby/w27FVJ0nc4IJrcbCbo5H5IeolE6P3bhtQ0/YMBTuTcaEEHLUuT98CDwH3/hkTswJFdQPMX15zJzMmGhOhJB0RgevGIJX0JwIIQGC5kQICSQ0J0JIIKE5EUICCc2JEBJIaE6EkEBCcyKEBBKaEyEkkNCcCCGBhOZECAkkNCdCSCChORFCAgnNiRASSGhOhJBAQnMihAQSmhMhJJDQnEjgoBaIQXMiecPGj4cGRsKgD69DosNHRd94QTR2AsI0ceI7ycHR14nUNGnDt5IZSRiWL8vbcdE4sPzGUn93xulG3hOHkH98Lw4811O+sLbTnEhewDpP9o9uKMPHRE89s0C//5fL9K5Pteh9d27UL9zVpl+6uwk06xfubtPP37NJP/+5VtBMZqRF77m7Xe+1vOH9A/c06b13Nevdn27Rv37kTfr0T+r07JEFzjjdNoY/tkl7mID3esoXNCeSN8ycQOIl0dO/Fv2Pxyu0u/dyrbigW8vf3KMV63brwg2dWr52m5av6dLKNbdr1fp9WrOhR6s37CHT0bhHa1p7taqlRyuRQ1mzS2X5Ll3QsF3fd81/1i9+tUVPHS9XfRnrAQaVgDkZnuspX9CcSF6wLp1tDOhS2MYxDC0cfkL0lm6YUz02rDXbdHHLdm1o7dSGxu26fEO3rtzwO7qkca/WNnVqXdMuMh2N4MIOrV/TgZzt0iXtMPW1t2v1sv36kauv00cfvEiHjsGc0IW27rR175yp17rKFzQnkm8SJ0VfRbfuuV+I7r/tXVr9ptt0Ues2rdt0k9ZtxLT1Bq1tvklrGzthWB26tHWnLiHTsMPJ0fK23doAats7dNGm7Vq+fqeWr+zQD17zIf3aV9r0rJnTi6PrANsju3VYCM2JjOJWTjCnM+DAEwv0lj3v0aql/1Wr12Cjat6pi9t2aH0bjAkb3KKWfVrX3K31zZ1kWnY506UtWx2zqmtBN6+tS8vW7tLKlZ36EZjTo3/eqmcHYU6/gQEMip5FJTvsPuA2KNCcSN45ITqCDaP/sTLdt++dWrbqFq1BN66uuQvsRuW0Ewa1A1WTVU7oorR2kUxArupbO7TG2Nip5ev2aOWKfXrVtVfpI19p0nNHU906bHvOmVCaE82JpGEbxHGYE9Z//88WwJyu0AWre3VhUxcqJTt+ct6clrRYl6UTmEGRGTFzQje4BlXnwo07dcG6HpjTLY45PeyaEyonWw/O5QY0J5oTSWOW5uRUT9jwyMykm1OVa04raU6egQXSnMh4ZmlOtrHVwqDqyJS4+ZlkTuthTugyX3UdzWlSYIE0JzKeWZoTu3WzwKtyYrfOO7BAmhMZD81p/qA5ZR5YIM2JjGcKc6pu7NLaZppTVqSZU/XGjtTZugnmlDpbR3OiOZGJTGFOVaycsmdc5dShZVOZE9YDzYnmRCYyhTmxW+cD7NZlHlggzYmMZ5bmZBsbz9ZND8/WzSGwQJoTGc8szYnXOWWOZ+XE65y8AwukOZHxzNKc2K2bBV7mxG6dd2CBNCcynjRz6ntsgd4CcypbvRfmtAvm1KX1Td2oAuwG4O2omrZjo+uYvBHmmbFKZSpgEkvwW2w643f9ZII5lXmZEw+IjwYWSHMi40mZ0zlsHE//QnTfrZfpogu6tLKpU2tbd+uK5j26unmHLmvZpjVtO/GZ3fzbiY0uGFhbalDVVWzaqotgnEubd+nyZjPQ7WjrVq1phKE27tIVMNnlMItaGG0lvl+H37HUy1D8JM2ceCnBDIEF0pzIeWyd2wBnJ2FOx0SfeqJce/dertVL96is3o89fa9WY2OvarpBy5u3qrTs02obrWAdjMsBG3te6XTaUr2+S8s29OjCNT1au2aPLt7Qq7XtPVp9Ef7WfrPWwlgXN3ZqQ9NemEUPzGz0uFkuzYnduhkCC6Q5kTFsY7CB9c2cXo8u0F/8tFr/8Pcu1be99QZteuvN2nTZdm2/fIe2bb5RmzbfrGveuUvXbdmuG7bcBG4OBOvfdZO2vmOHvu3i3brl7dv1HZdt1eZ2VE4wq8rGPVp9MQzsom0wC9CILuqGvVrX1KN1MI6JZ9n8ZpI52dm6C2BOPFs3ObBAmhMZj633/tQUXYwYNPEGqqkRdPXMtJwB+LHhOFqxz2xq74MCNujkCdHXTqP6GxZ9/nCF3nN/k26+8v26YMU2LV8Lg2rerYvRJbUu35LmbVrfegNMYwcw8/DuLvqBZ+Vk5sTKaXJggTQnch7bGGA+0ILzFBbnM9vgJxoQ/m6D78fse/beDMu+EwTSzfN10WPPV+n9d23Qy6/4gEp9ty5svl1rN3Xr0o1bdSkqpwYDxjHvXTqD3brMAwukOZExIDZN2NQ2CqtAzHzstW3s9h17DY3E8DqG1/YcNucz+1uQcLX7iujRAzV6712t+rYtH1Zp6FJp69aKi7fqoo036lJ06ZZtMHOCUTlnHW3ESg9T8Ys0c+JgczMEFkhzIsWHq92XRQefqdG7PtOql7z7GpVl6NI1wSCaYULO9Vq7nLN1da3bdXEurtdKM6eaTR1asZ5n66YMLJDmRIqPacypyszJrnFq6tJ6GIZdUJoPc2LlNENggTQnUnx4mdN7rlZZ3qNVzpNQ0s2pwzEnMw0eEJ8BmhMhWTKVOa2Y2pzqYBpep//9ZJI58VKCqQMLpDmR4sPLnALWrePZuhkCC6Q5keKjAMyJx5xmCCyQ5kSKjwIwJztbV86zdVMHFkhzIsVHAZgTu3UzBBZIcyLFx1TmZGfrzJzGHRA/b07u8Cnzhac5cbA578ACaU6k+PAypzyereMwvXMILJDmRIoPL3Nity57aE6EZAnNaX6gORGSJQVgThwJc4bAAmlOpPgoAHOa9qGaNCeaEylSCsKc2K2bNrBAmhMpPrzMiWfrsofmREiWeJmTVU6eoxKMVk71MCmva5P8xLNy4nVO3oEF0pxI8TGVObFblx00J0KyZII5fRbmdOm7Rs2pGqZkXazFzehqwTDMnOrHzAmmNdFQ/CTNnCaerXvEzOlY2gFxGBPNieZEig3buG36umjk0CK953MbdfMVH9PyRbfrwvW3ayWMoeLiG7SqvVtr27p0adtWGJSZlQ3dOx/AEDGtb+0B3Vrf3qWL34Iu5oa9WrF8t151DczpoTY990KqcuobbT/NieZEigzbqGNHReOviT77TLV+6k+a9JKLP6Qi3Sq1t6KC6lVZidfLPgH2q6zA6xX7gL2+Zf5YhmU3GFhOA5ZXu0elpkPf84Er9fMPbNAXomWqL6L9aPtZ/I7hoG2DNCdCssS0GwYnRV/rL9Nf/HONfuuL6/TeP71YH7i/Te99YI1+7r5VevfnmvW+u9v0gXub9Qt3r9MvfG4tpvNAar73f2Gd3od23H//Or373ib97Gcv0ns/+zb9P99erc8+Xqlx2/6OAauYgrgN0pwIyQLbsO2Ze88De7T6IHAfCIqqxLp6iorKjkfpqdRnhr1/BZyeR2z+r6aw97b8l4At/wSw9lvb0a1zpmawE39fPqE5EZId1q1LwJScZ/DZZ2ZQqeM3CRhWMoXzfdO5vTYjmGfiMJ2EazruMq2d2O4S1r7UZ3amzumWuttjUKA5EZIltqGbls2U7L2ZgE3tfepzM60YPrenFsfNIOaTlFmOoMsWtweRWlsOpbDX9pm1y4zLjNPahs/MtJy/BwW0h+ZECAkeNCdCSCChORFCAgnNiRASSGhOhJBAQnMihAQSmhMhJJDQnAghgYTmRAgJJDQnQkggoTkRQgIJzYkQEkhoToSQQEJzIoQEEpoTISSQ0JwIIYGE5kQICSQ0J0JIIKE5EUICSd7M6QjMyZ5SERJNhEcHVw/cQ/0IIfkjD+a0Feb0Ix2QV5yB1u3pD6iabEB2mhMhZIxcmlPymCzHQq6COT0KIxpwKqc0c3Ifp0MIITk1JwsssEb75UqY0RfjAxLCQkesETQmQsg4cm1OyT6pQtV0ERb0KSzwIKqokbHnfRFCiEvOK6eoVCdD8hYs7E4Y06Exc+LZOkJIOnk3pxDNiRDiQV66df1ysYblDhjTM07lZGfteMyJEJJOzisnkQXJI1IDk3ofFviZeEgOJCJyzqmeaFCEEJdcm5MbMKeVqJquRfX0D5i+6DSG5kQIccmXOekhWQFTugYL/XsY1IvOMSeaEyHEJW+V0/OyPNkvH4ZB/W8s+IQeQ2N4SQEhxCVf5mShx2UFKqabsNBvYOHHEiGJOdWTmRQa5mCNtKoqPDrFdzVh4Hu83YWQIiav5vSkVKJyaoPJ/AF4Gt278wfG3amZkkt6w3kAnZDiJq/m9NdS7hx76pfrE/3yMMzpiFshOY2zaQgNtJELrGpyzcj9OyGkeMmnObmRPCDLsPAPwXwewTQ61q2zBsKszJjiMKb40ZRBway0f/Rvk34QIaQ4CII5Wdi1TzCbD8CI7o9HpC8xIEOOSZkRmQnBlJLHAD5DV3D0M1ZQhBQvQTEnp4t3XNYl++RWdOP+FRXS684ZPDMnw4wIjbUD4THr4nn9GEJI8RAYc1JZoAekbuSw/CdURp9LROVAIixxPYw/oUoyMxoGIzAnjv1ESAkQFHNyI3lQ6kf65d2JkNwXD8nzTvfNunNoaMyMyUzJcLt7Xj+KEFL4BM2cLNCAspGwXDE0IH98Niq/Gg7LGceQDDMkOxjO402EFDdBNCcLq6CS1sVDBXUuKs+AmGNMLta1M7x+FCGk8AmqOVlYBXXmoLz5TFg+PhSWh4b7ZTAehklZw62KmvhjCCHFQ5DNyQ0bwSAWlmsSEflOPCLH9QQabubErh0hxUshmJNFagyoLSNR+cORiPwg0S+vsXoipIgpFHNyIxmWVaiYbsL0bxNhecE99uRcnGlXkLujaqZfRY739nfnTJ9XEgghwaPQzMkiGZILYFA3o5v3tXhUDidsHHL8EMeoUgaEHzO+22evzajc94SQYFOI5uQGzKgpOSC9w0flX2IDcspuEB4zKTMiMyQzK6um7HNWToQUDgVtTvYkl8OyKd4nfxAfkB/DpM46NwabMVmXzswq9SNpUIQUGIVsTm6gUmqwByYkDsufxsLy2EhUXh0zIpiU3ShsIxvwmBMhBUQxmJMbdm+eY1JRuSMWlcfAa85lB9bNsyqqD6QfhyKEBJdiMic3ki9KPbpxV56LyKfPROSxM2E551ZSMUxHYFZ2n14cCcAPHk0ETAsJGB3UzgzMqiz7HzM29zuEkNxRjObkhnX38COvhBHdCYP6OXhj7CC5/XgzHrv84NjoQHZxvLfxyccMy77nfpcQkluK2Zzc0LAsQRfv/Ymw/GkyJD+Ph9Hds7GiYDzuwHVmSAa+M4pVUDQnQvJHKZiTG87NxCH5bZjRHTCg/zcSkWdjkdQDPY2UUVl1ZWNGnTuOLqB17dITRgjJDaVkTm7gh1ejKmpE1bQ5PiB7hqLybVRTUceYLCkwJruiHNWW080blzBCSG4oRXNKD/zY8nOD0gx2nzsm3xg+IqFYWE4n+uScY1bs1hGSH0rdnNx40p6h1ydrwAdRRfWg23dXol9+iurqZT2JRNnBc5iVHaOyqso5ZoVun93LZ9dPIXmjXUJ3hM6psL+nY5/Z/3qtHEJKGZqTd8B4FsGI3pvslz+CUf3duaj84twROYnKyhI22XQMfO48gAGmA4M7f0lCCvs/wzEzzMfMzTE+u3rd5kkIOQ/NafqwZDgV1SG5FAnaigrqs4lB+ctEVP4NldXL1v1zHqNu1ZQZjuHeKmPHrmBE9sw9O35lUzvQblN7UMMQOJf6m+fKIaSUoTllHiqywDnj1ycrkajL4v2yKx6R/wWj+gYM5mlUS8dhVC+i2jqFqmvY6fqZUZlxpSc9VWk5XUR7zW4dIZOhOc099MdS4WCPVO+TLbE++SCSeB2S2I3pfTCrn6AyOnhmQF6JnUCirRtnFRWqJSf57nEqmhMhk6E5zU8kT0rt0DFpGxmU94JbY4Py8Nmo/OPrA/KTNwblibMDcvJcRBIjYYmj+ooj+ekknJXjmhghpQjNaf4DCS179ZgsT56QlWf6ZM3wEXnLcEh2xMLyJ+gSfh6J/yK6dw8Ae/0g+C44CF7GCnnNITKZhDH699cxjaUf63Km6dhnhBQSdjY8IjFwEGZ1B80pR2HdQRsX3c4KnvyV1NrU4YDUYUWsxop4P8xqJ9gD9qam40H3EVVXL/h9GNWj4JcgCo7DrI664HuEFCInYExh8CPo/XdBG7YPmlO+A3uIBZli33cO0g/I28G7sRLfq2H5LUIKGdOx6RlV1Dtsh+1sGAwGg8FgMBgMBoPBYDAYDEbeQuT/AwQZT+MFUY9BAAAAAElFTkSuQmCC;" vertex="1" parent="1">
          <mxGeometry x="-229" y="357" width="99.66" height="100" as="geometry" />
        </mxCell>
        <mxCell id="uwHGnu1WHlyNOCF_fj2t-46" value="BANCO DEL PICHINCHA" style="text;html=1;strokeColor=none;fillColor=none;align=left;verticalAlign=middle;whiteSpace=wrap;rounded=0;fontSize=37;fontStyle=1" vertex="1" parent="1">
          <mxGeometry x="-113" y="371" width="446" height="30" as="geometry" />
        </mxCell>
        <mxCell id="uwHGnu1WHlyNOCF_fj2t-47" value="BLUEPRINT - ARQUITECTURA &amp;lt;&amp;lt;SOLUCION / APPLICACION&amp;gt;&amp;gt;" style="text;html=1;strokeColor=none;fillColor=none;align=left;verticalAlign=middle;whiteSpace=wrap;rounded=0;fontSize=20;fontStyle=0;fontFamily=Lucida Console;" vertex="1" parent="1">
          <mxGeometry x="-113" y="408" width="623" height="30" as="geometry" />
        </mxCell>
        <mxCell id="uwHGnu1WHlyNOCF_fj2t-48" value="META" style="text;html=1;strokeColor=none;fillColor=none;align=center;verticalAlign=middle;whiteSpace=wrap;rounded=0;fontSize=26;labelBackgroundColor=default;fontFamily=cONSOLAS;" vertex="1" parent="1">
          <mxGeometry x="936" y="338" width="143" height="30" as="geometry" />
        </mxCell>
        <mxCell id="uwHGnu1WHlyNOCF_fj2t-49" value="&lt;b style=&quot;font-size: 15px;&quot;&gt;Doc Version:&lt;/b&gt; 1.0" style="text;html=1;strokeColor=none;fillColor=none;align=left;verticalAlign=middle;whiteSpace=wrap;rounded=0;fontSize=15;fontFamily=cONSOLAS;" vertex="1" parent="1">
          <mxGeometry x="740" y="375" width="171" height="30" as="geometry" />
        </mxCell>
        <mxCell id="uwHGnu1WHlyNOCF_fj2t-50" value="&lt;b&gt;Aplicación&lt;/b&gt;&lt;b style=&quot;font-size: 15px;&quot;&gt;:&lt;/b&gt;&amp;nbsp;&amp;lt;&amp;lt;AppName&amp;gt;&amp;gt;" style="text;html=1;strokeColor=none;fillColor=none;align=left;verticalAlign=middle;whiteSpace=wrap;rounded=0;fontSize=15;fontFamily=cONSOLAS;" vertex="1" parent="1">
          <mxGeometry x="740" y="405" width="237" height="30" as="geometry" />
        </mxCell>
        <mxCell id="uwHGnu1WHlyNOCF_fj2t-51" value="&lt;b&gt;Tribu&lt;/b&gt;&lt;b style=&quot;font-size: 15px;&quot;&gt;:&lt;/b&gt;&amp;nbsp;&amp;lt;&amp;lt;Tribu&amp;gt;&amp;gt;" style="text;html=1;strokeColor=none;fillColor=none;align=left;verticalAlign=middle;whiteSpace=wrap;rounded=0;fontSize=15;fontFamily=cONSOLAS;" vertex="1" parent="1">
          <mxGeometry x="740" y="441" width="237" height="30" as="geometry" />
        </mxCell>
        <mxCell id="uwHGnu1WHlyNOCF_fj2t-52" value="&lt;b&gt;Célula&lt;/b&gt;&lt;b style=&quot;font-size: 15px;&quot;&gt;:&lt;/b&gt;&amp;nbsp;&amp;lt;&amp;lt;Célula&amp;gt;&amp;gt;" style="text;html=1;strokeColor=none;fillColor=none;align=left;verticalAlign=middle;whiteSpace=wrap;rounded=0;fontSize=15;fontFamily=cONSOLAS;" vertex="1" parent="1">
          <mxGeometry x="986" y="375" width="237" height="30" as="geometry" />
        </mxCell>
        <mxCell id="uwHGnu1WHlyNOCF_fj2t-53" value="&lt;b&gt;Patrónes&amp;nbsp;de Arquitectura&lt;/b&gt;&lt;b style=&quot;font-size: 15px;&quot;&gt;:&lt;/b&gt;&amp;nbsp;&amp;lt;&amp;lt;Patrones&amp;gt;&amp;gt;" style="text;html=1;strokeColor=none;fillColor=none;align=left;verticalAlign=middle;whiteSpace=wrap;rounded=0;fontSize=15;fontFamily=cONSOLAS;" vertex="1" parent="1">
          <mxGeometry x="986" y="411" width="311" height="30" as="geometry" />
        </mxCell>
        <mxCell id="uwHGnu1WHlyNOCF_fj2t-54" value="&lt;b style=&quot;font-size: 15px;&quot;&gt;Fecha:&lt;/b&gt;&amp;nbsp;&amp;lt;&amp;lt;DD/MM/YYYY&amp;gt;&amp;gt;" style="text;html=1;strokeColor=none;fillColor=none;align=left;verticalAlign=middle;whiteSpace=wrap;rounded=0;fontSize=15;fontFamily=cONSOLAS;" vertex="1" parent="1">
          <mxGeometry x="983" y="441" width="237" height="30" as="geometry" />
        </mxCell>
        <mxCell id="uwHGnu1WHlyNOCF_fj2t-55" value="&lt;b&gt;Tipo&lt;/b&gt;&lt;b style=&quot;font-size: 15px;&quot;&gt;:&lt;/b&gt;&amp;nbsp;Clasificado" style="text;html=1;strokeColor=none;fillColor=none;align=left;verticalAlign=middle;whiteSpace=wrap;rounded=0;fontSize=15;fontFamily=cONSOLAS;" vertex="1" parent="1">
          <mxGeometry x="1166" y="441" width="145.5" height="30" as="geometry" />
        </mxCell>
        <mxCell id="uwHGnu1WHlyNOCF_fj2t-56" style="edgeStyle=orthogonalEdgeStyle;rounded=0;orthogonalLoop=1;jettySize=auto;html=1;" edge="1" parent="1" source="uwHGnu1WHlyNOCF_fj2t-57" target="uwHGnu1WHlyNOCF_fj2t-34">
          <mxGeometry relative="1" as="geometry" />
        </mxCell>
        <mxCell id="uwHGnu1WHlyNOCF_fj2t-57" value="Actualizar los datos transaccionales" style="html=1;outlineConnect=0;whiteSpace=wrap;fillColor=#99FFFF;shape=mxgraph.archimate3.application;appType=proc;archiType=rounded;fontFamily=Consolas;fontSource=https%3A%2F%2Ffonts.googleapis.com%2Fcss%3Ffamily%3DConsolas;strokeColor=#82b366;align=center;" vertex="1" parent="1">
          <mxGeometry x="412" y="706" width="150" height="60" as="geometry" />
        </mxCell>
        <mxCell id="uwHGnu1WHlyNOCF_fj2t-58" value="Registrar el consentimiento de datos personales." style="html=1;outlineConnect=0;whiteSpace=wrap;fillColor=#99FFFF;shape=mxgraph.archimate3.application;appType=proc;archiType=rounded;fontFamily=Consolas;fontSource=https%3A%2F%2Ffonts.googleapis.com%2Fcss%3Ffamily%3DConsolas;strokeColor=#82b366;align=center;" vertex="1" parent="1">
          <mxGeometry x="584" y="706" width="150" height="60" as="geometry" />
        </mxCell>
        <mxCell id="uwHGnu1WHlyNOCF_fj2t-59" style="edgeStyle=orthogonalEdgeStyle;rounded=0;orthogonalLoop=1;jettySize=auto;html=1;" edge="1" parent="1" source="uwHGnu1WHlyNOCF_fj2t-60" target="uwHGnu1WHlyNOCF_fj2t-27">
          <mxGeometry relative="1" as="geometry">
            <Array as="points">
              <mxPoint x="831" y="574" />
            </Array>
          </mxGeometry>
        </mxCell>
        <mxCell id="uwHGnu1WHlyNOCF_fj2t-60" value="Notificación de actualización de datos correo electrónico y notificación push" style="html=1;outlineConnect=0;whiteSpace=wrap;fillColor=#99FFFF;shape=mxgraph.archimate3.application;appType=proc;archiType=rounded;fontFamily=Consolas;fontSource=https%3A%2F%2Ffonts.googleapis.com%2Fcss%3Ffamily%3DConsolas;strokeColor=#82b366;align=center;" vertex="1" parent="1">
          <mxGeometry x="756" y="703" width="150" height="60" as="geometry" />
        </mxCell>
        <mxCell id="uwHGnu1WHlyNOCF_fj2t-61" style="edgeStyle=orthogonalEdgeStyle;rounded=0;orthogonalLoop=1;jettySize=auto;html=1;entryX=0;entryY=0.5;entryDx=0;entryDy=0;entryPerimeter=0;" edge="1" parent="1" source="uwHGnu1WHlyNOCF_fj2t-30" target="uwHGnu1WHlyNOCF_fj2t-34">
          <mxGeometry relative="1" as="geometry">
            <Array as="points">
              <mxPoint x="-21" y="851" />
            </Array>
          </mxGeometry>
        </mxCell>
        <mxCell id="uwHGnu1WHlyNOCF_fj2t-62" style="edgeStyle=orthogonalEdgeStyle;rounded=0;orthogonalLoop=1;jettySize=auto;html=1;entryX=0.25;entryY=0;entryDx=0;entryDy=0;entryPerimeter=0;" edge="1" parent="1" source="uwHGnu1WHlyNOCF_fj2t-27" target="uwHGnu1WHlyNOCF_fj2t-30">
          <mxGeometry relative="1" as="geometry" />
        </mxCell>
        <mxCell id="uwHGnu1WHlyNOCF_fj2t-63" style="edgeStyle=orthogonalEdgeStyle;rounded=0;orthogonalLoop=1;jettySize=auto;html=1;entryX=0.25;entryY=0;entryDx=0;entryDy=0;entryPerimeter=0;" edge="1" parent="1" source="uwHGnu1WHlyNOCF_fj2t-27" target="uwHGnu1WHlyNOCF_fj2t-29">
          <mxGeometry relative="1" as="geometry">
            <Array as="points">
              <mxPoint x="383" y="636" />
              <mxPoint x="103" y="636" />
            </Array>
          </mxGeometry>
        </mxCell>
        <mxCell id="uwHGnu1WHlyNOCF_fj2t-64" style="edgeStyle=orthogonalEdgeStyle;rounded=0;orthogonalLoop=1;jettySize=auto;html=1;entryX=0.5;entryY=0;entryDx=0;entryDy=0;entryPerimeter=0;" edge="1" parent="1" source="uwHGnu1WHlyNOCF_fj2t-27" target="uwHGnu1WHlyNOCF_fj2t-57">
          <mxGeometry relative="1" as="geometry">
            <Array as="points">
              <mxPoint x="383" y="636" />
              <mxPoint x="487" y="636" />
            </Array>
          </mxGeometry>
        </mxCell>
        <mxCell id="uwHGnu1WHlyNOCF_fj2t-65" style="edgeStyle=orthogonalEdgeStyle;rounded=0;orthogonalLoop=1;jettySize=auto;html=1;entryX=0.25;entryY=0;entryDx=0;entryDy=0;entryPerimeter=0;" edge="1" parent="1" source="uwHGnu1WHlyNOCF_fj2t-31" target="uwHGnu1WHlyNOCF_fj2t-34">
          <mxGeometry relative="1" as="geometry" />
        </mxCell>
        <mxCell id="uwHGnu1WHlyNOCF_fj2t-66" style="edgeStyle=orthogonalEdgeStyle;rounded=0;orthogonalLoop=1;jettySize=auto;html=1;entryX=1;entryY=0.25;entryDx=0;entryDy=0;entryPerimeter=0;" edge="1" parent="1" source="uwHGnu1WHlyNOCF_fj2t-58" target="uwHGnu1WHlyNOCF_fj2t-34">
          <mxGeometry relative="1" as="geometry">
            <Array as="points">
              <mxPoint x="659" y="836" />
            </Array>
          </mxGeometry>
        </mxCell>
        <mxCell id="uwHGnu1WHlyNOCF_fj2t-67" value="" style="group" vertex="1" connectable="0" parent="1">
          <mxGeometry x="-259" y="1703" width="490" height="30" as="geometry" />
        </mxCell>
        <mxCell id="uwHGnu1WHlyNOCF_fj2t-68" value="" style="rounded=0;whiteSpace=wrap;html=1;fillColor=#B9E0A5;" vertex="1" parent="uwHGnu1WHlyNOCF_fj2t-67">
          <mxGeometry y="8" width="32" height="16" as="geometry" />
        </mxCell>
        <mxCell id="uwHGnu1WHlyNOCF_fj2t-69" value="Nuevo" style="text;html=1;strokeColor=none;fillColor=none;align=left;verticalAlign=middle;whiteSpace=wrap;rounded=0;" vertex="1" parent="uwHGnu1WHlyNOCF_fj2t-67">
          <mxGeometry x="38" width="97" height="30" as="geometry" />
        </mxCell>
        <mxCell id="uwHGnu1WHlyNOCF_fj2t-70" value="" style="rounded=0;whiteSpace=wrap;html=1;fillColor=#FFFF99;" vertex="1" parent="uwHGnu1WHlyNOCF_fj2t-67">
          <mxGeometry x="124" y="8" width="32" height="16" as="geometry" />
        </mxCell>
        <mxCell id="uwHGnu1WHlyNOCF_fj2t-71" value="Modificar" style="text;html=1;strokeColor=none;fillColor=none;align=left;verticalAlign=middle;whiteSpace=wrap;rounded=0;" vertex="1" parent="uwHGnu1WHlyNOCF_fj2t-67">
          <mxGeometry x="162" width="74" height="30" as="geometry" />
        </mxCell>
        <mxCell id="uwHGnu1WHlyNOCF_fj2t-72" value="" style="rounded=0;whiteSpace=wrap;html=1;fillColor=#99FFFF;" vertex="1" parent="uwHGnu1WHlyNOCF_fj2t-67">
          <mxGeometry x="242" y="8" width="32" height="16" as="geometry" />
        </mxCell>
        <mxCell id="uwHGnu1WHlyNOCF_fj2t-73" value="Reutilizar" style="text;html=1;strokeColor=none;fillColor=none;align=left;verticalAlign=middle;whiteSpace=wrap;rounded=0;" vertex="1" parent="uwHGnu1WHlyNOCF_fj2t-67">
          <mxGeometry x="280" width="97" height="30" as="geometry" />
        </mxCell>
        <mxCell id="uwHGnu1WHlyNOCF_fj2t-74" value="" style="rounded=0;whiteSpace=wrap;html=1;fillColor=#FFCCCC;" vertex="1" parent="uwHGnu1WHlyNOCF_fj2t-67">
          <mxGeometry x="355" y="8" width="32" height="16" as="geometry" />
        </mxCell>
        <mxCell id="uwHGnu1WHlyNOCF_fj2t-75" value="Eliminar" style="text;html=1;strokeColor=none;fillColor=none;align=left;verticalAlign=middle;whiteSpace=wrap;rounded=0;" vertex="1" parent="uwHGnu1WHlyNOCF_fj2t-67">
          <mxGeometry x="393" width="97" height="30" as="geometry" />
        </mxCell>
        <mxCell id="uwHGnu1WHlyNOCF_fj2t-76" value="" style="group" vertex="1" connectable="0" parent="1">
          <mxGeometry x="-257" y="1762" width="1649" height="156" as="geometry" />
        </mxCell>
        <mxCell id="uwHGnu1WHlyNOCF_fj2t-77" value="" style="rounded=0;whiteSpace=wrap;html=1;fontFamily=cONSOLAS;" vertex="1" parent="uwHGnu1WHlyNOCF_fj2t-76">
          <mxGeometry width="1645.8389776357828" height="156" as="geometry" />
        </mxCell>
        <mxCell id="uwHGnu1WHlyNOCF_fj2t-78" value="&lt;b&gt;Elaborado:&amp;nbsp;&lt;/b&gt;" style="text;html=1;strokeColor=none;fillColor=none;align=left;verticalAlign=middle;whiteSpace=wrap;rounded=0;fontSize=22;fontFamily=cONSOLAS;" vertex="1" parent="uwHGnu1WHlyNOCF_fj2t-76">
          <mxGeometry x="34.771246006389774" y="13" width="410.9329073482428" height="30" as="geometry" />
        </mxCell>
        <mxCell id="uwHGnu1WHlyNOCF_fj2t-79" value="&lt;b&gt;Aprobado:&amp;nbsp;&lt;/b&gt;" style="text;html=1;strokeColor=none;fillColor=none;align=left;verticalAlign=middle;whiteSpace=wrap;rounded=0;fontSize=22;fontFamily=cONSOLAS;" vertex="1" parent="uwHGnu1WHlyNOCF_fj2t-76">
          <mxGeometry x="1076.8549520766774" y="13" width="410.9329073482428" height="30" as="geometry" />
        </mxCell>
        <mxCell id="uwHGnu1WHlyNOCF_fj2t-80" value="&amp;lt;&amp;lt;Nombre y Apellidos&amp;gt;&amp;gt;&lt;br&gt;&lt;b&gt;&amp;lt;&amp;lt;Cargo&amp;gt;&amp;gt;&lt;br&gt;&lt;/b&gt;&amp;lt;&amp;lt;Correo electronico&amp;gt;&amp;gt;" style="text;html=1;strokeColor=none;fillColor=none;align=center;verticalAlign=middle;whiteSpace=wrap;rounded=0;fontSize=24;fontFamily=cONSOLAS;" vertex="1" parent="uwHGnu1WHlyNOCF_fj2t-76">
          <mxGeometry x="1035.761661341853" y="63" width="613.238338658147" height="69" as="geometry" />
        </mxCell>
        <mxCell id="uwHGnu1WHlyNOCF_fj2t-81" value="&amp;lt;&amp;lt;Nombre y Apellidos&amp;gt;&amp;gt;&lt;br&gt;&lt;b&gt;&amp;lt;&amp;lt;Cargo&amp;gt;&amp;gt;&lt;br&gt;&lt;/b&gt;&amp;lt;&amp;lt;Correo electronico&amp;gt;&amp;gt;" style="text;html=1;strokeColor=none;fillColor=none;align=center;verticalAlign=middle;whiteSpace=wrap;rounded=0;fontSize=24;fontFamily=cONSOLAS;" vertex="1" parent="uwHGnu1WHlyNOCF_fj2t-76">
          <mxGeometry x="36.87859424920128" y="56" width="458.34824281150156" height="69" as="geometry" />
        </mxCell>
        <mxCell id="uwHGnu1WHlyNOCF_fj2t-82" value="&lt;b&gt;Revisado:&amp;nbsp;&lt;/b&gt;" style="text;html=1;strokeColor=none;fillColor=none;align=left;verticalAlign=middle;whiteSpace=wrap;rounded=0;fontSize=22;fontFamily=cONSOLAS;" vertex="1" parent="uwHGnu1WHlyNOCF_fj2t-76">
          <mxGeometry x="584.7891373801917" y="18.5" width="410.9329073482428" height="30" as="geometry" />
        </mxCell>
        <mxCell id="uwHGnu1WHlyNOCF_fj2t-83" value="&amp;lt;&amp;lt;Nombre y Apellidos&amp;gt;&amp;gt;&lt;br&gt;&lt;b&gt;&amp;lt;&amp;lt;Cargo&amp;gt;&amp;gt;&lt;br&gt;&lt;/b&gt;&amp;lt;&amp;lt;Correo electronico&amp;gt;&amp;gt;" style="text;html=1;strokeColor=none;fillColor=none;align=center;verticalAlign=middle;whiteSpace=wrap;rounded=0;fontSize=24;fontFamily=cONSOLAS;" vertex="1" parent="uwHGnu1WHlyNOCF_fj2t-76">
          <mxGeometry x="586.8964856230032" y="61.5" width="458.34824281150156" height="69" as="geometry" />
        </mxCell>
        <mxCell id="uwHGnu1WHlyNOCF_fj2t-84" value="Integración" style="text;html=1;strokeColor=none;fillColor=#e1d5e7;align=left;verticalAlign=middle;whiteSpace=wrap;rounded=0;flipH=0;spacingLeft=5;" vertex="1" parent="1">
          <mxGeometry x="-248" y="960" width="85" height="32.17" as="geometry" />
        </mxCell>
        <mxCell id="uwHGnu1WHlyNOCF_fj2t-85" style="edgeStyle=orthogonalEdgeStyle;rounded=0;orthogonalLoop=1;jettySize=auto;html=1;" edge="1" parent="1" source="uwHGnu1WHlyNOCF_fj2t-89" target="uwHGnu1WHlyNOCF_fj2t-2">
          <mxGeometry relative="1" as="geometry" />
        </mxCell>
        <mxCell id="uwHGnu1WHlyNOCF_fj2t-86" style="edgeStyle=orthogonalEdgeStyle;rounded=0;orthogonalLoop=1;jettySize=auto;html=1;" edge="1" parent="1" source="uwHGnu1WHlyNOCF_fj2t-89" target="uwHGnu1WHlyNOCF_fj2t-95">
          <mxGeometry relative="1" as="geometry" />
        </mxCell>
        <mxCell id="uwHGnu1WHlyNOCF_fj2t-87" style="edgeStyle=orthogonalEdgeStyle;rounded=0;orthogonalLoop=1;jettySize=auto;html=1;" edge="1" parent="1" source="uwHGnu1WHlyNOCF_fj2t-89" target="uwHGnu1WHlyNOCF_fj2t-102">
          <mxGeometry relative="1" as="geometry" />
        </mxCell>
        <mxCell id="uwHGnu1WHlyNOCF_fj2t-88" style="edgeStyle=orthogonalEdgeStyle;rounded=0;orthogonalLoop=1;jettySize=auto;html=1;dashed=1;" edge="1" parent="1" source="uwHGnu1WHlyNOCF_fj2t-89" target="uwHGnu1WHlyNOCF_fj2t-12">
          <mxGeometry relative="1" as="geometry" />
        </mxCell>
        <mxCell id="uwHGnu1WHlyNOCF_fj2t-89" value="APIGEE&lt;br&gt;&amp;lt;GCP API Manager&amp;gt;&lt;br&gt;Endpoint: &amp;lt;IP Publica&amp;gt;" style="html=1;outlineConnect=0;whiteSpace=wrap;fillColor=#99FFFF;shape=mxgraph.archimate3.application;appType=comp;archiType=square;fontFamily=Consolas;fontSource=https%3A%2F%2Ffonts.googleapis.com%2Fcss%3Ffamily%3DConsolas;strokeColor=#C7C777;" vertex="1" parent="1">
          <mxGeometry x="-29" y="982" width="186" height="64.2" as="geometry" />
        </mxCell>
        <mxCell id="uwHGnu1WHlyNOCF_fj2t-90" style="edgeStyle=orthogonalEdgeStyle;rounded=0;orthogonalLoop=1;jettySize=auto;html=1;jumpStyle=arc;" edge="1" parent="1" source="uwHGnu1WHlyNOCF_fj2t-92" target="uwHGnu1WHlyNOCF_fj2t-101">
          <mxGeometry relative="1" as="geometry" />
        </mxCell>
        <mxCell id="uwHGnu1WHlyNOCF_fj2t-91" style="edgeStyle=orthogonalEdgeStyle;rounded=0;orthogonalLoop=1;jettySize=auto;html=1;jumpStyle=arc;" edge="1" parent="1" source="uwHGnu1WHlyNOCF_fj2t-92" target="uwHGnu1WHlyNOCF_fj2t-98">
          <mxGeometry relative="1" as="geometry">
            <Array as="points">
              <mxPoint x="718" y="1190" />
              <mxPoint x="818" y="1190" />
            </Array>
          </mxGeometry>
        </mxCell>
        <mxCell id="uwHGnu1WHlyNOCF_fj2t-92" value="Datapower interno&lt;br&gt;&amp;lt;IBM API Gateway&amp;gt;&lt;br&gt;datapowerprod.uio.bpichincha.com&lt;br&gt;IP: 10.151.152.109" style="html=1;outlineConnect=0;whiteSpace=wrap;fillColor=#99FFFF;shape=mxgraph.archimate3.application;appType=comp;archiType=square;fontFamily=Consolas;fontSource=https%3A%2F%2Ffonts.googleapis.com%2Fcss%3Ffamily%3DConsolas;strokeColor=#C7C777;" vertex="1" parent="1">
          <mxGeometry x="604" y="982.86" width="227" height="62.49" as="geometry" />
        </mxCell>
        <mxCell id="uwHGnu1WHlyNOCF_fj2t-93" style="edgeStyle=orthogonalEdgeStyle;rounded=0;orthogonalLoop=1;jettySize=auto;html=1;" edge="1" parent="1" source="uwHGnu1WHlyNOCF_fj2t-2" target="uwHGnu1WHlyNOCF_fj2t-92">
          <mxGeometry relative="1" as="geometry" />
        </mxCell>
        <mxCell id="uwHGnu1WHlyNOCF_fj2t-94" style="edgeStyle=orthogonalEdgeStyle;rounded=0;orthogonalLoop=1;jettySize=auto;html=1;" edge="1" parent="1" source="uwHGnu1WHlyNOCF_fj2t-95" target="uwHGnu1WHlyNOCF_fj2t-96">
          <mxGeometry relative="1" as="geometry" />
        </mxCell>
        <mxCell id="uwHGnu1WHlyNOCF_fj2t-95" value="Bus Omnicanal&lt;br&gt;&amp;lt;IBM Integration Bus 10&amp;gt;&lt;br&gt;PRECBPIB01" style="html=1;outlineConnect=0;whiteSpace=wrap;fillColor=#99FFFF;shape=mxgraph.archimate3.application;appType=comp;archiType=square;fontFamily=Consolas;fontSource=https%3A%2F%2Ffonts.googleapis.com%2Fcss%3Ffamily%3DConsolas;strokeColor=#C7C777;" vertex="1" parent="1">
          <mxGeometry x="-26.34" y="1094" width="182" height="60" as="geometry" />
        </mxCell>
        <mxCell id="uwHGnu1WHlyNOCF_fj2t-96" value="ORQTecnicos0002&lt;br&gt;&lt;font style=&quot;font-size: 10px;&quot;&gt;&amp;lt;Notificaciones Push/Correo&amp;gt;&lt;/font&gt;&lt;br&gt;" style="html=1;outlineConnect=0;whiteSpace=wrap;fillColor=#99FFFF;shape=mxgraph.archimate3.application;appType=comp;archiType=square;fontFamily=Consolas;fontSource=https%3A%2F%2Ffonts.googleapis.com%2Fcss%3Ffamily%3DConsolas;strokeColor=#C7C777;" vertex="1" parent="1">
          <mxGeometry x="-34.34" y="1205" width="199" height="64.2" as="geometry" />
        </mxCell>
        <mxCell id="uwHGnu1WHlyNOCF_fj2t-97" style="edgeStyle=orthogonalEdgeStyle;rounded=0;orthogonalLoop=1;jettySize=auto;html=1;dashed=1;jumpStyle=arc;" edge="1" parent="1">
          <mxGeometry relative="1" as="geometry">
            <mxPoint x="817.9999999999995" y="1242.125" as="sourcePoint" />
            <mxPoint x="654" y="1560" as="targetPoint" />
          </mxGeometry>
        </mxCell>
        <mxCell id="uwHGnu1WHlyNOCF_fj2t-98" value="WSsSguridad0064&lt;br&gt;&lt;font style=&quot;font-size: 10px;&quot;&gt;&amp;lt;Validar la clave digital&amp;gt;&lt;/font&gt;" style="html=1;outlineConnect=0;whiteSpace=wrap;fillColor=#99FFFF;shape=mxgraph.archimate3.application;appType=comp;archiType=square;fontFamily=Consolas;fontSource=https%3A%2F%2Ffonts.googleapis.com%2Fcss%3Ffamily%3DConsolas;strokeColor=#C7C777;" vertex="1" parent="1">
          <mxGeometry x="719" y="1210" width="199" height="64.2" as="geometry" />
        </mxCell>
        <mxCell id="uwHGnu1WHlyNOCF_fj2t-99" style="edgeStyle=orthogonalEdgeStyle;rounded=0;orthogonalLoop=1;jettySize=auto;html=1;dashed=1;" edge="1" parent="1" source="uwHGnu1WHlyNOCF_fj2t-101" target="uwHGnu1WHlyNOCF_fj2t-10">
          <mxGeometry relative="1" as="geometry">
            <Array as="points">
              <mxPoint x="823" y="1165" />
              <mxPoint x="623" y="1165" />
            </Array>
          </mxGeometry>
        </mxCell>
        <mxCell id="uwHGnu1WHlyNOCF_fj2t-100" style="edgeStyle=orthogonalEdgeStyle;rounded=0;orthogonalLoop=1;jettySize=auto;html=1;jumpStyle=arc;" edge="1" parent="1" source="uwHGnu1WHlyNOCF_fj2t-101" target="uwHGnu1WHlyNOCF_fj2t-16">
          <mxGeometry relative="1" as="geometry" />
        </mxCell>
        <mxCell id="uwHGnu1WHlyNOCF_fj2t-101" value="WSClientes0024&lt;br&gt;&lt;font style=&quot;font-size: 10px;&quot;&gt;&amp;lt;Validar si es cliente de banco&amp;gt;&lt;/font&gt;" style="html=1;outlineConnect=0;whiteSpace=wrap;fillColor=#99FFFF;shape=mxgraph.archimate3.application;appType=comp;archiType=square;fontFamily=Consolas;fontSource=https%3A%2F%2Ffonts.googleapis.com%2Fcss%3Ffamily%3DConsolas;strokeColor=#C7C777;" vertex="1" parent="1">
          <mxGeometry x="723" y="1099" width="199" height="64.2" as="geometry" />
        </mxCell>
        <mxCell id="uwHGnu1WHlyNOCF_fj2t-102" value="Facephi&lt;br&gt;&lt;font style=&quot;font-size: 10px;&quot;&gt;&amp;lt;Validación facial entre dos rostros&amp;gt;&lt;/font&gt;" style="html=1;outlineConnect=0;whiteSpace=wrap;fillColor=#99FFFF;shape=mxgraph.archimate3.application;appType=comp;archiType=square;fontFamily=Consolas;fontSource=https%3A%2F%2Ffonts.googleapis.com%2Fcss%3Ffamily%3DConsolas;strokeColor=#C7C777;" vertex="1" parent="1">
          <mxGeometry x="-238" y="1085" width="176" height="64.2" as="geometry" />
        </mxCell>
        <mxCell id="uwHGnu1WHlyNOCF_fj2t-103" style="edgeStyle=orthogonalEdgeStyle;rounded=0;orthogonalLoop=1;jettySize=auto;html=1;entryX=0;entryY=0.5;entryDx=0;entryDy=0;entryPerimeter=0;dashed=1;" edge="1" parent="1" source="uwHGnu1WHlyNOCF_fj2t-102" target="uwHGnu1WHlyNOCF_fj2t-11">
          <mxGeometry relative="1" as="geometry" />
        </mxCell>
        <mxCell id="uwHGnu1WHlyNOCF_fj2t-104" value="ORQClientes0048&lt;br&gt;&lt;font style=&quot;font-size: 10px;&quot;&gt;&amp;lt;Consultar y actualiza los datos transaccionales del cliente.&amp;gt;&lt;/font&gt;" style="html=1;outlineConnect=0;whiteSpace=wrap;fillColor=#99FFFF;shape=mxgraph.archimate3.application;appType=comp;archiType=square;fontFamily=Consolas;fontSource=https%3A%2F%2Ffonts.googleapis.com%2Fcss%3Ffamily%3DConsolas;strokeColor=#C7C777;" vertex="1" parent="1">
          <mxGeometry x="202" y="1091.9" width="199" height="64.2" as="geometry" />
        </mxCell>
        <mxCell id="uwHGnu1WHlyNOCF_fj2t-105" style="edgeStyle=orthogonalEdgeStyle;rounded=0;orthogonalLoop=1;jettySize=auto;html=1;entryX=0;entryY=0.5;entryDx=0;entryDy=0;entryPerimeter=0;" edge="1" parent="1" source="uwHGnu1WHlyNOCF_fj2t-95" target="uwHGnu1WHlyNOCF_fj2t-104">
          <mxGeometry relative="1" as="geometry" />
        </mxCell>
        <mxCell id="uwHGnu1WHlyNOCF_fj2t-106" value="Consent PD&lt;br&gt;&lt;font style=&quot;font-size: 10px;&quot;&gt;&amp;lt;Registra el consentimiento Cliene&amp;gt;&lt;/font&gt;" style="html=1;outlineConnect=0;whiteSpace=wrap;fillColor=#99FFFF;shape=mxgraph.archimate3.application;appType=comp;archiType=square;fontFamily=Consolas;fontSource=https%3A%2F%2Ffonts.googleapis.com%2Fcss%3Ffamily%3DConsolas;strokeColor=#C7C777;" vertex="1" parent="1">
          <mxGeometry x="436" y="1089.8" width="199" height="64.2" as="geometry" />
        </mxCell>
        <mxCell id="uwHGnu1WHlyNOCF_fj2t-107" style="edgeStyle=orthogonalEdgeStyle;rounded=0;orthogonalLoop=1;jettySize=auto;html=1;entryX=0.5;entryY=0;entryDx=0;entryDy=0;entryPerimeter=0;jumpStyle=arc;" edge="1" parent="1" source="uwHGnu1WHlyNOCF_fj2t-89" target="uwHGnu1WHlyNOCF_fj2t-106">
          <mxGeometry relative="1" as="geometry">
            <Array as="points">
              <mxPoint x="64" y="1061" />
              <mxPoint x="536" y="1061" />
            </Array>
          </mxGeometry>
        </mxCell>
      </root>
    </mxGraphModel>
  </diagram>
  <diagram name="Arq_Sol_Objetivo" id="-Vg_c7JVpFqqybnXHuzC">
    <mxGraphModel dx="1860" dy="396" grid="0" gridSize="10" guides="1" tooltips="1" connect="1" arrows="1" fold="1" page="1" pageScale="1" pageWidth="300" pageHeight="300" math="0" shadow="0">
      <root>
        <mxCell id="0" />
        <mxCell id="1" parent="0" />
        <mxCell id="iW4ywjNLq9YxUe-Lawjd-7" value="" style="rounded=0;whiteSpace=wrap;html=1;flipH=0;strokeColor=#050505;" parent="1" vertex="1">
          <mxGeometry x="-256" y="954" width="1189" height="408" as="geometry" />
        </mxCell>
        <mxCell id="-0a48gGXDMhhFCgTcJoj-11" value="Datapower externo&lt;br&gt;&amp;lt;IBM API Gateway&amp;gt;&lt;br&gt;serviciosexternos.pichincha.com&lt;br&gt;IP: 10.151.152.109" style="html=1;outlineConnect=0;whiteSpace=wrap;fillColor=#99FFFF;shape=mxgraph.archimate3.application;appType=comp;archiType=square;fontFamily=Consolas;fontSource=https%3A%2F%2Ffonts.googleapis.com%2Fcss%3Ffamily%3DConsolas;strokeColor=#6C8EBF;" parent="1" vertex="1">
          <mxGeometry x="301" y="983.71" width="227" height="62.49" as="geometry" />
        </mxCell>
        <mxCell id="-0a48gGXDMhhFCgTcJoj-7" value="" style="group" parent="1" vertex="1" connectable="0">
          <mxGeometry x="-259" y="798.5" width="1191" height="121" as="geometry" />
        </mxCell>
        <mxCell id="iW4ywjNLq9YxUe-Lawjd-5" value="" style="rounded=0;whiteSpace=wrap;html=1;flipH=0;" parent="-0a48gGXDMhhFCgTcJoj-7" vertex="1">
          <mxGeometry width="1191" height="121" as="geometry" />
        </mxCell>
        <mxCell id="iW4ywjNLq9YxUe-Lawjd-6" value="Aplicaciones" style="text;html=1;strokeColor=none;fillColor=#e1d5e7;align=left;verticalAlign=middle;whiteSpace=wrap;rounded=0;flipH=0;spacingLeft=5;" parent="-0a48gGXDMhhFCgTcJoj-7" vertex="1">
          <mxGeometry x="4.394833948339484" y="4" width="93.39022140221402" height="30" as="geometry" />
        </mxCell>
        <mxCell id="-0a48gGXDMhhFCgTcJoj-5" value="" style="group" parent="1" vertex="1" connectable="0">
          <mxGeometry x="-265" y="1710" width="1436" height="121" as="geometry" />
        </mxCell>
        <mxCell id="iW4ywjNLq9YxUe-Lawjd-32" value="" style="rounded=0;whiteSpace=wrap;html=1;flipH=0;" parent="-0a48gGXDMhhFCgTcJoj-5" vertex="1">
          <mxGeometry width="1436" height="121" as="geometry" />
        </mxCell>
        <mxCell id="iW4ywjNLq9YxUe-Lawjd-33" value="Infraestructura" style="text;html=1;strokeColor=none;fillColor=#e1d5e7;align=left;verticalAlign=middle;whiteSpace=wrap;rounded=0;flipH=0;spacingLeft=5;" parent="-0a48gGXDMhhFCgTcJoj-5" vertex="1">
          <mxGeometry x="4.341647770219199" y="4" width="107.45578231292517" height="30" as="geometry" />
        </mxCell>
        <mxCell id="iW4ywjNLq9YxUe-Lawjd-43" value="ECUDBBANCS005&lt;br&gt;&amp;lt;IBM AIX 3.5, Oracle 12&amp;gt;&lt;br&gt;IP: 10.11.51.150" style="html=1;outlineConnect=0;whiteSpace=wrap;fillColor=#99FFFF;shape=mxgraph.archimate3.application;appType=node;archiType=square;fontFamily=Consolas;fontSource=https%3A%2F%2Ffonts.googleapis.com%2Fcss%3Ffamily%3DConsolas;strokeColor=#6c8ebf;" parent="-0a48gGXDMhhFCgTcJoj-5" vertex="1">
          <mxGeometry x="1226.5154950869237" y="34" width="195.37414965986395" height="60" as="geometry" />
        </mxCell>
        <mxCell id="-0a48gGXDMhhFCgTcJoj-26" value="Openshift&lt;br&gt;&amp;lt;Redhat Openshift v3&amp;gt;&lt;br&gt;IP: 100.50.30.21" style="html=1;outlineConnect=0;whiteSpace=wrap;fillColor=#99FFFF;shape=mxgraph.archimate3.application;appType=node;archiType=square;fontFamily=Consolas;fontSource=https%3A%2F%2Ffonts.googleapis.com%2Fcss%3Ffamily%3DConsolas;strokeColor=#6c8ebf;" parent="-0a48gGXDMhhFCgTcJoj-5" vertex="1">
          <mxGeometry x="916.0170934638182" y="39" width="195.37414965986395" height="60" as="geometry" />
        </mxCell>
        <mxCell id="-0a48gGXDMhhFCgTcJoj-39" value="APIGEE&lt;br&gt;&amp;lt;Apigee Edge 4.52.00&amp;gt;&lt;br&gt;Host:&amp;nbsp;api.pichincha.com&lt;br&gt;IP: 35.237.67.121" style="html=1;outlineConnect=0;whiteSpace=wrap;fillColor=#FFFF99;shape=mxgraph.archimate3.application;appType=node;archiType=square;fontFamily=Consolas;fontSource=https%3A%2F%2Ffonts.googleapis.com%2Fcss%3Ffamily%3DConsolas;strokeColor=#6c8ebf;" parent="-0a48gGXDMhhFCgTcJoj-5" vertex="1">
          <mxGeometry x="383.94406893424036" y="30.5" width="195.37414965986395" height="60" as="geometry" />
        </mxCell>
        <mxCell id="sC4P4L01jily7y9ABVmW-1" value="Azure AKS&lt;br&gt;&amp;lt;Cluster 1.25.6&amp;gt;&lt;br&gt;IP: 10.223.38.5" style="html=1;outlineConnect=0;whiteSpace=wrap;fillColor=#FFFF99;shape=mxgraph.archimate3.application;appType=node;archiType=square;fontFamily=Consolas;fontSource=https%3A%2F%2Ffonts.googleapis.com%2Fcss%3Ffamily%3DConsolas;strokeColor=#6c8ebf;" parent="-0a48gGXDMhhFCgTcJoj-5" vertex="1">
          <mxGeometry x="618.7426654254684" y="30.5" width="195.37414965986395" height="60" as="geometry" />
        </mxCell>
        <mxCell id="-0a48gGXDMhhFCgTcJoj-8" value="Facephi Platform&lt;br&gt;&amp;lt;FPhi.API V1.4.3&amp;gt;&lt;br&gt;IP: 100.50.30.21" style="html=1;outlineConnect=0;whiteSpace=wrap;fillColor=#99FFFF;shape=mxgraph.archimate3.application;appType=node;archiType=square;fontFamily=Consolas;fontSource=https%3A%2F%2Ffonts.googleapis.com%2Fcss%3Ffamily%3DConsolas;strokeColor=#6c8ebf;" parent="-0a48gGXDMhhFCgTcJoj-5" vertex="1">
          <mxGeometry x="133.50566893424036" y="30.5" width="195.37414965986395" height="60" as="geometry" />
        </mxCell>
        <mxCell id="iW4ywjNLq9YxUe-Lawjd-1" value="" style="rounded=0;whiteSpace=wrap;html=1;flipH=0;" parent="1" vertex="1">
          <mxGeometry x="-257" y="526.5" width="1189" height="121" as="geometry" />
        </mxCell>
        <mxCell id="iW4ywjNLq9YxUe-Lawjd-2" value="Usuarios internos / externos" style="text;html=1;strokeColor=none;fillColor=#e1d5e7;align=left;verticalAlign=middle;whiteSpace=wrap;rounded=0;flipH=0;spacingLeft=5;" parent="1" vertex="1">
          <mxGeometry x="-248" y="530.5" width="161" height="30" as="geometry" />
        </mxCell>
        <mxCell id="iW4ywjNLq9YxUe-Lawjd-3" value="" style="rounded=0;whiteSpace=wrap;html=1;flipH=0;" parent="1" vertex="1">
          <mxGeometry x="-258" y="661.5" width="1190" height="121" as="geometry" />
        </mxCell>
        <mxCell id="iW4ywjNLq9YxUe-Lawjd-4" value="Procesos / Actividades" style="text;html=1;strokeColor=none;fillColor=#e1d5e7;align=left;verticalAlign=middle;whiteSpace=wrap;rounded=0;flipH=0;spacingLeft=5;" parent="1" vertex="1">
          <mxGeometry x="-253" y="666" width="143" height="30" as="geometry" />
        </mxCell>
        <mxCell id="iW4ywjNLq9YxUe-Lawjd-11" value="" style="rounded=0;whiteSpace=wrap;html=1;flipH=0;" parent="1" vertex="1">
          <mxGeometry x="948" y="526.5" width="222" height="1164.5" as="geometry" />
        </mxCell>
        <mxCell id="iW4ywjNLq9YxUe-Lawjd-12" value="Datos / Almacenamiento" style="text;html=1;strokeColor=none;fillColor=#e1d5e7;align=left;verticalAlign=middle;whiteSpace=wrap;rounded=0;flipH=0;spacingLeft=5;" parent="1" vertex="1">
          <mxGeometry x="954" y="530.5" width="148" height="30" as="geometry" />
        </mxCell>
        <mxCell id="iW4ywjNLq9YxUe-Lawjd-13" value="" style="rounded=0;whiteSpace=wrap;html=1;flipH=0;" parent="1" vertex="1">
          <mxGeometry x="1187" y="525" width="222" height="1400" as="geometry" />
        </mxCell>
        <mxCell id="iW4ywjNLq9YxUe-Lawjd-14" value="Seguridad" style="text;html=1;strokeColor=none;fillColor=#e1d5e7;align=left;verticalAlign=middle;whiteSpace=wrap;rounded=0;flipH=0;spacingLeft=5;" parent="1" vertex="1">
          <mxGeometry x="1193" y="529" width="79" height="30" as="geometry" />
        </mxCell>
        <mxCell id="Lxes6dWFwH_aR1WXEOcD-7" style="edgeStyle=orthogonalEdgeStyle;rounded=0;orthogonalLoop=1;jettySize=auto;html=1;" parent="1" source="iW4ywjNLq9YxUe-Lawjd-19" target="iW4ywjNLq9YxUe-Lawjd-25" edge="1">
          <mxGeometry relative="1" as="geometry" />
        </mxCell>
        <mxCell id="Lxes6dWFwH_aR1WXEOcD-9" style="edgeStyle=orthogonalEdgeStyle;rounded=0;orthogonalLoop=1;jettySize=auto;html=1;" parent="1" source="iW4ywjNLq9YxUe-Lawjd-19" target="Lxes6dWFwH_aR1WXEOcD-2" edge="1">
          <mxGeometry relative="1" as="geometry">
            <Array as="points">
              <mxPoint x="659" y="589" />
            </Array>
          </mxGeometry>
        </mxCell>
        <mxCell id="iW4ywjNLq9YxUe-Lawjd-19" value="Cliente" style="sketch=0;pointerEvents=1;shadow=0;dashed=0;html=1;strokeColor=none;fillColor=#505050;labelPosition=center;verticalLabelPosition=bottom;verticalAlign=top;outlineConnect=0;align=center;shape=mxgraph.office.users.user;fontFamily=Consolas;fontSource=https%3A%2F%2Ffonts.googleapis.com%2Fcss%3Ffamily%3DConsolas;" parent="1" vertex="1">
          <mxGeometry x="367" y="568" width="32" height="32" as="geometry" />
        </mxCell>
        <mxCell id="Lxes6dWFwH_aR1WXEOcD-11" style="edgeStyle=orthogonalEdgeStyle;rounded=0;orthogonalLoop=1;jettySize=auto;html=1;" parent="1" source="iW4ywjNLq9YxUe-Lawjd-21" target="iW4ywjNLq9YxUe-Lawjd-29" edge="1">
          <mxGeometry relative="1" as="geometry">
            <Array as="points">
              <mxPoint x="152" y="836" />
            </Array>
          </mxGeometry>
        </mxCell>
        <mxCell id="iW4ywjNLq9YxUe-Lawjd-21" value="Autorizar al cliente por generación de clave digital en su celular" style="html=1;outlineConnect=0;whiteSpace=wrap;fillColor=#99FFFF;shape=mxgraph.archimate3.application;appType=proc;archiType=rounded;fontFamily=Consolas;fontSource=https%3A%2F%2Ffonts.googleapis.com%2Fcss%3Ffamily%3DConsolas;strokeColor=#6c8ebf;" parent="1" vertex="1">
          <mxGeometry x="65" y="706" width="150" height="60" as="geometry" />
        </mxCell>
        <mxCell id="iW4ywjNLq9YxUe-Lawjd-23" value="Validar si es cliente de banco&amp;nbsp;" style="html=1;outlineConnect=0;whiteSpace=wrap;fillColor=#99FFFF;shape=mxgraph.archimate3.application;appType=proc;archiType=rounded;fontFamily=Consolas;fontSource=https%3A%2F%2Ffonts.googleapis.com%2Fcss%3Ffamily%3DConsolas;strokeColor=#6c8ebf;" parent="1" vertex="1">
          <mxGeometry x="-119" y="706" width="150" height="60" as="geometry" />
        </mxCell>
        <mxCell id="iW4ywjNLq9YxUe-Lawjd-25" value="Autenticar al cliente con la validación biométrica por rostro" style="html=1;outlineConnect=0;whiteSpace=wrap;fillColor=#99FFFF;shape=mxgraph.archimate3.application;appType=proc;archiType=rounded;fontFamily=Consolas;fontSource=https%3A%2F%2Ffonts.googleapis.com%2Fcss%3Ffamily%3DConsolas;strokeColor=#6C8EBF;" parent="1" vertex="1">
          <mxGeometry x="237" y="706" width="150" height="60" as="geometry" />
        </mxCell>
        <mxCell id="iW4ywjNLq9YxUe-Lawjd-28" style="edgeStyle=orthogonalEdgeStyle;rounded=0;orthogonalLoop=1;jettySize=auto;html=1;" parent="1" source="iW4ywjNLq9YxUe-Lawjd-29" target="iW4ywjNLq9YxUe-Lawjd-52" edge="1">
          <mxGeometry relative="1" as="geometry">
            <Array as="points">
              <mxPoint x="21" y="877" />
            </Array>
          </mxGeometry>
        </mxCell>
        <mxCell id="ClPwLAFGCt9MLDyTrMYa-11" value="&amp;lt;https, JSON&amp;gt;&lt;br&gt;&amp;lt;AES-256&amp;gt;" style="edgeLabel;html=1;align=center;verticalAlign=middle;resizable=0;points=[];" parent="iW4ywjNLq9YxUe-Lawjd-28" vertex="1" connectable="0">
          <mxGeometry x="0.5363" y="1" relative="1" as="geometry">
            <mxPoint as="offset" />
          </mxGeometry>
        </mxCell>
        <mxCell id="-0a48gGXDMhhFCgTcJoj-1" style="edgeStyle=orthogonalEdgeStyle;rounded=0;orthogonalLoop=1;jettySize=auto;html=1;" parent="1" source="iW4ywjNLq9YxUe-Lawjd-29" target="Lxes6dWFwH_aR1WXEOcD-3" edge="1">
          <mxGeometry relative="1" as="geometry" />
        </mxCell>
        <mxCell id="ClPwLAFGCt9MLDyTrMYa-22" style="edgeStyle=orthogonalEdgeStyle;rounded=0;orthogonalLoop=1;jettySize=auto;html=1;dashed=1;jumpStyle=arc;" parent="1" source="iW4ywjNLq9YxUe-Lawjd-29" target="ClPwLAFGCt9MLDyTrMYa-15" edge="1">
          <mxGeometry relative="1" as="geometry">
            <Array as="points">
              <mxPoint x="940" y="845" />
              <mxPoint x="940" y="1205" />
            </Array>
          </mxGeometry>
        </mxCell>
        <mxCell id="k740u90MQO_QVeWFVe5n-6" value="&amp;lt;https&amp;gt;" style="edgeLabel;html=1;align=center;verticalAlign=middle;resizable=0;points=[];" parent="ClPwLAFGCt9MLDyTrMYa-22" vertex="1" connectable="0">
          <mxGeometry x="0.5415" y="3" relative="1" as="geometry">
            <mxPoint as="offset" />
          </mxGeometry>
        </mxCell>
        <mxCell id="iW4ywjNLq9YxUe-Lawjd-29" value="Banca Web&lt;br&gt;&amp;lt;Angular, Java&amp;gt;&lt;br&gt;Endpoint: 10.101.5.12" style="html=1;outlineConnect=0;whiteSpace=wrap;fillColor=#FFFF99;shape=mxgraph.archimate3.application;appType=comp;archiType=square;fontFamily=Consolas;fontSource=https%3A%2F%2Ffonts.googleapis.com%2Fcss%3Ffamily%3DConsolas;strokeColor=#C7C777;" parent="1" vertex="1">
          <mxGeometry x="278" y="821" width="180" height="60" as="geometry" />
        </mxCell>
        <mxCell id="iW4ywjNLq9YxUe-Lawjd-41" value="BD BANCS&lt;br&gt;&amp;lt;Oracle 12&amp;gt;&lt;br&gt;IP: 10.11.51.150" style="sketch=0;shadow=0;dashed=0;html=1;strokeColor=none;fillColor=#505050;labelPosition=center;verticalLabelPosition=bottom;verticalAlign=top;outlineConnect=0;align=center;shape=mxgraph.office.databases.application_store;fontFamily=Consolas;fontSource=https%3A%2F%2Ffonts.googleapis.com%2Fcss%3Ffamily%3DConsolas;" parent="1" vertex="1">
          <mxGeometry x="1050" y="1085" width="32" height="32" as="geometry" />
        </mxCell>
        <mxCell id="iW4ywjNLq9YxUe-Lawjd-42" style="edgeStyle=orthogonalEdgeStyle;rounded=0;orthogonalLoop=1;jettySize=auto;html=1;endArrow=none;endFill=0;dashed=1;" parent="1" source="iW4ywjNLq9YxUe-Lawjd-43" target="iW4ywjNLq9YxUe-Lawjd-41" edge="1">
          <mxGeometry relative="1" as="geometry" />
        </mxCell>
        <mxCell id="iW4ywjNLq9YxUe-Lawjd-44" style="edgeStyle=orthogonalEdgeStyle;rounded=0;orthogonalLoop=1;jettySize=auto;html=1;endArrow=none;endFill=0;dashed=1;" parent="1" source="iW4ywjNLq9YxUe-Lawjd-45" target="iW4ywjNLq9YxUe-Lawjd-29" edge="1">
          <mxGeometry relative="1" as="geometry">
            <Array as="points">
              <mxPoint x="853" y="874" />
              <mxPoint x="853" y="874" />
            </Array>
          </mxGeometry>
        </mxCell>
        <mxCell id="iW4ywjNLq9YxUe-Lawjd-45" value="Credenciales de usuario&lt;br&gt;&amp;lt;Auth0, User access&amp;gt;&lt;br&gt;Rol: Cliente_Banco" style="sketch=0;pointerEvents=1;shadow=0;dashed=0;html=1;strokeColor=none;fillColor=#505050;labelPosition=center;verticalLabelPosition=bottom;verticalAlign=top;outlineConnect=0;align=center;shape=mxgraph.office.security.credentials;fontFamily=Consolas;fontSource=https%3A%2F%2Ffonts.googleapis.com%2Fcss%3Ffamily%3DConsolas;" parent="1" vertex="1">
          <mxGeometry x="1282" y="858" width="32" height="32" as="geometry" />
        </mxCell>
        <mxCell id="iW4ywjNLq9YxUe-Lawjd-47" value="Credenciales de aplicacion&lt;br style=&quot;border-color: var(--border-color); font-family: Consolas;&quot;&gt;&lt;span style=&quot;font-family: Consolas;&quot;&gt;&amp;lt;WSO2, Identity Access&amp;gt;&lt;/span&gt;&lt;br style=&quot;border-color: var(--border-color); font-family: Consolas;&quot;&gt;&lt;span style=&quot;font-family: Consolas;&quot;&gt;Rol: Aplicacion_Bus&lt;/span&gt;" style="sketch=0;pointerEvents=1;shadow=0;dashed=0;html=1;strokeColor=none;fillColor=#505050;labelPosition=center;verticalLabelPosition=bottom;verticalAlign=top;outlineConnect=0;align=center;shape=mxgraph.office.security.lock_with_key_security;" parent="1" vertex="1">
          <mxGeometry x="1282" y="980" width="32" height="32" as="geometry" />
        </mxCell>
        <mxCell id="iW4ywjNLq9YxUe-Lawjd-48" style="edgeStyle=orthogonalEdgeStyle;rounded=0;orthogonalLoop=1;jettySize=auto;html=1;dashed=1;endArrow=none;endFill=0;" parent="1" source="iW4ywjNLq9YxUe-Lawjd-49" target="iW4ywjNLq9YxUe-Lawjd-41" edge="1">
          <mxGeometry relative="1" as="geometry" />
        </mxCell>
        <mxCell id="iW4ywjNLq9YxUe-Lawjd-49" value="Credenciales de base de datos&lt;br style=&quot;border-color: var(--border-color); font-family: Consolas;&quot;&gt;&lt;span style=&quot;font-family: Consolas;&quot;&gt;&amp;lt;Oracle 12, User Access&amp;gt;&lt;/span&gt;&lt;br style=&quot;border-color: var(--border-color); font-family: Consolas;&quot;&gt;&lt;span style=&quot;font-family: Consolas;&quot;&gt;Rol: user_bancs&lt;br&gt;&lt;/span&gt;" style="sketch=0;pointerEvents=1;shadow=0;dashed=0;html=1;strokeColor=none;fillColor=#505050;labelPosition=center;verticalLabelPosition=bottom;verticalAlign=top;outlineConnect=0;align=center;shape=mxgraph.office.security.lock_with_key_security;" parent="1" vertex="1">
          <mxGeometry x="1282" y="1085" width="32" height="32" as="geometry" />
        </mxCell>
        <mxCell id="ybPaZ03qSy20II0es4CP-1" value="" style="rounded=0;whiteSpace=wrap;html=1;" parent="1" vertex="1">
          <mxGeometry x="-254" y="316" width="1664" height="195" as="geometry" />
        </mxCell>
        <mxCell id="ybPaZ03qSy20II0es4CP-2" value="" style="rounded=1;whiteSpace=wrap;html=1;" parent="1" vertex="1">
          <mxGeometry x="696" y="352" width="628" height="137" as="geometry" />
        </mxCell>
        <mxCell id="ybPaZ03qSy20II0es4CP-3" value="" style="shape=image;verticalLabelPosition=bottom;labelBackgroundColor=default;verticalAlign=top;aspect=fixed;imageAspect=0;image=data:image/png,iVBORw0KGgoAAAANSUhEUgAAAScAAAEoCAYAAAFtCwcCAAAAAXNSR0IArs4c6QAAAARnQU1BAACxjwv8YQUAAAAJcEhZcwAAFxEAABcRAcom8z8AACx6SURBVHhe7Z0LdFx3de639bAkS7ItP2JD/NLbTkggkBgD5RJ6gQB5XRISvyTLki3HSbhd97Z3tb1dd5W0kBLIiwAlkEUSnu1tuaW9bRftLSxgQULakhKSOLEtzUPyk5A4zsu2pHns++2jOfJIOpJGmqOZMzPfXuu3zsxodM5/9vnOd/b/PP5HGLONRES+lAzLg3klJF9MNWc0NCqab5JRGUo1ZzS8vpRr2KhMKY1GJftEq1o7tLaxZ0aqWzpVT3nMw/dMDYjWNe3WJa27ZqS+pUP1hcnzyH+jfjN5HvPWqHqsmpnJVaMGRVe29GodFpqO04gmj0zlZPUdBciWHpkAGlu5dv/kRuUkU9NQ5ZWpQDYqJ6tvGqqarSH5EPo0BHP1IVPBahS2yOjztRr9VdV5DlWpRiZ/N6eZyhQ2KlPYqEyZ3Kiw9xdzyaRGod814vXFXOLVqP/r9cVcMnn1HZYmDXl/OVdMapSF9nt/OVd4NirWL9d7fTlXeDbKwtkKPfZLuWDKRlnkS1vTNspi+LDEE6ivvf55vpixURbJiPw4aQ2z1WmdAo8Z+UlGjXLj7IDcZ70Srxn5yawaNTGSfbJ4XnhR6lOLYGQeqlKR8DowmmPQjvJUk5yt7GYv4eUclYWpJrFR08NGZYrfjerZu1lrG3snHXT1Qpbs9pyH743at+8KXdLaOe6YwVRUrtjvOY88N+oWz3nMS6MWjzsGNTWVF+SoUfv3v0NrW7dPOhDb0NSlNc0d+cmUHgNW3kw4EHu0v0obWvPVqCkYfKZG61p3slEzMtqojvwIfSoCm6naSY3KkXlORRy9oMgvF407EHvoySWe381Zo2YFG5UpbFSmjGvUgNzo+aVck94ofFA96Qv5IL1RFp5fyjWTGmXngL2+mEsmNirZL7vMfT2/nCsmNsrC84u5xKtRdowoFwfHpsSrURbJsHzK8x9ywVSNskiG5M/ycgJpukZZJA/IMluVyJzmrIEzNcqN5AlZORSVV5zeideM/CTTRk0MO1g66QCqT6QWwWDMZ6DU2+ps/LYHLHFQYQ5NvX8JSk0cAOzMFROVAUxUhjBRGRL8RB0UfaVP9HXsVN7A9Mwhf3gJ8/v1c5h/hhdbBD9Rh0V7912uS9pu0sV2MqBlmz8079DqCzo9Lwv2IviJwq7ZTu+MXmffMelsylyxeTlHyD0uwPWioBKV6Qm6THASZUfti1FR85KoYlFUPCK6f+/luqh5ty5s6tZFG3ZNS03jLl1xYY/WXLxD6xp7dTGS4oWTqJVFlCg0cLQbYYfGbDrh714cebZGy1ugnAk3BaRTfJveHLATdnbnhJ1J9FKTUXSKmgtOoppGE+WlJqPoPGouMFEZcn7Tm7ruchJVVHXUHOgL1WjZmt/TqrY9Wtvc5UnNxn0qS3eqvuI9j4kUZaKS2Dvih6lz+bd75mECiSOj33PeT/h/L4oyUfMBE5UhTFSGMFEZMnOiMjS7YmfaROEL1ckA3PgYBKZP1AFZmAjLGa9/LDWmTZQFNr97vP6x1JgxURaJqPzUvMop0DxmUgpklCh8oWIkIq96zaBUyChRbsTD8s9eMykFZpUoC2yCHxgbU8djhsXKrBPlxnBU7nA6n0ia4135vIoxB8w5UW6cOyxNseOYWZ7uuc8VWSfKDcxkAYrTK+IReTI9afEiUZpviZoqRkLyDmyWv4UFPY6a7HEk8ud4bQtO4n3hMN+JYjAYDEaeI9kvW2Me43CUJCH5SCotkwM10Gnn0j2rvEsclAifTKVlcuCPLxd7xZ0pTFSGMFEZwkRlCBOVIUxUhjBRGcJEZQgTlSHBTpRVxYOiLx0SfR3vvW7+mQtvGJjvMH5bsm/CMqcg8Ip646Toggt3adX6Ts+R6eZGt1Y0d+uXv9JePIl69YjooqYbta5lu/ddUnNk0cYd+siDbTrisUwvAp+oESy/ummX1rft8LwMeq5Ub9qpD3+lMePTbAWRqIVNXU6ivC6DnitVGy1RTaMXxHosdyIFlSgvZcyVokxUTaP/iarZ1FG8ikof3zBbuOllSNElaghFZ2Vjhy5vsxLB25jTqUYCGlp26jLUS3UeCXIpuk3vzFHR8lW3aEXLVs87PidSf+GtWtu8T+ubdmo9EuJ1r55RdIpKoHJOojp3LuNODak7HckXRK/Y8j5dfhEK1AnD7qZTdIly+nuYJlLTTLj0XR/FZocKfJpEVW8ssk1vLlzy7mt0CXYAi6e5q734FDUH3ETVQ1Fe/mQwUYCKyhA3UdMNKMFEgUvec/XoptcyfrTydJgokMmmt5CJYqIyxt306rDpeXVzDG56KEzfAkUtbdqdgaIaSzdR8eOib7/8Y1p+UY/WQjleYx7UtuzWio29+uWHGjWWYcVffIo6KHrkFzXa/3SlRp9Ke9LuBMJP1+hr1n8slrMws8W5U8JUYljbLRkTsc9D+PH47lCGA8oXn6LmCSYqQ5ioDGGiMoSJyhAmKkOYqAxhojKEicqQ6RM1IC8nZnH2o5iZPlFReSnXzy8PKjMp6s/c82qlzkwedSc9apRpE4We9ieoqFGmV9TzspyKGmX6RPXl+clxAWLaRFkkQvJTZ/OzA14lvBnOmCiUCJtMVU6Z0D95BqXCjIlSlTIo6RX30KnXTEqBGRNlgS/1Ol5lm5/HTEqBjBJlcS4iT5eysWecqKHDsimZ4eOLipGME2WBmup+5x+xCdoYUBNnVszMKlEWIwMy4IyuEYQHLOeQWSfKitDYoJwtNWOfdaIsXkKyYO6vWrlgQ/J7zbjYmFOiLPQZaRiOyhumrEQJ9AfnnCgLfVIqhwblm5k+zK+QySpRbsT65cpEGOo6hhnaHtESZyorIqX5kigLFVkQD8sfOVeTWJ8QHeiExwILFd8S5UbyoNTDtz5wdlCiIxFJOveoeCy40PA9UenxRlRW24ClKE4fwIJGByyNyjG8twFAvQcGDS7zlyiv0E9KmdVihYaqVKR+AoPBYDAYDMbsAoVEuR6QOkLG8eM5FJjJkPx2LCp9sTBK+QFJJPsJASE5i67dH0NYs3sWBf7pZvCy05HmxS0kRTIqQ3asYNYPN6GgiBcUFPEVCor4CgVFfIWCIr5CQRFfoaCIr1BQxFcoqGw5Ihq3O4HsgnF7xrfdY2aXy9n7IGJXpKW/Rtv9fKw2BZUliWOip8Dv3H6xvqmpQ9c0b9dVG7p1eXu3NmzqCBTLNnXqm1p6dMWG7bq68UZ9+GuNqi9BUGi/12+bCxRUtoRFz2CF7N+/RRc17dDF7Tt1SeN2XdLcpYtbOgOHjRZZv6lLK1b06MMPblR9Eb/Bx8vbKahs6Rcd+jUEted9Wv3m27SudbfWtu3U2uY9WtfUEyyauyH4Tq1u69GyFbv10T9vcQR1lru8AIGayR64sm/fFc5DV+rMAZwHr0w9Zmw+sfG2bXDfyhW3OAP86m8gAgoqQEwhKNu9eA2Snn9SgrqAggomBehQNqo2HSqoUFDjoKCyZQpB2YrzejhBvuEuL+iMCWqzI6ha4LdDLfX4bK7QoYIOfvu5I6K9t75NKxt36xJ7VnIzaO3RJXCEbFmKeZW336yLMa1r3w7R3qgrWrt06cYOCHfqx91NBQUVcGxwkBimT3x/qX7nkTX6va+v1b/5xhr9G0y/9yje+8C3v71ev/Rgs7Zvvk4rmrFLbUUvstF2qTsn7dJmYmyXt4qCCia2Muz3g4QdccYuMGaj0GDq/M0PMN8jv6rRt2/+iFa03wanukmXruvVpS3eLjQdY4KiQ5U2g8/UOI9uq8Yu1Z5KVtu6c9oHbk3FqKA6zgvqBQqqJHEE9Z6rtQq1lPOYu1bb5c2+J8ldHnFwHaoq5VB1WTkUd3klj5+Csgeec5dX4vi+y+OBzdKGuzziK34KqmYTd3klj9cuz8ThfYnKdHCXRwB3ecQ/+kUHIKjNm6/Tmg09Wt1+jS5uMUFBIK12KiZzljR26LKLu7R6Za9+86H20Tt1fFx/FFQBYE+2Cj1dqTddc7lecvl1unHLB/WSzTfoRVvs9fWz4qLN1+umK67TSzGfv/j6StWTokMUVImB/GJFOef1bGrPExi7U8XOGWYKvp84hKmtr6OYj31m8/Fx9HgKqhBIr3FSr+MmMghiVuB/nef49aXNyx52kT7/LKGgiK9QUMRXKCjiKxQU8RUKivgKBUV8hYIivkJBEV+hoIivZCeoAQgqJBr38dA9KWzmLCgdlOZERP4pGZaEHdb3mjkpPeYuqKhU4x/vhKBGuMsjLtkJKiSfcQRFhyIp5iwoCz0ma+Mh+ZdxZ8NJSZOdoA7JCrjUP9KhiEtWgrKAO70DM3jecSkbTN3qKbvGBjN3rr2ZsEBS3GQtKAvMoBe11CnHqSAmG97G6fm5VxWSksEXQeGfF2DX9/uY2RlXRI47sfdXcvgiKAs41Kp4RL6bPCjJBHZ9wyYou/bZY6GkePFNUBYQ0LqRiPyT3UnhiInFesnhq6DcGInKfgjrtNcCSXEzL4KyGOmXd2E3+EtnIdj9JVOP0nJ6gOz9FS3zJiiLZJ80J47IN7EAZ/fnTD0aQYqHeRWURfLnUhMPySeHw/K661Bxq61YXxUl8y4oN/QZaYhF5VPDA/KaHQS1UXITow1wGzLaKAqtoMmZoNx48aDUD0NYqK/O2iAQJiDsFnXEaivbJXK3WNDkXFBuoEhflgzJ/nhEvpcIScwp1iGsGAv2giZvgkqPoZC0QlwPoSHPO8evPBpKCoNACCo90DO8bCgsfxgbkKcTYTnj1FTYDbqHHuwcoZ0rtCd5m5sN2QnpCT+K5I/ACSo90KhyNPJt2CXejUb+A8R0CIX86AV9hrmZO5IICQSBFtTEQCMXwKVqzkXkqrMD0onpdxIRCeEHhEEUJJ2xjibCuixnFJSgZgo41pJkv6wdR0TWQ1A3YfdpNdojDgMp0l8Tf4giz4Nyre1dUquFwWAwGAwGg8FgMBgMBoPBYDAKPPS4LNIDUkfIGNBESh6ZR7JfWpJh+VQsLF8FD+I1IV9NhuSPk32yMiWTmUMHpSGBf7bLQxJRSWAGCYiLlDjOBZAReTZ5WDalpDJzaFRWx8PyIz0mzjPanDPI7qUipHSxJ1dF5TkwOzHBmX7oXO7B67qJC/QAZ5q9mLB/pJjIeCgm4hsUE/ENion4BsVEfINiIr5BMRHfoJiIb1BMxDcoJuIbFBPxDYqJ+AbFRHyDYiK+QTER36CYiG9QTMQ3KKYsGBCN2+8PiyZ+janlwwYaM2zYxCBibbPLre012p8Moe1+DY5GMWWBXUBvg+pjZQwcEH21X/QM8vEqOHsIrwOEtecltPU1tPs02v0K3juCen70d3j+vtlCMWUBtuzYKdEnf1Sma1pv1Dc3derqxh26quk2bbhopzZs6ggOaM/qjb16wQa0a+1WvWHbe/XFgTK1p3fRmYKAbdHYvT37r2UqS/dqJcS0sPFmrVl/u9Y2doOeQFHTvFurmjtUVu/VKz/6YX3tZLmz/pLuHUbZQjFlgf32E6KH/l20auWtWr9xmy5uuVmXNu7BtAN0BoqGpm6tb+3UynU9+qGrP6rnjkNMtkFwNxcAsBISKGaffUJ04coerW//GFbWDVrXtEeXtGwF2wJFQ9NWrYOoKjZ06Eeu/ZCeHSy3+9w0PvF3zRWKKQtsi35B9OAT5Vq15H/oosa9Wte2TRe19UJQPQEDAm/bobWtvSpruvWqq1NiwjocthsovX7fbKGYsuS4aOhnC3TBm/ZqbcsurWvtgAvs0CWtu4JHS5fWtG7X8nV79Kprr9JzR0drJuduXK/fNlsopiyBmPpNTKt7dZEjpp1YacBrZeYbtK+mdYcuQM00Jib8hiTFFBCmEJPVJkFjTEzrIabrKKbgMYWY6rHyggadKehwN3ceiilLKKbzUExZkiamuubCEFPF+vG9OYopKNCZzkMxZQkL8PNQTFkyhZi8uub5ZkxMPDQQULibOw/FlCUQU+inC1RSYqp1xNThvTJ9ZKnHZzNCMQUciOm5fy/T6pW7IaTduhpiWtT2X7BbgUt57Gpmy6K2DtQ7u3R5k53z26lLG7tBp1ZCHLMWVEpM7M0FEfvtENMv/1205oLdWt2yGyt6m1a3fWLUnSCGbFmElV8NgTZADFVtN2ld0zZd2d6tNRu3QiBdkwUzHXSm4ILEOVdaPvmzhbp0RbdWrN0HQX1cpQW7vA27/GHdHl325r26bF2vVm3s0dr2bbpk/V7sUrt1cWsn2JUxFFOAQdKcyzdO95frd768Rv/q62v1bx+9UL/7rfX6vUfX+MJff2Ot/tV3L9Se/e/W8gs74FJwrMYurWsevdAtU2rBmJjYmwsgWAnO3SlHMbXbh7DLG8uH5cYPbL7Dog/cs1albqfWt3U7u7yGNtvNTdiNzQSdKcC4K8FyAGy3lwBD9t7u+PADm9cp0XvubHFuWqi+GA6zbq82NM2yXjIopoBj7mRTW/F4nXBfp38nGyy/p0XvvqtVZRmK/PYduripG+KYewE+8UpLiqlUsPy+LHrXZ0xMe7S+GfUShFHXut1bMNORElMZxVSiTBRTS5fWQxjZiIm7uVIlXUwrehxncsXk1WubCvbmyHgxLR8vJq9jSdNBZyp10sXE3RzJinkQUxnFVKLMg5h4aKBUmQcxcTdXqqSLKYvenDEmJvbmSpR0MU3ozdl1Tl7Xek8FnanUSRcTd3MkKygm4hvzICZetluq0JmIb6SLiQU4yYp0MfHQAMmKdDFxN0ey5rQrJteZ7AK5uYmpmmIqYWxE31Oi936mXSsW92p128e1pmWnLmvdCkHthrAyw75rd7UsbtmhtY179ZprP6pDJyCmg5g/xVQaOK4xBGe6d6PKwt/RsrbbtLL9Nq1pQ83UvFtr4VSZUAdqNkKM7XtV1uzR9330/fr6i2WOADgOeAmReEn0oQdW6cUbP6IXbfmwXnT5DfrWLdfqxi3Xz4pN77xe37L5Om277Hrt2XuZngqNiinm1zqkmAKO3ZcHdzr9fJmG/q1ew89XaeiXNRp9CvyqKnOeAvjfyHNV2vcfdXrsQNXoXTR9gI+7KB2wgs7fSmUr3t6bCFKfZQS+G7fHgtn/433SHg/mPoDHr1uzKKZgYzWT8wgvVxSpz5zXJoxZ4MzHsAcW2rrDNIn3IxRTieAKx/Kceh03YWBqopoNcVtfNk9zJHttIsN7+9u4Zc4Vion4BsVEfINiIr5BMRHfoJiIb1BMxDcoJuIbFBPxDYqJ+AbFRHyDYiK+QTER36CYiG9QTMQ3KCbiGxQT8Q2KifgGxUR8IysxHcM/h4HXjEnpka2Y7ClGvl1DTAqbuYgJQloFvu84k+3mKCZizMmZVMohptvjA3KaQiJjzEVMFhDTpYkBOeTbDXyk8JmzmELyFgiKYiLnoZiIb2Qhpkvwj302A88Zk9JjzmLqk+ZE6vCA54xJ6TFXMVngH3dBUKfYoyMOWYkpJB9F3fQbiok4ZCWmsFwDXqKYiENWYuqXd+Efn2GPjjhkIyZVqUgOyKcTIRlyBIWZOWP+REQTmDnP2ZUYWYnpSamMh+UTqJ3Ojs3QxmB0X1NMpUU2YrKAIzVhBj9wRyGzUc2cEcrsfeozUiJkLaaoVOOf/2c8IsPmRJiZJmzwTYqp9MhWTBb2z4mwPKWuiDC165x4FWaJ4YuY+mQNenbf15OYYWpIYWegcvbySgs/xGSB3dzN8T45aTN83dzJTrNwN1da+CUmONNaCOrvncMB5kjWq+NurrTwS0wWEFPXUERecQ4JpB7T4LlQUpz4KSbUTivPRuVLiUMSd1yJYiot/BSTRXJQms8OyI+dXR13c6WF32JSlUoU3r87EpGX2JsrMfwWkwVmXB0PySeTYTljuzrnoS9uHYWFOu8nNoQUPvMhJgv07t6dCMlzzkJch7JDBXgNkU1uCCl85ktM+kkpSx6VjnhUjngumBQf8yUmC31KlsYi8rCewILMjQw75cJaqjiZTzFZjITlvaiffuYcEUfNZE9yHHvuGSku5ltMFljA+xJRecwpwiOsmYqWXIjJwgQ1HJXHnUd7mkNBWFjoaCPc41E8yFnY5EpMFrGoXDkUkcf1+KiQkrZwu1zFraFYSxU2uRSTBQT1fvCYIxxzJDQgBkeK2a6PR8wLm1yLySLZL++PR+Tn5/pl2L26wOqomPX0vBpJCoN8iMnCOag5IHfGwxKxRli9NGRTr0aSwiBfYlKVBfpjqRgekE6IKOSMQsdeXmGTLzGlR3JAOtCIHyQPyzn26AqYIIjJAo1Yr2G5A9NTsZDEnSPl5lbWSDhW0mqrVH3lvHddjOILDkERk0WyTxbH+2TnSFS+FY/KsbEeHwRjhxHsvR2fioMYXg/jszgPJwSHIInJArVUmR6SFWjU9Ymw/F0sKscdl+oH5kauE0FkJiTegh4ggiam9HBuoQrLxxP98hdo4A8gnHOJiCTGHMt2eyzag0OQxeQGxNOgB2XDSFj++5lB+f7ZqLw0HJHXnJPHJqzULtDzB5LcUQhicqOvT6ogmqYzUfnY0KBzafB/oPFRuFcY05POpS4mrIl4/XDiP8h1wYhpYgyH5JKRkFyOxl+G3t52/JDvg5+Dxw27UgGF/JPO8D5RSY4RIfOBI6aoHACFJ6aJkTwsF9rNoGMcwXsIzo60o5j/Bn7wIw4DKdJfk+yJOjm+E3uKValVUnyRPCm1dtiBzD/6gtSl0s5gMBgMBoPBYDAYDAaDwWAwGAwGg8FgMBgMBoPBYDAYDAZjdpF8RlYlI/LWZFiuwPSdmG4mhJAxRn3hCnBpsk9Wpqxj/sIu9rdbv2303XhYnoqFJRKPyiBeD8RDMpAAyX5CSMkTkqOY9oEf4PV/A616QBamrMTfgAOuwgJuSETkH2JROaW/lvPDBtjNuIQQ4mIDIEUklozKIby/w27FVJ0nc4IJrcbCbo5H5IeolE6P3bhtQ0/YMBTuTcaEEHLUuT98CDwH3/hkTswJFdQPMX15zJzMmGhOhJB0RgevGIJX0JwIIQGC5kQICSQ0J0JIIKE5EUICCc2JEBJIaE6EkEBCcyKEBBKaEyEkkNCcCCGBhOZECAkkNCdCSCChORFCAgnNiRASSGhOhJBAQnMihAQSmhMhJJDQnEjgoBaIQXMiecPGj4cGRsKgD69DosNHRd94QTR2AsI0ceI7ycHR14nUNGnDt5IZSRiWL8vbcdE4sPzGUn93xulG3hOHkH98Lw4811O+sLbTnEhewDpP9o9uKMPHRE89s0C//5fL9K5Pteh9d27UL9zVpl+6uwk06xfubtPP37NJP/+5VtBMZqRF77m7Xe+1vOH9A/c06b13Nevdn27Rv37kTfr0T+r07JEFzjjdNoY/tkl7mID3esoXNCeSN8ycQOIl0dO/Fv2Pxyu0u/dyrbigW8vf3KMV63brwg2dWr52m5av6dLKNbdr1fp9WrOhR6s37CHT0bhHa1p7taqlRyuRQ1mzS2X5Ll3QsF3fd81/1i9+tUVPHS9XfRnrAQaVgDkZnuspX9CcSF6wLp1tDOhS2MYxDC0cfkL0lm6YUz02rDXbdHHLdm1o7dSGxu26fEO3rtzwO7qkca/WNnVqXdMuMh2N4MIOrV/TgZzt0iXtMPW1t2v1sv36kauv00cfvEiHjsGc0IW27rR175yp17rKFzQnkm8SJ0VfRbfuuV+I7r/tXVr9ptt0Ues2rdt0k9ZtxLT1Bq1tvklrGzthWB26tHWnLiHTsMPJ0fK23doAats7dNGm7Vq+fqeWr+zQD17zIf3aV9r0rJnTi6PrANsju3VYCM2JjOJWTjCnM+DAEwv0lj3v0aql/1Wr12Cjat6pi9t2aH0bjAkb3KKWfVrX3K31zZ1kWnY506UtWx2zqmtBN6+tS8vW7tLKlZ36EZjTo3/eqmcHYU6/gQEMip5FJTvsPuA2KNCcSN45ITqCDaP/sTLdt++dWrbqFq1BN66uuQvsRuW0Ewa1A1WTVU7oorR2kUxArupbO7TG2Nip5ev2aOWKfXrVtVfpI19p0nNHU906bHvOmVCaE82JpGEbxHGYE9Z//88WwJyu0AWre3VhUxcqJTt+ct6clrRYl6UTmEGRGTFzQje4BlXnwo07dcG6HpjTLY45PeyaEyonWw/O5QY0J5oTSWOW5uRUT9jwyMykm1OVa04raU6egQXSnMh4ZmlOtrHVwqDqyJS4+ZlkTuthTugyX3UdzWlSYIE0JzKeWZoTu3WzwKtyYrfOO7BAmhMZD81p/qA5ZR5YIM2JjGcKc6pu7NLaZppTVqSZU/XGjtTZugnmlDpbR3OiOZGJTGFOVaycsmdc5dShZVOZE9YDzYnmRCYyhTmxW+cD7NZlHlggzYmMZ5bmZBsbz9ZND8/WzSGwQJoTGc8szYnXOWWOZ+XE65y8AwukOZHxzNKc2K2bBV7mxG6dd2CBNCcynjRz6ntsgd4CcypbvRfmtAvm1KX1Td2oAuwG4O2omrZjo+uYvBHmmbFKZSpgEkvwW2w643f9ZII5lXmZEw+IjwYWSHMi40mZ0zlsHE//QnTfrZfpogu6tLKpU2tbd+uK5j26unmHLmvZpjVtO/GZ3fzbiY0uGFhbalDVVWzaqotgnEubd+nyZjPQ7WjrVq1phKE27tIVMNnlMItaGG0lvl+H37HUy1D8JM2ceCnBDIEF0pzIeWyd2wBnJ2FOx0SfeqJce/dertVL96is3o89fa9WY2OvarpBy5u3qrTs02obrWAdjMsBG3te6XTaUr2+S8s29OjCNT1au2aPLt7Qq7XtPVp9Ef7WfrPWwlgXN3ZqQ9NemEUPzGz0uFkuzYnduhkCC6Q5kTFsY7CB9c2cXo8u0F/8tFr/8Pcu1be99QZteuvN2nTZdm2/fIe2bb5RmzbfrGveuUvXbdmuG7bcBG4OBOvfdZO2vmOHvu3i3brl7dv1HZdt1eZ2VE4wq8rGPVp9MQzsom0wC9CILuqGvVrX1KN1MI6JZ9n8ZpI52dm6C2BOPFs3ObBAmhMZj633/tQUXYwYNPEGqqkRdPXMtJwB+LHhOFqxz2xq74MCNujkCdHXTqP6GxZ9/nCF3nN/k26+8v26YMU2LV8Lg2rerYvRJbUu35LmbVrfegNMYwcw8/DuLvqBZ+Vk5sTKaXJggTQnch7bGGA+0ILzFBbnM9vgJxoQ/m6D78fse/beDMu+EwTSzfN10WPPV+n9d23Qy6/4gEp9ty5svl1rN3Xr0o1bdSkqpwYDxjHvXTqD3brMAwukOZExIDZN2NQ2CqtAzHzstW3s9h17DY3E8DqG1/YcNucz+1uQcLX7iujRAzV6712t+rYtH1Zp6FJp69aKi7fqoo036lJ06ZZtMHOCUTlnHW3ESg9T8Ys0c+JgczMEFkhzIsWHq92XRQefqdG7PtOql7z7GpVl6NI1wSCaYULO9Vq7nLN1da3bdXEurtdKM6eaTR1asZ5n66YMLJDmRIqPacypyszJrnFq6tJ6GIZdUJoPc2LlNENggTQnUnx4mdN7rlZZ3qNVzpNQ0s2pwzEnMw0eEJ8BmhMhWTKVOa2Y2pzqYBpep//9ZJI58VKCqQMLpDmR4sPLnALWrePZuhkCC6Q5keKjAMyJx5xmCCyQ5kSKjwIwJztbV86zdVMHFkhzIsVHAZgTu3UzBBZIcyLFx1TmZGfrzJzGHRA/b07u8Cnzhac5cbA578ACaU6k+PAypzyereMwvXMILJDmRIoPL3Nity57aE6EZAnNaX6gORGSJQVgThwJc4bAAmlOpPgoAHOa9qGaNCeaEylSCsKc2K2bNrBAmhMpPrzMiWfrsofmREiWeJmTVU6eoxKMVk71MCmva5P8xLNy4nVO3oEF0pxI8TGVObFblx00J0KyZII5fRbmdOm7Rs2pGqZkXazFzehqwTDMnOrHzAmmNdFQ/CTNnCaerXvEzOlY2gFxGBPNieZEig3buG36umjk0CK953MbdfMVH9PyRbfrwvW3ayWMoeLiG7SqvVtr27p0adtWGJSZlQ3dOx/AEDGtb+0B3Vrf3qWL34Iu5oa9WrF8t151DczpoTY990KqcuobbT/NieZEigzbqGNHReOviT77TLV+6k+a9JKLP6Qi3Sq1t6KC6lVZidfLPgH2q6zA6xX7gL2+Zf5YhmU3GFhOA5ZXu0elpkPf84Er9fMPbNAXomWqL6L9aPtZ/I7hoG2DNCdCssS0GwYnRV/rL9Nf/HONfuuL6/TeP71YH7i/Te99YI1+7r5VevfnmvW+u9v0gXub9Qt3r9MvfG4tpvNAar73f2Gd3od23H//Or373ib97Gcv0ns/+zb9P99erc8+Xqlx2/6OAauYgrgN0pwIyQLbsO2Ze88De7T6IHAfCIqqxLp6iorKjkfpqdRnhr1/BZyeR2z+r6aw97b8l4At/wSw9lvb0a1zpmawE39fPqE5EZId1q1LwJScZ/DZZ2ZQqeM3CRhWMoXzfdO5vTYjmGfiMJ2EazruMq2d2O4S1r7UZ3amzumWuttjUKA5EZIltqGbls2U7L2ZgE3tfepzM60YPrenFsfNIOaTlFmOoMsWtweRWlsOpbDX9pm1y4zLjNPahs/MtJy/BwW0h+ZECAkeNCdCSCChORFCAgnNiRASSGhOhJBAQnMihAQSmhMhJJDQnAghgYTmRAgJJDQnQkggoTkRQgIJzYkQEkhoToSQQEJzIoQEEpoTISSQ0JwIIYGE5kQICSQ0J0JIIKE5EUICSd7M6QjMyZ5SERJNhEcHVw/cQ/0IIfkjD+a0Feb0Ix2QV5yB1u3pD6iabEB2mhMhZIxcmlPymCzHQq6COT0KIxpwKqc0c3Ifp0MIITk1JwsssEb75UqY0RfjAxLCQkesETQmQsg4cm1OyT6pQtV0ERb0KSzwIKqokbHnfRFCiEvOK6eoVCdD8hYs7E4Y06Exc+LZOkJIOnk3pxDNiRDiQV66df1ysYblDhjTM07lZGfteMyJEJJOzisnkQXJI1IDk3ofFviZeEgOJCJyzqmeaFCEEJdcm5MbMKeVqJquRfX0D5i+6DSG5kQIccmXOekhWQFTugYL/XsY1IvOMSeaEyHEJW+V0/OyPNkvH4ZB/W8s+IQeQ2N4SQEhxCVf5mShx2UFKqabsNBvYOHHEiGJOdWTmRQa5mCNtKoqPDrFdzVh4Hu83YWQIiav5vSkVKJyaoPJ/AF4Gt278wfG3amZkkt6w3kAnZDiJq/m9NdS7hx76pfrE/3yMMzpiFshOY2zaQgNtJELrGpyzcj9OyGkeMmnObmRPCDLsPAPwXwewTQ61q2zBsKszJjiMKb40ZRBway0f/Rvk34QIaQ4CII5Wdi1TzCbD8CI7o9HpC8xIEOOSZkRmQnBlJLHAD5DV3D0M1ZQhBQvQTEnp4t3XNYl++RWdOP+FRXS684ZPDMnw4wIjbUD4THr4nn9GEJI8RAYc1JZoAekbuSw/CdURp9LROVAIixxPYw/oUoyMxoGIzAnjv1ESAkQFHNyI3lQ6kf65d2JkNwXD8nzTvfNunNoaMyMyUzJcLt7Xj+KEFL4BM2cLNCAspGwXDE0IH98Niq/Gg7LGceQDDMkOxjO402EFDdBNCcLq6CS1sVDBXUuKs+AmGNMLta1M7x+FCGk8AmqOVlYBXXmoLz5TFg+PhSWh4b7ZTAehklZw62KmvhjCCHFQ5DNyQ0bwSAWlmsSEflOPCLH9QQabubErh0hxUshmJNFagyoLSNR+cORiPwg0S+vsXoipIgpFHNyIxmWVaiYbsL0bxNhecE99uRcnGlXkLujaqZfRY739nfnTJ9XEgghwaPQzMkiGZILYFA3o5v3tXhUDidsHHL8EMeoUgaEHzO+22evzajc94SQYFOI5uQGzKgpOSC9w0flX2IDcspuEB4zKTMiMyQzK6um7HNWToQUDgVtTvYkl8OyKd4nfxAfkB/DpM46NwabMVmXzswq9SNpUIQUGIVsTm6gUmqwByYkDsufxsLy2EhUXh0zIpiU3ShsIxvwmBMhBUQxmJMbdm+eY1JRuSMWlcfAa85lB9bNsyqqD6QfhyKEBJdiMic3ki9KPbpxV56LyKfPROSxM2E551ZSMUxHYFZ2n14cCcAPHk0ETAsJGB3UzgzMqiz7HzM29zuEkNxRjObkhnX38COvhBHdCYP6OXhj7CC5/XgzHrv84NjoQHZxvLfxyccMy77nfpcQkluK2Zzc0LAsQRfv/Ymw/GkyJD+Ph9Hds7GiYDzuwHVmSAa+M4pVUDQnQvJHKZiTG87NxCH5bZjRHTCg/zcSkWdjkdQDPY2UUVl1ZWNGnTuOLqB17dITRgjJDaVkTm7gh1ejKmpE1bQ5PiB7hqLybVRTUceYLCkwJruiHNWW080blzBCSG4oRXNKD/zY8nOD0gx2nzsm3xg+IqFYWE4n+uScY1bs1hGSH0rdnNx40p6h1ydrwAdRRfWg23dXol9+iurqZT2JRNnBc5iVHaOyqso5ZoVun93LZ9dPIXmjXUJ3hM6psL+nY5/Z/3qtHEJKGZqTd8B4FsGI3pvslz+CUf3duaj84twROYnKyhI22XQMfO48gAGmA4M7f0lCCvs/wzEzzMfMzTE+u3rd5kkIOQ/NafqwZDgV1SG5FAnaigrqs4lB+ctEVP4NldXL1v1zHqNu1ZQZjuHeKmPHrmBE9sw9O35lUzvQblN7UMMQOJf6m+fKIaSUoTllHiqywDnj1ycrkajL4v2yKx6R/wWj+gYM5mlUS8dhVC+i2jqFqmvY6fqZUZlxpSc9VWk5XUR7zW4dIZOhOc099MdS4WCPVO+TLbE++SCSeB2S2I3pfTCrn6AyOnhmQF6JnUCirRtnFRWqJSf57nEqmhMhk6E5zU8kT0rt0DFpGxmU94JbY4Py8Nmo/OPrA/KTNwblibMDcvJcRBIjYYmj+ooj+ekknJXjmhghpQjNaf4DCS179ZgsT56QlWf6ZM3wEXnLcEh2xMLyJ+gSfh6J/yK6dw8Ae/0g+C44CF7GCnnNITKZhDH699cxjaUf63Km6dhnhBQSdjY8IjFwEGZ1B80pR2HdQRsX3c4KnvyV1NrU4YDUYUWsxop4P8xqJ9gD9qam40H3EVVXL/h9GNWj4JcgCo7DrI664HuEFCInYExh8CPo/XdBG7YPmlO+A3uIBZli33cO0g/I28G7sRLfq2H5LUIKGdOx6RlV1Dtsh+1sGAwGg8FgMBgMBoPBYDAYDEbeQuT/AwQZT+MFUY9BAAAAAElFTkSuQmCC;" parent="1" vertex="1">
          <mxGeometry x="-229" y="357" width="99.66" height="100" as="geometry" />
        </mxCell>
        <mxCell id="ybPaZ03qSy20II0es4CP-4" value="BANCO DEL PICHINCHA" style="text;html=1;strokeColor=none;fillColor=none;align=left;verticalAlign=middle;whiteSpace=wrap;rounded=0;fontSize=37;fontStyle=1" parent="1" vertex="1">
          <mxGeometry x="-113" y="371" width="446" height="30" as="geometry" />
        </mxCell>
        <mxCell id="ybPaZ03qSy20II0es4CP-5" value="BLUEPRINT - ARQUITECTURA &amp;lt;&amp;lt;SOLUCION / APPLICACION&amp;gt;&amp;gt;" style="text;html=1;strokeColor=none;fillColor=none;align=left;verticalAlign=middle;whiteSpace=wrap;rounded=0;fontSize=20;fontStyle=0;fontFamily=Lucida Console;" parent="1" vertex="1">
          <mxGeometry x="-113" y="408" width="623" height="30" as="geometry" />
        </mxCell>
        <mxCell id="ybPaZ03qSy20II0es4CP-6" value="META" style="text;html=1;strokeColor=none;fillColor=none;align=center;verticalAlign=middle;whiteSpace=wrap;rounded=0;fontSize=26;labelBackgroundColor=default;fontFamily=cONSOLAS;" parent="1" vertex="1">
          <mxGeometry x="936" y="338" width="143" height="30" as="geometry" />
        </mxCell>
        <mxCell id="ybPaZ03qSy20II0es4CP-7" value="&lt;b style=&quot;font-size: 15px;&quot;&gt;Doc Version:&lt;/b&gt; 1.0" style="text;html=1;strokeColor=none;fillColor=none;align=left;verticalAlign=middle;whiteSpace=wrap;rounded=0;fontSize=15;fontFamily=cONSOLAS;" parent="1" vertex="1">
          <mxGeometry x="740" y="375" width="171" height="30" as="geometry" />
        </mxCell>
        <mxCell id="ybPaZ03qSy20II0es4CP-8" value="&lt;b&gt;Aplicación&lt;/b&gt;&lt;b style=&quot;font-size: 15px;&quot;&gt;:&lt;/b&gt;&amp;nbsp;&amp;lt;&amp;lt;AppName&amp;gt;&amp;gt;" style="text;html=1;strokeColor=none;fillColor=none;align=left;verticalAlign=middle;whiteSpace=wrap;rounded=0;fontSize=15;fontFamily=cONSOLAS;" parent="1" vertex="1">
          <mxGeometry x="740" y="405" width="237" height="30" as="geometry" />
        </mxCell>
        <mxCell id="ybPaZ03qSy20II0es4CP-9" value="&lt;b&gt;Tribu&lt;/b&gt;&lt;b style=&quot;font-size: 15px;&quot;&gt;:&lt;/b&gt;&amp;nbsp;&amp;lt;&amp;lt;Tribu&amp;gt;&amp;gt;" style="text;html=1;strokeColor=none;fillColor=none;align=left;verticalAlign=middle;whiteSpace=wrap;rounded=0;fontSize=15;fontFamily=cONSOLAS;" parent="1" vertex="1">
          <mxGeometry x="740" y="441" width="237" height="30" as="geometry" />
        </mxCell>
        <mxCell id="ybPaZ03qSy20II0es4CP-10" value="&lt;b&gt;Célula&lt;/b&gt;&lt;b style=&quot;font-size: 15px;&quot;&gt;:&lt;/b&gt;&amp;nbsp;&amp;lt;&amp;lt;Célula&amp;gt;&amp;gt;" style="text;html=1;strokeColor=none;fillColor=none;align=left;verticalAlign=middle;whiteSpace=wrap;rounded=0;fontSize=15;fontFamily=cONSOLAS;" parent="1" vertex="1">
          <mxGeometry x="986" y="375" width="237" height="30" as="geometry" />
        </mxCell>
        <mxCell id="ybPaZ03qSy20II0es4CP-11" value="&lt;b&gt;Patrónes&amp;nbsp;de Arquitectura&lt;/b&gt;&lt;b style=&quot;font-size: 15px;&quot;&gt;:&lt;/b&gt;&amp;nbsp;&amp;lt;&amp;lt;Patrones&amp;gt;&amp;gt;" style="text;html=1;strokeColor=none;fillColor=none;align=left;verticalAlign=middle;whiteSpace=wrap;rounded=0;fontSize=15;fontFamily=cONSOLAS;" parent="1" vertex="1">
          <mxGeometry x="986" y="411" width="311" height="30" as="geometry" />
        </mxCell>
        <mxCell id="ybPaZ03qSy20II0es4CP-12" value="&lt;b style=&quot;font-size: 15px;&quot;&gt;Fecha:&lt;/b&gt;&amp;nbsp;&amp;lt;&amp;lt;DD/MM/YYYY&amp;gt;&amp;gt;" style="text;html=1;strokeColor=none;fillColor=none;align=left;verticalAlign=middle;whiteSpace=wrap;rounded=0;fontSize=15;fontFamily=cONSOLAS;" parent="1" vertex="1">
          <mxGeometry x="983" y="441" width="237" height="30" as="geometry" />
        </mxCell>
        <mxCell id="ybPaZ03qSy20II0es4CP-13" value="&lt;b&gt;Tipo&lt;/b&gt;&lt;b style=&quot;font-size: 15px;&quot;&gt;:&lt;/b&gt;&amp;nbsp;Clasificado" style="text;html=1;strokeColor=none;fillColor=none;align=left;verticalAlign=middle;whiteSpace=wrap;rounded=0;fontSize=15;fontFamily=cONSOLAS;" parent="1" vertex="1">
          <mxGeometry x="1166" y="441" width="145.5" height="30" as="geometry" />
        </mxCell>
        <mxCell id="Lxes6dWFwH_aR1WXEOcD-13" style="edgeStyle=orthogonalEdgeStyle;rounded=0;orthogonalLoop=1;jettySize=auto;html=1;" parent="1" source="Lxes6dWFwH_aR1WXEOcD-1" target="iW4ywjNLq9YxUe-Lawjd-29" edge="1">
          <mxGeometry relative="1" as="geometry" />
        </mxCell>
        <mxCell id="Lxes6dWFwH_aR1WXEOcD-1" value="Actualizar los datos transaccionales" style="html=1;outlineConnect=0;whiteSpace=wrap;fillColor=#99FFFF;shape=mxgraph.archimate3.application;appType=proc;archiType=rounded;fontFamily=Consolas;fontSource=https%3A%2F%2Ffonts.googleapis.com%2Fcss%3Ffamily%3DConsolas;strokeColor=#6C8EBF;align=center;" parent="1" vertex="1">
          <mxGeometry x="412" y="706" width="150" height="60" as="geometry" />
        </mxCell>
        <mxCell id="Lxes6dWFwH_aR1WXEOcD-2" value="Registrar el consentimiento de datos personales." style="html=1;outlineConnect=0;whiteSpace=wrap;fillColor=#99FFFF;shape=mxgraph.archimate3.application;appType=proc;archiType=rounded;fontFamily=Consolas;fontSource=https%3A%2F%2Ffonts.googleapis.com%2Fcss%3Ffamily%3DConsolas;strokeColor=#6C8EBF;align=center;" parent="1" vertex="1">
          <mxGeometry x="584" y="706" width="150" height="60" as="geometry" />
        </mxCell>
        <mxCell id="Lxes6dWFwH_aR1WXEOcD-16" style="edgeStyle=orthogonalEdgeStyle;rounded=0;orthogonalLoop=1;jettySize=auto;html=1;" parent="1" source="Lxes6dWFwH_aR1WXEOcD-3" target="iW4ywjNLq9YxUe-Lawjd-19" edge="1">
          <mxGeometry relative="1" as="geometry">
            <Array as="points">
              <mxPoint x="831" y="574" />
            </Array>
          </mxGeometry>
        </mxCell>
        <mxCell id="Lxes6dWFwH_aR1WXEOcD-3" value="Notificación de actualización de datos correo electrónico y notificación push" style="html=1;outlineConnect=0;whiteSpace=wrap;fillColor=#99FFFF;shape=mxgraph.archimate3.application;appType=proc;archiType=rounded;fontFamily=Consolas;fontSource=https%3A%2F%2Ffonts.googleapis.com%2Fcss%3Ffamily%3DConsolas;strokeColor=#6C8EBF;align=center;" parent="1" vertex="1">
          <mxGeometry x="756" y="703" width="150" height="60" as="geometry" />
        </mxCell>
        <mxCell id="Lxes6dWFwH_aR1WXEOcD-4" style="edgeStyle=orthogonalEdgeStyle;rounded=0;orthogonalLoop=1;jettySize=auto;html=1;entryX=0;entryY=0.5;entryDx=0;entryDy=0;entryPerimeter=0;" parent="1" source="iW4ywjNLq9YxUe-Lawjd-23" target="iW4ywjNLq9YxUe-Lawjd-29" edge="1">
          <mxGeometry relative="1" as="geometry">
            <Array as="points">
              <mxPoint x="-21" y="851" />
            </Array>
          </mxGeometry>
        </mxCell>
        <mxCell id="Lxes6dWFwH_aR1WXEOcD-5" style="edgeStyle=orthogonalEdgeStyle;rounded=0;orthogonalLoop=1;jettySize=auto;html=1;entryX=0.25;entryY=0;entryDx=0;entryDy=0;entryPerimeter=0;" parent="1" source="iW4ywjNLq9YxUe-Lawjd-19" target="iW4ywjNLq9YxUe-Lawjd-23" edge="1">
          <mxGeometry relative="1" as="geometry" />
        </mxCell>
        <mxCell id="Lxes6dWFwH_aR1WXEOcD-6" style="edgeStyle=orthogonalEdgeStyle;rounded=0;orthogonalLoop=1;jettySize=auto;html=1;entryX=0.25;entryY=0;entryDx=0;entryDy=0;entryPerimeter=0;" parent="1" source="iW4ywjNLq9YxUe-Lawjd-19" target="iW4ywjNLq9YxUe-Lawjd-21" edge="1">
          <mxGeometry relative="1" as="geometry">
            <Array as="points">
              <mxPoint x="383" y="636" />
              <mxPoint x="103" y="636" />
            </Array>
          </mxGeometry>
        </mxCell>
        <mxCell id="Lxes6dWFwH_aR1WXEOcD-8" style="edgeStyle=orthogonalEdgeStyle;rounded=0;orthogonalLoop=1;jettySize=auto;html=1;entryX=0.5;entryY=0;entryDx=0;entryDy=0;entryPerimeter=0;" parent="1" source="iW4ywjNLq9YxUe-Lawjd-19" target="Lxes6dWFwH_aR1WXEOcD-1" edge="1">
          <mxGeometry relative="1" as="geometry">
            <Array as="points">
              <mxPoint x="383" y="636" />
              <mxPoint x="487" y="636" />
            </Array>
          </mxGeometry>
        </mxCell>
        <mxCell id="Lxes6dWFwH_aR1WXEOcD-12" style="edgeStyle=orthogonalEdgeStyle;rounded=0;orthogonalLoop=1;jettySize=auto;html=1;entryX=0.25;entryY=0;entryDx=0;entryDy=0;entryPerimeter=0;" parent="1" source="iW4ywjNLq9YxUe-Lawjd-25" target="iW4ywjNLq9YxUe-Lawjd-29" edge="1">
          <mxGeometry relative="1" as="geometry" />
        </mxCell>
        <mxCell id="Lxes6dWFwH_aR1WXEOcD-14" style="edgeStyle=orthogonalEdgeStyle;rounded=0;orthogonalLoop=1;jettySize=auto;html=1;entryX=1;entryY=0.25;entryDx=0;entryDy=0;entryPerimeter=0;" parent="1" source="Lxes6dWFwH_aR1WXEOcD-2" target="iW4ywjNLq9YxUe-Lawjd-29" edge="1">
          <mxGeometry relative="1" as="geometry">
            <Array as="points">
              <mxPoint x="659" y="836" />
            </Array>
          </mxGeometry>
        </mxCell>
        <mxCell id="-0a48gGXDMhhFCgTcJoj-2" value="" style="group" parent="1" vertex="1" connectable="0">
          <mxGeometry x="-259" y="1889" width="490" height="30" as="geometry" />
        </mxCell>
        <mxCell id="iW4ywjNLq9YxUe-Lawjd-53" value="" style="rounded=0;whiteSpace=wrap;html=1;fillColor=#B9E0A5;" parent="-0a48gGXDMhhFCgTcJoj-2" vertex="1">
          <mxGeometry y="8" width="32" height="16" as="geometry" />
        </mxCell>
        <mxCell id="iW4ywjNLq9YxUe-Lawjd-55" value="Nuevo" style="text;html=1;strokeColor=none;fillColor=none;align=left;verticalAlign=middle;whiteSpace=wrap;rounded=0;" parent="-0a48gGXDMhhFCgTcJoj-2" vertex="1">
          <mxGeometry x="38" width="97" height="30" as="geometry" />
        </mxCell>
        <mxCell id="iW4ywjNLq9YxUe-Lawjd-56" value="" style="rounded=0;whiteSpace=wrap;html=1;fillColor=#FFFF99;" parent="-0a48gGXDMhhFCgTcJoj-2" vertex="1">
          <mxGeometry x="124" y="8" width="32" height="16" as="geometry" />
        </mxCell>
        <mxCell id="iW4ywjNLq9YxUe-Lawjd-57" value="Modificar" style="text;html=1;strokeColor=none;fillColor=none;align=left;verticalAlign=middle;whiteSpace=wrap;rounded=0;" parent="-0a48gGXDMhhFCgTcJoj-2" vertex="1">
          <mxGeometry x="162" width="74" height="30" as="geometry" />
        </mxCell>
        <mxCell id="iW4ywjNLq9YxUe-Lawjd-58" value="" style="rounded=0;whiteSpace=wrap;html=1;fillColor=#99FFFF;" parent="-0a48gGXDMhhFCgTcJoj-2" vertex="1">
          <mxGeometry x="242" y="8" width="32" height="16" as="geometry" />
        </mxCell>
        <mxCell id="iW4ywjNLq9YxUe-Lawjd-59" value="Reutilizar" style="text;html=1;strokeColor=none;fillColor=none;align=left;verticalAlign=middle;whiteSpace=wrap;rounded=0;" parent="-0a48gGXDMhhFCgTcJoj-2" vertex="1">
          <mxGeometry x="280" width="97" height="30" as="geometry" />
        </mxCell>
        <mxCell id="iW4ywjNLq9YxUe-Lawjd-60" value="" style="rounded=0;whiteSpace=wrap;html=1;fillColor=#FFCCCC;" parent="-0a48gGXDMhhFCgTcJoj-2" vertex="1">
          <mxGeometry x="355" y="8" width="32" height="16" as="geometry" />
        </mxCell>
        <mxCell id="iW4ywjNLq9YxUe-Lawjd-61" value="Eliminar" style="text;html=1;strokeColor=none;fillColor=none;align=left;verticalAlign=middle;whiteSpace=wrap;rounded=0;" parent="-0a48gGXDMhhFCgTcJoj-2" vertex="1">
          <mxGeometry x="393" width="97" height="30" as="geometry" />
        </mxCell>
        <mxCell id="-0a48gGXDMhhFCgTcJoj-3" value="" style="group" parent="1" vertex="1" connectable="0">
          <mxGeometry x="-257" y="1948" width="1649" height="156" as="geometry" />
        </mxCell>
        <mxCell id="v5Qc9Vi5Qaza9F5YN4eI-1" value="" style="rounded=0;whiteSpace=wrap;html=1;fontFamily=cONSOLAS;" parent="-0a48gGXDMhhFCgTcJoj-3" vertex="1">
          <mxGeometry width="1645.8389776357828" height="156" as="geometry" />
        </mxCell>
        <mxCell id="v5Qc9Vi5Qaza9F5YN4eI-2" value="&lt;b&gt;Elaborado:&amp;nbsp;&lt;/b&gt;" style="text;html=1;strokeColor=none;fillColor=none;align=left;verticalAlign=middle;whiteSpace=wrap;rounded=0;fontSize=22;fontFamily=cONSOLAS;" parent="-0a48gGXDMhhFCgTcJoj-3" vertex="1">
          <mxGeometry x="34.771246006389774" y="13" width="410.9329073482428" height="30" as="geometry" />
        </mxCell>
        <mxCell id="v5Qc9Vi5Qaza9F5YN4eI-3" value="&lt;b&gt;Aprobado:&amp;nbsp;&lt;/b&gt;" style="text;html=1;strokeColor=none;fillColor=none;align=left;verticalAlign=middle;whiteSpace=wrap;rounded=0;fontSize=22;fontFamily=cONSOLAS;" parent="-0a48gGXDMhhFCgTcJoj-3" vertex="1">
          <mxGeometry x="1076.8549520766774" y="13" width="410.9329073482428" height="30" as="geometry" />
        </mxCell>
        <mxCell id="v5Qc9Vi5Qaza9F5YN4eI-4" value="&amp;lt;&amp;lt;Nombre y Apellidos&amp;gt;&amp;gt;&lt;br&gt;&lt;b&gt;&amp;lt;&amp;lt;Cargo&amp;gt;&amp;gt;&lt;br&gt;&lt;/b&gt;&amp;lt;&amp;lt;Correo electronico&amp;gt;&amp;gt;" style="text;html=1;strokeColor=none;fillColor=none;align=center;verticalAlign=middle;whiteSpace=wrap;rounded=0;fontSize=24;fontFamily=cONSOLAS;" parent="-0a48gGXDMhhFCgTcJoj-3" vertex="1">
          <mxGeometry x="1035.761661341853" y="63" width="613.238338658147" height="69" as="geometry" />
        </mxCell>
        <mxCell id="v5Qc9Vi5Qaza9F5YN4eI-5" value="&amp;lt;&amp;lt;Nombre y Apellidos&amp;gt;&amp;gt;&lt;br&gt;&lt;b&gt;&amp;lt;&amp;lt;Cargo&amp;gt;&amp;gt;&lt;br&gt;&lt;/b&gt;&amp;lt;&amp;lt;Correo electronico&amp;gt;&amp;gt;" style="text;html=1;strokeColor=none;fillColor=none;align=center;verticalAlign=middle;whiteSpace=wrap;rounded=0;fontSize=24;fontFamily=cONSOLAS;" parent="-0a48gGXDMhhFCgTcJoj-3" vertex="1">
          <mxGeometry x="36.87859424920128" y="56" width="458.34824281150156" height="69" as="geometry" />
        </mxCell>
        <mxCell id="v5Qc9Vi5Qaza9F5YN4eI-6" value="&lt;b&gt;Revisado:&amp;nbsp;&lt;/b&gt;" style="text;html=1;strokeColor=none;fillColor=none;align=left;verticalAlign=middle;whiteSpace=wrap;rounded=0;fontSize=22;fontFamily=cONSOLAS;" parent="-0a48gGXDMhhFCgTcJoj-3" vertex="1">
          <mxGeometry x="584.7891373801917" y="18.5" width="410.9329073482428" height="30" as="geometry" />
        </mxCell>
        <mxCell id="v5Qc9Vi5Qaza9F5YN4eI-7" value="&amp;lt;&amp;lt;Nombre y Apellidos&amp;gt;&amp;gt;&lt;br&gt;&lt;b&gt;&amp;lt;&amp;lt;Cargo&amp;gt;&amp;gt;&lt;br&gt;&lt;/b&gt;&amp;lt;&amp;lt;Correo electronico&amp;gt;&amp;gt;" style="text;html=1;strokeColor=none;fillColor=none;align=center;verticalAlign=middle;whiteSpace=wrap;rounded=0;fontSize=24;fontFamily=cONSOLAS;" parent="-0a48gGXDMhhFCgTcJoj-3" vertex="1">
          <mxGeometry x="586.8964856230032" y="61.5" width="458.34824281150156" height="69" as="geometry" />
        </mxCell>
        <mxCell id="iW4ywjNLq9YxUe-Lawjd-8" value="Integración" style="text;html=1;strokeColor=none;fillColor=#e1d5e7;align=left;verticalAlign=middle;whiteSpace=wrap;rounded=0;flipH=0;spacingLeft=5;" parent="1" vertex="1">
          <mxGeometry x="-248" y="960" width="85" height="32.17" as="geometry" />
        </mxCell>
        <mxCell id="-0a48gGXDMhhFCgTcJoj-19" style="edgeStyle=orthogonalEdgeStyle;rounded=0;orthogonalLoop=1;jettySize=auto;html=1;" parent="1" source="iW4ywjNLq9YxUe-Lawjd-52" target="-0a48gGXDMhhFCgTcJoj-11" edge="1">
          <mxGeometry relative="1" as="geometry" />
        </mxCell>
        <mxCell id="-0a48gGXDMhhFCgTcJoj-35" style="edgeStyle=orthogonalEdgeStyle;rounded=0;orthogonalLoop=1;jettySize=auto;html=1;" parent="1" source="iW4ywjNLq9YxUe-Lawjd-52" target="-0a48gGXDMhhFCgTcJoj-33" edge="1">
          <mxGeometry relative="1" as="geometry">
            <Array as="points">
              <mxPoint x="-150" y="1004" />
            </Array>
          </mxGeometry>
        </mxCell>
        <mxCell id="ClPwLAFGCt9MLDyTrMYa-24" value="&amp;lt;https, JSON&amp;gt;" style="edgeLabel;html=1;align=center;verticalAlign=middle;resizable=0;points=[];" parent="-0a48gGXDMhhFCgTcJoj-35" vertex="1" connectable="0">
          <mxGeometry x="0.245" y="4" relative="1" as="geometry">
            <mxPoint y="-1" as="offset" />
          </mxGeometry>
        </mxCell>
        <mxCell id="-0a48gGXDMhhFCgTcJoj-40" style="edgeStyle=orthogonalEdgeStyle;rounded=0;orthogonalLoop=1;jettySize=auto;html=1;dashed=1;" parent="1" source="iW4ywjNLq9YxUe-Lawjd-52" target="-0a48gGXDMhhFCgTcJoj-39" edge="1">
          <mxGeometry relative="1" as="geometry">
            <Array as="points">
              <mxPoint x="-18" y="1584" />
            </Array>
          </mxGeometry>
        </mxCell>
        <mxCell id="ClPwLAFGCt9MLDyTrMYa-9" style="edgeStyle=orthogonalEdgeStyle;rounded=0;orthogonalLoop=1;jettySize=auto;html=1;" parent="1" source="iW4ywjNLq9YxUe-Lawjd-52" target="-0a48gGXDMhhFCgTcJoj-36" edge="1">
          <mxGeometry relative="1" as="geometry">
            <Array as="points">
              <mxPoint x="64" y="1086" />
              <mxPoint x="64" y="1086" />
            </Array>
          </mxGeometry>
        </mxCell>
        <mxCell id="ClPwLAFGCt9MLDyTrMYa-16" value="&amp;lt;https, JSON&amp;gt;&lt;br&gt;AES-256" style="edgeLabel;html=1;align=center;verticalAlign=middle;resizable=0;points=[];" parent="ClPwLAFGCt9MLDyTrMYa-9" vertex="1" connectable="0">
          <mxGeometry x="-0.1117" y="1" relative="1" as="geometry">
            <mxPoint y="5" as="offset" />
          </mxGeometry>
        </mxCell>
        <mxCell id="iW4ywjNLq9YxUe-Lawjd-52" value="APIGEE&lt;br&gt;&amp;lt;GCP API Manager&amp;gt;&lt;br&gt;Endpoint: &amp;lt;IP Publica&amp;gt;" style="html=1;outlineConnect=0;whiteSpace=wrap;fillColor=#FFFF99;shape=mxgraph.archimate3.application;appType=comp;archiType=square;fontFamily=Consolas;fontSource=https%3A%2F%2Ffonts.googleapis.com%2Fcss%3Ffamily%3DConsolas;strokeColor=#C7C777;" parent="1" vertex="1">
          <mxGeometry x="-29" y="982" width="186" height="64.2" as="geometry" />
        </mxCell>
        <mxCell id="ClPwLAFGCt9MLDyTrMYa-2" style="edgeStyle=orthogonalEdgeStyle;rounded=0;orthogonalLoop=1;jettySize=auto;html=1;" parent="1" source="iW4ywjNLq9YxUe-Lawjd-31" target="-0a48gGXDMhhFCgTcJoj-28" edge="1">
          <mxGeometry relative="1" as="geometry" />
        </mxCell>
        <mxCell id="iW4ywjNLq9YxUe-Lawjd-31" value="Datapower interno&lt;br&gt;&amp;lt;IBM API Gateway&amp;gt;&lt;br&gt;datapowerprod.uio.bpichincha.com&lt;br&gt;IP: 10.151.152.109" style="html=1;outlineConnect=0;whiteSpace=wrap;fillColor=#99FFFF;shape=mxgraph.archimate3.application;appType=comp;archiType=square;fontFamily=Consolas;fontSource=https%3A%2F%2Ffonts.googleapis.com%2Fcss%3Ffamily%3DConsolas;strokeColor=#6C8EBF;" parent="1" vertex="1">
          <mxGeometry x="604" y="982.86" width="227" height="62.49" as="geometry" />
        </mxCell>
        <mxCell id="-0a48gGXDMhhFCgTcJoj-20" style="edgeStyle=orthogonalEdgeStyle;rounded=0;orthogonalLoop=1;jettySize=auto;html=1;" parent="1" source="-0a48gGXDMhhFCgTcJoj-11" target="iW4ywjNLq9YxUe-Lawjd-31" edge="1">
          <mxGeometry relative="1" as="geometry" />
        </mxCell>
        <mxCell id="-0a48gGXDMhhFCgTcJoj-31" style="edgeStyle=orthogonalEdgeStyle;rounded=0;orthogonalLoop=1;jettySize=auto;html=1;dashed=1;jumpStyle=arc;" parent="1" source="-0a48gGXDMhhFCgTcJoj-28" target="-0a48gGXDMhhFCgTcJoj-26" edge="1">
          <mxGeometry relative="1" as="geometry">
            <mxPoint x="817.9999999999995" y="1242.125" as="sourcePoint" />
            <mxPoint x="654" y="1560" as="targetPoint" />
          </mxGeometry>
        </mxCell>
        <mxCell id="ClPwLAFGCt9MLDyTrMYa-4" style="edgeStyle=orthogonalEdgeStyle;rounded=0;orthogonalLoop=1;jettySize=auto;html=1;dashed=1;" parent="1" source="-0a48gGXDMhhFCgTcJoj-24" target="sC4P4L01jily7y9ABVmW-1" edge="1">
          <mxGeometry relative="1" as="geometry">
            <Array as="points">
              <mxPoint x="457" y="1199" />
            </Array>
          </mxGeometry>
        </mxCell>
        <mxCell id="-0a48gGXDMhhFCgTcJoj-28" value="WSsSguridad0064&lt;br&gt;&lt;font style=&quot;font-size: 10px;&quot;&gt;&amp;lt;Validar la clave digital&amp;gt;&lt;/font&gt;" style="html=1;outlineConnect=0;whiteSpace=wrap;fillColor=#99FFFF;shape=mxgraph.archimate3.application;appType=comp;archiType=square;fontFamily=Consolas;fontSource=https%3A%2F%2Ffonts.googleapis.com%2Fcss%3Ffamily%3DConsolas;strokeColor=#6C8EBF;" parent="1" vertex="1">
          <mxGeometry x="709" y="1089.8000000000002" width="199" height="64.2" as="geometry" />
        </mxCell>
        <mxCell id="k740u90MQO_QVeWFVe5n-3" style="edgeStyle=orthogonalEdgeStyle;rounded=0;orthogonalLoop=1;jettySize=auto;html=1;dashed=1;jumpStyle=arc;" parent="1" source="-0a48gGXDMhhFCgTcJoj-24" target="ClPwLAFGCt9MLDyTrMYa-15" edge="1">
          <mxGeometry relative="1" as="geometry">
            <Array as="points">
              <mxPoint x="1298" y="1239" />
            </Array>
          </mxGeometry>
        </mxCell>
        <mxCell id="k740u90MQO_QVeWFVe5n-5" value="&amp;lt;https,TLS&amp;nbsp;&lt;br&gt;&amp;gt;" style="edgeLabel;html=1;align=center;verticalAlign=middle;resizable=0;points=[];" parent="k740u90MQO_QVeWFVe5n-3" vertex="1" connectable="0">
          <mxGeometry x="0.1014" y="-1" relative="1" as="geometry">
            <mxPoint as="offset" />
          </mxGeometry>
        </mxCell>
        <mxCell id="-0a48gGXDMhhFCgTcJoj-24" value="valid-client&lt;br&gt;&lt;font style=&quot;font-size: 10px;&quot;&gt;&amp;lt;Validar si es cliente de banco&amp;gt;&lt;br&gt;&amp;lt;Java SE 17, Springboot, AKS&amp;gt;&lt;br&gt;&lt;/font&gt;" style="html=1;outlineConnect=0;whiteSpace=wrap;fillColor=#99FF99;shape=mxgraph.archimate3.application;appType=comp;archiType=square;fontFamily=Consolas;fontSource=https%3A%2F%2Ffonts.googleapis.com%2Fcss%3Ffamily%3DConsolas;strokeColor=#000000;" parent="1" vertex="1">
          <mxGeometry x="5" y="1191" width="199" height="64.2" as="geometry" />
        </mxCell>
        <mxCell id="-0a48gGXDMhhFCgTcJoj-33" value="Facephi&lt;br&gt;&lt;font style=&quot;font-size: 10px;&quot;&gt;&amp;lt;Validación facial entre dos rostros&amp;gt;&lt;/font&gt;" style="html=1;outlineConnect=0;whiteSpace=wrap;fillColor=#99FFFF;shape=mxgraph.archimate3.application;appType=comp;archiType=square;fontFamily=Consolas;fontSource=https%3A%2F%2Ffonts.googleapis.com%2Fcss%3Ffamily%3DConsolas;strokeColor=#6C8EBF;" parent="1" vertex="1">
          <mxGeometry x="-238" y="1085" width="156" height="64.2" as="geometry" />
        </mxCell>
        <mxCell id="-0a48gGXDMhhFCgTcJoj-34" style="edgeStyle=orthogonalEdgeStyle;rounded=0;orthogonalLoop=1;jettySize=auto;html=1;entryX=0;entryY=0.5;entryDx=0;entryDy=0;entryPerimeter=0;dashed=1;" parent="1" source="-0a48gGXDMhhFCgTcJoj-33" target="-0a48gGXDMhhFCgTcJoj-8" edge="1">
          <mxGeometry relative="1" as="geometry" />
        </mxCell>
        <mxCell id="ClPwLAFGCt9MLDyTrMYa-21" style="edgeStyle=orthogonalEdgeStyle;rounded=0;orthogonalLoop=1;jettySize=auto;html=1;dashed=1;shadow=1;jumpStyle=arc;" parent="1" source="-0a48gGXDMhhFCgTcJoj-36" target="ClPwLAFGCt9MLDyTrMYa-15" edge="1">
          <mxGeometry relative="1" as="geometry">
            <Array as="points">
              <mxPoint x="252" y="1137" />
              <mxPoint x="252" y="1228" />
            </Array>
          </mxGeometry>
        </mxCell>
        <mxCell id="k740u90MQO_QVeWFVe5n-4" value="&amp;lt;https,TLS&amp;nbsp;&lt;br&gt;&amp;gt;" style="edgeLabel;html=1;align=center;verticalAlign=middle;resizable=0;points=[];" parent="ClPwLAFGCt9MLDyTrMYa-21" vertex="1" connectable="0">
          <mxGeometry x="0.1427" y="4" relative="1" as="geometry">
            <mxPoint x="-33" as="offset" />
          </mxGeometry>
        </mxCell>
        <mxCell id="-0a48gGXDMhhFCgTcJoj-36" value="update-data-transaction-client&lt;br&gt;&lt;font style=&quot;font-size: 10px;&quot;&gt;&amp;lt;Consultar y actualiza los datos transaccionales del cliente.&amp;gt;&lt;br&gt;&amp;lt;Java SE 17, Springboot, AKS&amp;gt;&lt;br&gt;&lt;/font&gt;" style="html=1;outlineConnect=0;whiteSpace=wrap;fillColor=#99FF99;shape=mxgraph.archimate3.application;appType=comp;archiType=square;fontFamily=Consolas;fontSource=https%3A%2F%2Ffonts.googleapis.com%2Fcss%3Ffamily%3DConsolas;strokeColor=#000000;" parent="1" vertex="1">
          <mxGeometry x="3" y="1101" width="199" height="72" as="geometry" />
        </mxCell>
        <mxCell id="-0a48gGXDMhhFCgTcJoj-42" value="Consent PD&lt;br&gt;&lt;font style=&quot;font-size: 10px;&quot;&gt;&amp;lt;Registra el consentimiento Cliene&amp;gt;&lt;/font&gt;" style="html=1;outlineConnect=0;whiteSpace=wrap;fillColor=#99FFFF;shape=mxgraph.archimate3.application;appType=comp;archiType=square;fontFamily=Consolas;fontSource=https%3A%2F%2Ffonts.googleapis.com%2Fcss%3Ffamily%3DConsolas;strokeColor=#6C8EBF;" parent="1" vertex="1">
          <mxGeometry x="484" y="1089.8" width="199" height="64.2" as="geometry" />
        </mxCell>
        <mxCell id="-0a48gGXDMhhFCgTcJoj-45" style="edgeStyle=orthogonalEdgeStyle;rounded=0;orthogonalLoop=1;jettySize=auto;html=1;jumpStyle=arc;" parent="1" source="iW4ywjNLq9YxUe-Lawjd-52" target="-0a48gGXDMhhFCgTcJoj-42" edge="1">
          <mxGeometry relative="1" as="geometry">
            <Array as="points">
              <mxPoint x="80" y="1061" />
              <mxPoint x="535" y="1061" />
            </Array>
          </mxGeometry>
        </mxCell>
        <mxCell id="sC4P4L01jily7y9ABVmW-4" value="" style="rounded=0;whiteSpace=wrap;html=1;flipH=0;" parent="1" vertex="1">
          <mxGeometry x="-261" y="1389" width="1189" height="121" as="geometry" />
        </mxCell>
        <mxCell id="sC4P4L01jily7y9ABVmW-3" value="" style="group;container=0;" parent="1" vertex="1" connectable="0">
          <mxGeometry x="-259" y="1389" width="1189" height="121" as="geometry" />
        </mxCell>
        <mxCell id="sC4P4L01jily7y9ABVmW-5" value="Datos en Cloud" style="text;html=1;strokeColor=none;fillColor=#e1d5e7;align=left;verticalAlign=middle;whiteSpace=wrap;rounded=0;flipH=0;spacingLeft=5;" parent="1" vertex="1">
          <mxGeometry x="-254.61254612546125" y="1393" width="108.58948339483395" height="30" as="geometry" />
        </mxCell>
        <mxCell id="k740u90MQO_QVeWFVe5n-2" style="edgeStyle=orthogonalEdgeStyle;rounded=0;orthogonalLoop=1;jettySize=auto;html=1;dashed=1;" parent="1" source="sC4P4L01jily7y9ABVmW-6" target="k740u90MQO_QVeWFVe5n-1" edge="1">
          <mxGeometry relative="1" as="geometry" />
        </mxCell>
        <mxCell id="sC4P4L01jily7y9ABVmW-6" value="Data Lake" style="html=1;outlineConnect=0;whiteSpace=wrap;fillColor=#FFFF99;shape=mxgraph.archimate3.application;appType=comp;archiType=square;fontFamily=Consolas;fontSource=https%3A%2F%2Ffonts.googleapis.com%2Fcss%3Ffamily%3DConsolas;strokeColor=#C7C777;" parent="1" vertex="1">
          <mxGeometry x="120.00036900369" y="1423" width="197.43542435424354" height="60" as="geometry" />
        </mxCell>
        <mxCell id="ClPwLAFGCt9MLDyTrMYa-3" style="edgeStyle=orthogonalEdgeStyle;rounded=0;orthogonalLoop=1;jettySize=auto;html=1;jumpStyle=arc;dashed=1;" parent="1" source="-0a48gGXDMhhFCgTcJoj-24" target="sC4P4L01jily7y9ABVmW-6" edge="1">
          <mxGeometry relative="1" as="geometry">
            <Array as="points">
              <mxPoint x="219" y="1217" />
            </Array>
          </mxGeometry>
        </mxCell>
        <mxCell id="ClPwLAFGCt9MLDyTrMYa-26" value="&amp;lt;https&amp;gt;" style="edgeLabel;html=1;align=center;verticalAlign=middle;resizable=0;points=[];" parent="ClPwLAFGCt9MLDyTrMYa-3" vertex="1" connectable="0">
          <mxGeometry x="-0.3167" relative="1" as="geometry">
            <mxPoint x="1" as="offset" />
          </mxGeometry>
        </mxCell>
        <mxCell id="ClPwLAFGCt9MLDyTrMYa-5" style="edgeStyle=orthogonalEdgeStyle;rounded=0;orthogonalLoop=1;jettySize=auto;html=1;entryX=0.25;entryY=0;entryDx=0;entryDy=0;entryPerimeter=0;dashed=1;" parent="1" source="-0a48gGXDMhhFCgTcJoj-12" target="sC4P4L01jily7y9ABVmW-1" edge="1">
          <mxGeometry relative="1" as="geometry" />
        </mxCell>
        <mxCell id="nzcbt0dQE4k8wN529uW9-1" style="edgeStyle=orthogonalEdgeStyle;rounded=0;orthogonalLoop=1;jettySize=auto;html=1;dashed=1;" edge="1" parent="1" source="-0a48gGXDMhhFCgTcJoj-12" target="ClPwLAFGCt9MLDyTrMYa-15">
          <mxGeometry relative="1" as="geometry" />
        </mxCell>
        <mxCell id="nzcbt0dQE4k8wN529uW9-2" value="&amp;lt;https,&amp;nbsp;TLS&amp;nbsp;&amp;gt;" style="edgeLabel;html=1;align=center;verticalAlign=middle;resizable=0;points=[];" vertex="1" connectable="0" parent="nzcbt0dQE4k8wN529uW9-1">
          <mxGeometry x="0.0569" y="2" relative="1" as="geometry">
            <mxPoint as="offset" />
          </mxGeometry>
        </mxCell>
        <mxCell id="-0a48gGXDMhhFCgTcJoj-12" value="Notify-push-email&lt;br&gt;&lt;font style=&quot;font-size: 10px;&quot;&gt;&amp;lt;Notificaciones Push/Correo&amp;gt;&lt;br&gt;&amp;lt;Java SE 17, Springboot, AKS&amp;gt;&lt;br&gt;&lt;/font&gt;" style="html=1;outlineConnect=0;whiteSpace=wrap;fillColor=#99FF99;shape=mxgraph.archimate3.application;appType=comp;archiType=square;fontFamily=Consolas;fontSource=https%3A%2F%2Ffonts.googleapis.com%2Fcss%3Ffamily%3DConsolas;strokeColor=#000000;" parent="1" vertex="1">
          <mxGeometry x="3" y="1271" width="199" height="64.2" as="geometry" />
        </mxCell>
        <mxCell id="ClPwLAFGCt9MLDyTrMYa-6" style="edgeStyle=orthogonalEdgeStyle;rounded=0;orthogonalLoop=1;jettySize=auto;html=1;entryX=0;entryY=0.5;entryDx=0;entryDy=0;entryPerimeter=0;" parent="1" target="-0a48gGXDMhhFCgTcJoj-24" edge="1">
          <mxGeometry relative="1" as="geometry">
            <mxPoint x="-30" y="1041" as="sourcePoint" />
            <Array as="points">
              <mxPoint x="-49" y="1041" />
              <mxPoint x="-49" y="1223" />
            </Array>
          </mxGeometry>
        </mxCell>
        <mxCell id="ClPwLAFGCt9MLDyTrMYa-18" value="&amp;lt;https&lt;br&gt;Json&amp;gt;" style="edgeLabel;html=1;align=center;verticalAlign=middle;resizable=0;points=[];" parent="ClPwLAFGCt9MLDyTrMYa-6" vertex="1" connectable="0">
          <mxGeometry x="0.1644" y="3" relative="1" as="geometry">
            <mxPoint y="1" as="offset" />
          </mxGeometry>
        </mxCell>
        <mxCell id="k740u90MQO_QVeWFVe5n-7" value="AES-256" style="edgeLabel;html=1;align=center;verticalAlign=middle;resizable=0;points=[];" parent="ClPwLAFGCt9MLDyTrMYa-6" vertex="1" connectable="0">
          <mxGeometry x="0.464" y="2" relative="1" as="geometry">
            <mxPoint y="1" as="offset" />
          </mxGeometry>
        </mxCell>
        <mxCell id="ClPwLAFGCt9MLDyTrMYa-7" style="edgeStyle=orthogonalEdgeStyle;rounded=0;orthogonalLoop=1;jettySize=auto;html=1;entryX=0;entryY=0.5;entryDx=0;entryDy=0;entryPerimeter=0;" parent="1" target="-0a48gGXDMhhFCgTcJoj-12" edge="1">
          <mxGeometry relative="1" as="geometry">
            <mxPoint x="-29" y="1025" as="sourcePoint" />
            <Array as="points">
              <mxPoint x="-58" y="1025" />
              <mxPoint x="-58" y="1303" />
            </Array>
          </mxGeometry>
        </mxCell>
        <mxCell id="ClPwLAFGCt9MLDyTrMYa-17" value="&amp;lt;https,&lt;br&gt;Json&amp;gt;" style="edgeLabel;html=1;align=center;verticalAlign=middle;resizable=0;points=[];" parent="ClPwLAFGCt9MLDyTrMYa-7" vertex="1" connectable="0">
          <mxGeometry x="-0.3443" y="-4" relative="1" as="geometry">
            <mxPoint y="1" as="offset" />
          </mxGeometry>
        </mxCell>
        <mxCell id="ClPwLAFGCt9MLDyTrMYa-8" style="edgeStyle=orthogonalEdgeStyle;rounded=0;orthogonalLoop=1;jettySize=auto;html=1;entryX=0;entryY=0.25;entryDx=0;entryDy=0;entryPerimeter=0;dashed=1;" parent="1" source="sC4P4L01jily7y9ABVmW-6" target="sC4P4L01jily7y9ABVmW-1" edge="1">
          <mxGeometry relative="1" as="geometry" />
        </mxCell>
        <mxCell id="-0a48gGXDMhhFCgTcJoj-4" value="" style="group" parent="1" vertex="1" connectable="0">
          <mxGeometry x="-264" y="1551" width="1189" height="121" as="geometry" />
        </mxCell>
        <mxCell id="iW4ywjNLq9YxUe-Lawjd-9" value="" style="rounded=0;whiteSpace=wrap;html=1;flipH=0;" parent="-0a48gGXDMhhFCgTcJoj-4" vertex="1">
          <mxGeometry width="1189" height="121" as="geometry" />
        </mxCell>
        <mxCell id="iW4ywjNLq9YxUe-Lawjd-10" value="Cores Banco" style="text;html=1;strokeColor=none;fillColor=#e1d5e7;align=left;verticalAlign=middle;whiteSpace=wrap;rounded=0;flipH=0;spacingLeft=5;" parent="-0a48gGXDMhhFCgTcJoj-4" vertex="1">
          <mxGeometry x="4.387453874538745" y="4" width="108.58948339483395" height="30" as="geometry" />
        </mxCell>
        <mxCell id="iW4ywjNLq9YxUe-Lawjd-35" value="Bancs&lt;br&gt;&amp;lt;Cobol CICS + Oracle 12&amp;gt;&lt;br&gt;IP: 10.0.21.2" style="html=1;outlineConnect=0;whiteSpace=wrap;fillColor=#FFFF99;shape=mxgraph.archimate3.application;appType=comp;archiType=square;fontFamily=Consolas;fontSource=https%3A%2F%2Ffonts.googleapis.com%2Fcss%3Ffamily%3DConsolas;strokeColor=#C7C777;" parent="-0a48gGXDMhhFCgTcJoj-4" vertex="1">
          <mxGeometry x="559.40036900369" y="40" width="197.43542435424354" height="60" as="geometry" />
        </mxCell>
        <mxCell id="sC4P4L01jily7y9ABVmW-2" style="edgeStyle=orthogonalEdgeStyle;rounded=0;orthogonalLoop=1;jettySize=auto;html=1;entryX=0.25;entryY=0;entryDx=0;entryDy=0;entryPerimeter=0;jumpStyle=arc;" parent="1" source="-0a48gGXDMhhFCgTcJoj-36" target="iW4ywjNLq9YxUe-Lawjd-35" edge="1">
          <mxGeometry relative="1" as="geometry">
            <Array as="points">
              <mxPoint x="345" y="1155" />
            </Array>
          </mxGeometry>
        </mxCell>
        <mxCell id="ClPwLAFGCt9MLDyTrMYa-23" value="&amp;lt;tcp/ip&amp;gt;" style="edgeLabel;html=1;align=center;verticalAlign=middle;resizable=0;points=[];" parent="sC4P4L01jily7y9ABVmW-2" vertex="1" connectable="0">
          <mxGeometry x="-0.1309" y="2" relative="1" as="geometry">
            <mxPoint as="offset" />
          </mxGeometry>
        </mxCell>
        <mxCell id="ClPwLAFGCt9MLDyTrMYa-10" style="edgeStyle=orthogonalEdgeStyle;rounded=0;orthogonalLoop=1;jettySize=auto;html=1;entryX=0.5;entryY=0;entryDx=0;entryDy=0;entryPerimeter=0;dashed=1;jumpStyle=arc;" parent="1" source="-0a48gGXDMhhFCgTcJoj-36" target="sC4P4L01jily7y9ABVmW-1" edge="1">
          <mxGeometry relative="1" as="geometry">
            <Array as="points">
              <mxPoint x="418" y="1115" />
              <mxPoint x="418" y="1740" />
            </Array>
          </mxGeometry>
        </mxCell>
        <mxCell id="ClPwLAFGCt9MLDyTrMYa-15" value="Azure Key value&lt;br style=&quot;border-color: var(--border-color); font-family: Consolas;&quot;&gt;&lt;span style=&quot;font-family: Consolas;&quot;&gt;&amp;lt;Azure administrador de secretos&amp;gt;&lt;/span&gt;&lt;br style=&quot;border-color: var(--border-color); font-family: Consolas;&quot;&gt;&lt;span style=&quot;font-family: Consolas;&quot;&gt;&lt;br&gt;&lt;/span&gt;" style="sketch=0;pointerEvents=1;shadow=0;dashed=0;html=1;strokeColor=none;fillColor=#505050;labelPosition=center;verticalLabelPosition=bottom;verticalAlign=top;outlineConnect=0;align=center;shape=mxgraph.office.security.lock_with_key_security;" parent="1" vertex="1">
          <mxGeometry x="1282" y="1204" width="32" height="32" as="geometry" />
        </mxCell>
        <mxCell id="iW4ywjNLq9YxUe-Lawjd-34" value="&amp;lt;tcp/ip&lt;br&gt;1521&amp;gt;" style="edgeStyle=orthogonalEdgeStyle;rounded=0;orthogonalLoop=1;jettySize=auto;html=1;" parent="1" source="iW4ywjNLq9YxUe-Lawjd-35" target="iW4ywjNLq9YxUe-Lawjd-41" edge="1">
          <mxGeometry relative="1" as="geometry" />
        </mxCell>
        <mxCell id="k740u90MQO_QVeWFVe5n-1" value="Credenciales de base de cloud&lt;br style=&quot;border-color: var(--border-color); font-family: Consolas;&quot;&gt;&lt;span style=&quot;font-family: Consolas;&quot;&gt;&amp;lt;Data lake&amp;gt;&lt;/span&gt;&lt;br style=&quot;border-color: var(--border-color); font-family: Consolas;&quot;&gt;&lt;span style=&quot;font-family: Consolas;&quot;&gt;Rol:&amp;nbsp;&lt;br&gt;&lt;/span&gt;" style="sketch=0;pointerEvents=1;shadow=0;dashed=0;html=1;strokeColor=none;fillColor=#505050;labelPosition=center;verticalLabelPosition=bottom;verticalAlign=top;outlineConnect=0;align=center;shape=mxgraph.office.security.lock_with_key_security;" parent="1" vertex="1">
          <mxGeometry x="1279.5" y="1318" width="32" height="32" as="geometry" />
        </mxCell>
      </root>
    </mxGraphModel>
  </diagram>
</mxfile>
